{
    "asset": {
        "generator": "FBX2glTF",
        "version": "2.0"
    },
    "scene": 0,
    "buffers": [
        {
            "byteLength": 7456,
            "uri": "buffer.bin"
        }
    ],
    "bufferViews": [
        {
            "buffer": 0,
            "byteLength": 402,
            "byteOffset": 0,
            "target": 34963
        },
        {
            "buffer": 0,
            "byteLength": 1572,
            "byteOffset": 404,
            "target": 34962
        },
        {
            "buffer": 0,
            "byteLength": 1572,
            "byteOffset": 1976,
            "target": 34962
        },
        {
            "buffer": 0,
            "byteLength": 1048,
            "byteOffset": 3548,
            "target": 34962
        },
        {
            "buffer": 0,
            "byteLength": 318,
            "byteOffset": 4596,
            "target": 34963
        },
        {
            "buffer": 0,
            "byteLength": 876,
            "byteOffset": 4916,
            "target": 34962
        },
        {
            "buffer": 0,
            "byteLength": 876,
            "byteOffset": 5792,
            "target": 34962
        },
        {
            "buffer": 0,
            "byteLength": 584,
            "byteOffset": 6668,
            "target": 34962
        },
        {
            "buffer": 0,
            "byteLength": 12,
            "byteOffset": 7252,
            "target": 34963
        },
        {
            "buffer": 0,
            "byteLength": 72,
            "byteOffset": 7264,
            "target": 34962
        },
        {
            "buffer": 0,
            "byteLength": 72,
            "byteOffset": 7336,
            "target": 34962
        },
        {
            "buffer": 0,
            "byteLength": 48,
            "byteOffset": 7408,
            "target": 34962
        }
    ],
    "scenes": [
        {
            "name": "Root Scene",
            "nodes": [
                0
            ]
        }
    ],
    "accessors": [
        {
            "componentType": 5123,
            "type": "SCALAR",
            "count": 201,
            "bufferView": 0,
            "byteOffset": 0
        },
        {
            "componentType": 5126,
            "type": "VEC3",
            "count": 131,
            "bufferView": 1,
            "byteOffset": 0,
            "min": [
                -0.0149999996647239,
                0.0160000007599592,
                -0.0149999996647239
            ],
            "max": [
                0.0149999996647239,
                0.0999999940395355,
                0.0149999996647239
            ]
        },
        {
            "componentType": 5126,
            "type": "VEC3",
            "count": 131,
            "bufferView": 2,
            "byteOffset": 0
        },
        {
            "componentType": 5126,
            "type": "VEC2",
            "count": 131,
            "bufferView": 3,
            "byteOffset": 0
        },
        {
            "componentType": 5123,
            "type": "SCALAR",
            "count": 159,
            "bufferView": 4,
            "byteOffset": 0
        },
        {
            "componentType": 5126,
            "type": "VEC3",
            "count": 73,
            "bufferView": 5,
            "byteOffset": 0,
            "min": [
                -0.0149999996647239,
                0.0,
                -0.0149999996647239
            ],
            "max": [
                0.0149999996647239,
                0.0999999940395355,
                0.0149999996647239
            ]
        },
        {
            "componentType": 5126,
            "type": "VEC3",
            "count": 73,
            "bufferView": 6,
            "byteOffset": 0
        },
        {
            "componentType": 5126,
            "type": "VEC2",
            "count": 73,
            "bufferView": 7,
            "byteOffset": 0
        },
        {
            "componentType": 5123,
            "type": "SCALAR",
            "count": 6,
            "bufferView": 8,
            "byteOffset": 0
        },
        {
            "componentType": 5126,
            "type": "VEC3",
            "count": 6,
            "bufferView": 9,
            "byteOffset": 0,
            "min": [
                -0.0109999999403954,
                0.0799999982118607,
                -0.0109999999403954
            ],
            "max": [
                0.0109999999403954,
                0.0799999982118607,
                0.0109999999403954
            ]
        },
        {
            "componentType": 5126,
            "type": "VEC3",
            "count": 6,
            "bufferView": 10,
            "byteOffset": 0
        },
        {
            "componentType": 5126,
            "type": "VEC2",
            "count": 6,
            "bufferView": 11,
            "byteOffset": 0
        }
    ],
    "samplers": [
        {}
    ],
    "materials": [
        {
            "name": "stoneDark",
            "alphaMode": "OPAQUE",
            "extras": {
                "fromFBX": {
                    "shadingModel": "Phong",
                    "isTruePBR": false
                }
            },
            "pbrMetallicRoughness": {
                "baseColorFactor": [
                    0.603921592235565,
                    0.709803879261017,
                    0.729411780834198,
                    1.0
                ],
                "metallicFactor": 0.400000005960464,
                "roughnessFactor": 1.0
            }
        },
        {
            "name": "stone",
            "alphaMode": "OPAQUE",
            "extras": {
                "fromFBX": {
                    "shadingModel": "Phong",
                    "isTruePBR": false
                }
            },
            "pbrMetallicRoughness": {
                "baseColorFactor": [
                    0.721568584442139,
                    0.886274516582489,
                    0.909803926944733,
                    1.0
                ],
                "metallicFactor": 0.400000005960464,
                "roughnessFactor": 1.0
            }
        },
        {
            "name": "_defaultMat",
            "alphaMode": "OPAQUE",
            "extras": {
                "fromFBX": {
                    "shadingModel": "Phong",
                    "isTruePBR": false
                }
            },
            "pbrMetallicRoughness": {
                "baseColorFactor": [
                    1.0,
                    1.0,
                    1.0,
                    1.0
                ],
                "metallicFactor": 0.400000005960464,
                "roughnessFactor": 1.0
            }
        }
    ],
    "meshes": [
        {
            "name": "statue_column",
            "primitives": [
                {
                    "material": 0,
                    "mode": 4,
                    "attributes": {
                        "NORMAL": 2,
                        "POSITION": 1,
                        "TEXCOORD_0": 3
                    },
                    "indices": 0
                },
                {
                    "material": 1,
                    "mode": 4,
                    "attributes": {
                        "NORMAL": 6,
                        "POSITION": 5,
                        "TEXCOORD_0": 7
                    },
                    "indices": 4
                },
                {
                    "material": 2,
                    "mode": 4,
                    "attributes": {
                        "NORMAL": 10,
                        "POSITION": 9,
                        "TEXCOORD_0": 11
                    },
                    "indices": 8
                }
            ]
        }
    ],
    "nodes": [
        {
            "name": "RootNode",
            "translation": [
                0.0,
                0.0,
                0.0
            ],
            "rotation": [
                0.0,
                0.0,
                0.0,
                1.0
            ],
            "scale": [
                1.0,
                1.0,
                1.0
            ],
            "children": [
                1
            ]
        },
        {
            "name": "statue_column",
            "translation": [
                0.0,
                -0.0499999970197678,
                0.0
            ],
            "rotation": [
                0.0,
                0.0,
                0.0,
                1.0
            ],
            "scale": [
                10.0,
                10.0,
                10.0
            ],
            "mesh": 0
        }
    ]
}