{
    "asset": {
        "generator": "FBX2glTF",
        "version": "2.0"
    },
    "scene": 0,
    "buffers": [
        {
            "byteLength": 33472,
            "uri": "buffer.bin"
        }
    ],
    "bufferViews": [
        {
            "buffer": 0,
            "byteLength": 1440,
            "byteOffset": 0,
            "target": 34963
        },
        {
            "buffer": 0,
            "byteLength": 6864,
            "byteOffset": 1440,
            "target": 34962
        },
        {
            "buffer": 0,
            "byteLength": 6864,
            "byteOffset": 8304,
            "target": 34962
        },
        {
            "buffer": 0,
            "byteLength": 4576,
            "byteOffset": 15168,
            "target": 34962
        },
        {
            "buffer": 0,
            "byteLength": 6864,
            "byteOffset": 19744,
            "target": 34962
        },
        {
            "buffer": 0,
            "byteLength": 6864,
            "byteOffset": 26608,
            "target": 34962
        }
    ],
    "scenes": [
        {
            "name": "Root Scene",
            "nodes": [
                0
            ]
        }
    ],
    "accessors": [
        {
            "componentType": 5123,
            "type": "SCALAR",
            "count": 720,
            "bufferView": 0,
            "byteOffset": 0
        },
        {
            "componentType": 5126,
            "type": "VEC3",
            "count": 572,
            "bufferView": 1,
            "byteOffset": 0,
            "min": [
                -0.977568626403809,
                -0.518401622772217,
                -0.975768387317657
            ],
            "max": [
                0.996513724327087,
                0.023400666192174,
                0.981988370418549
            ]
        },
        {
            "componentType": 5126,
            "type": "VEC3",
            "count": 572,
            "bufferView": 2,
            "byteOffset": 0
        },
        {
            "componentType": 5126,
            "type": "VEC2",
            "count": 572,
            "bufferView": 3,
            "byteOffset": 0
        },
        {
            "componentType": 5126,
            "type": "VEC3",
            "count": 572,
            "bufferView": 4,
            "byteOffset": 0,
            "min": [
                -0.39726909995079,
                -2.24129176139832,
                -0.411581993103027
            ],
            "max": [
                0.469949990510941,
                -0.684385538101196,
                0.502329289913177
            ]
        },
        {
            "componentType": 5126,
            "type": "VEC3",
            "count": 572,
            "bufferView": 5,
            "byteOffset": 0,
            "min": [
                0.0,
                -0.0924231484532356,
                0.0
            ],
            "max": [
                0.0,
                0.0598055645823479,
                0.0
            ]
        }
    ],
    "samplers": [
        {}
    ],
    "materials": [
        {
            "name": "Non Metallic",
            "alphaMode": "OPAQUE",
            "extras": {
                "fromFBX": {
                    "shadingModel": "Phong",
                    "isTruePBR": false
                }
            },
            "pbrMetallicRoughness": {
                "baseColorFactor": [
                    0.800000011920929,
                    0.800000011920929,
                    0.800000011920929,
                    1.0
                ],
                "metallicFactor": 0.400000005960464,
                "roughnessFactor": 0.229415729641914
            }
        }
    ],
    "meshes": [
        {
            "name": "CrumblingRockPlatform",
            "primitives": [
                {
                    "material": 0,
                    "mode": 4,
                    "attributes": {
                        "NORMAL": 2,
                        "POSITION": 1,
                        "TEXCOORD_0": 3
                    },
                    "indices": 0,
                    "targets": [
                        {
                            "POSITION": 4
                        },
                        {
                            "POSITION": 5
                        }
                    ]
                }
            ],
            "weights": [
                0.0,
                0.0
            ]
        }
    ],
    "nodes": [
        {
            "name": "RootNode",
            "translation": [
                0.0,
                0.0,
                0.0
            ],
            "rotation": [
                0.0,
                0.0,
                0.0,
                1.0
            ],
            "scale": [
                1.0,
                1.0,
                1.0
            ],
            "children": [
                1
            ]
        },
        {
            "name": "CrumblingRockPlatform",
            "translation": [
                0.0,
                0.0,
                0.0
            ],
            "rotation": [
                6.12323426292584e-17,
                1.0,
                6.12323426292584e-17,
                3.74939939305299e-33
            ],
            "scale": [
                1.0,
                1.0,
                1.0
            ],
            "mesh": 0
        }
    ]
}