{
    "asset": {
        "generator": "FBX2glTF",
        "version": "2.0"
    },
    "scene": 0,
    "buffers": [
        {
            "byteLength": 49600,
            "uri": "buffer.bin"
        }
    ],
    "bufferViews": [
        {
            "buffer": 0,
            "byteLength": 4896,
            "byteOffset": 0,
            "target": 34963
        },
        {
            "buffer": 0,
            "byteLength": 12192,
            "byteOffset": 4896,
            "target": 34962
        },
        {
            "buffer": 0,
            "byteLength": 12192,
            "byteOffset": 17088,
            "target": 34962
        },
        {
            "buffer": 0,
            "byteLength": 8128,
            "byteOffset": 29280,
            "target": 34962
        },
        {
            "buffer": 0,
            "byteLength": 12192,
            "byteOffset": 37408,
            "target": 34962
        }
    ],
    "scenes": [
        {
            "name": "Root Scene",
            "nodes": [
                0
            ]
        }
    ],
    "accessors": [
        {
            "componentType": 5123,
            "type": "SCALAR",
            "count": 2448,
            "bufferView": 0,
            "byteOffset": 0
        },
        {
            "componentType": 5126,
            "type": "VEC3",
            "count": 1016,
            "bufferView": 1,
            "byteOffset": 0,
            "min": [
                -0.40117534995079,
                -0.312500029802322,
                -0.480151921510696
            ],
            "max": [
                0.400834560394287,
                0.694254040718079,
                0.573295652866364
            ]
        },
        {
            "componentType": 5126,
            "type": "VEC3",
            "count": 1016,
            "bufferView": 2,
            "byteOffset": 0
        },
        {
            "componentType": 5126,
            "type": "VEC2",
            "count": 1016,
            "bufferView": 3,
            "byteOffset": 0
        },
        {
            "componentType": 5126,
            "type": "VEC3",
            "count": 1016,
            "bufferView": 4,
            "byteOffset": 0,
            "min": [
                -0.101018980145454,
                -0.646148502826691,
                0.0
            ],
            "max": [
                0.101203918457031,
                0.0236808005720377,
                9.53674259562831e-08
            ]
        }
    ],
    "samplers": [
        {}
    ],
    "materials": [
        {
            "name": "Non Metallic",
            "alphaMode": "OPAQUE",
            "extras": {
                "fromFBX": {
                    "shadingModel": "Phong",
                    "isTruePBR": false
                }
            },
            "pbrMetallicRoughness": {
                "baseColorFactor": [
                    0.800000011920929,
                    0.800000011920929,
                    0.800000011920929,
                    1.0
                ],
                "metallicFactor": 0.400000005960464,
                "roughnessFactor": 0.229415729641914
            }
        }
    ],
    "meshes": [
        {
            "name": "Bee",
            "primitives": [
                {
                    "material": 0,
                    "mode": 4,
                    "attributes": {
                        "NORMAL": 2,
                        "POSITION": 1,
                        "TEXCOORD_0": 3
                    },
                    "indices": 0,
                    "targets": [
                        {
                            "POSITION": 4
                        }
                    ]
                }
            ],
            "weights": [
                0.0
            ]
        }
    ],
    "nodes": [
        {
            "name": "RootNode",
            "translation": [
                0.0,
                0.0,
                0.0
            ],
            "rotation": [
                0.0,
                0.0,
                0.0,
                1.0
            ],
            "scale": [
                1.0,
                1.0,
                1.0
            ],
            "children": [
                1
            ]
        },
        {
            "name": "Bee",
            "translation": [
                0.0,
                0.0,
                0.0
            ],
            "rotation": [
                6.12323426292584e-17,
                1.0,
                6.12323426292584e-17,
                3.74939939305299e-33
            ],
            "scale": [
                1.0,
                1.0,
                1.0
            ],
            "mesh": 0
        }
    ]
}