{
    "asset": {
        "generator": "FBX2glTF",
        "version": "2.0"
    },
    "scene": 0,
    "buffers": [
        {
            "byteLength": 7848,
            "uri": "buffer.bin"
        }
    ],
    "bufferViews": [
        {
            "buffer": 0,
            "byteLength": 228,
            "byteOffset": 0,
            "target": 34963
        },
        {
            "buffer": 0,
            "byteLength": 648,
            "byteOffset": 228,
            "target": 34962
        },
        {
            "buffer": 0,
            "byteLength": 648,
            "byteOffset": 876,
            "target": 34962
        },
        {
            "buffer": 0,
            "byteLength": 432,
            "byteOffset": 1524,
            "target": 34962
        },
        {
            "buffer": 0,
            "byteLength": 432,
            "byteOffset": 1956,
            "target": 34963
        },
        {
            "buffer": 0,
            "byteLength": 1656,
            "byteOffset": 2388,
            "target": 34962
        },
        {
            "buffer": 0,
            "byteLength": 1656,
            "byteOffset": 4044,
            "target": 34962
        },
        {
            "buffer": 0,
            "byteLength": 1104,
            "byteOffset": 5700,
            "target": 34962
        },
        {
            "buffer": 0,
            "byteLength": 84,
            "byteOffset": 6804,
            "target": 34963
        },
        {
            "buffer": 0,
            "byteLength": 360,
            "byteOffset": 6888,
            "target": 34962
        },
        {
            "buffer": 0,
            "byteLength": 360,
            "byteOffset": 7248,
            "target": 34962
        },
        {
            "buffer": 0,
            "byteLength": 240,
            "byteOffset": 7608,
            "target": 34962
        }
    ],
    "scenes": [
        {
            "name": "Root Scene",
            "nodes": [
                0
            ]
        }
    ],
    "accessors": [
        {
            "componentType": 5123,
            "type": "SCALAR",
            "count": 114,
            "bufferView": 0,
            "byteOffset": 0
        },
        {
            "componentType": 5126,
            "type": "VEC3",
            "count": 54,
            "bufferView": 1,
            "byteOffset": 0,
            "min": [
                -0.0160146001726389,
                -3.38395990359779e-18,
                -0.0370498113334179
            ],
            "max": [
                0.0160146001726389,
                0.00551531976088881,
                0.0376827791333199
            ]
        },
        {
            "componentType": 5126,
            "type": "VEC3",
            "count": 54,
            "bufferView": 2,
            "byteOffset": 0
        },
        {
            "componentType": 5126,
            "type": "VEC2",
            "count": 54,
            "bufferView": 3,
            "byteOffset": 0
        },
        {
            "componentType": 5123,
            "type": "SCALAR",
            "count": 216,
            "bufferView": 4,
            "byteOffset": 0
        },
        {
            "componentType": 5126,
            "type": "VEC3",
            "count": 138,
            "bufferView": 5,
            "byteOffset": 0,
            "min": [
                -0.0160146001726389,
                0.00275765988044441,
                -0.0322447679936886
            ],
            "max": [
                0.0160146001726389,
                0.00920531991869211,
                0.0376827791333199
            ]
        },
        {
            "componentType": 5126,
            "type": "VEC3",
            "count": 138,
            "bufferView": 6,
            "byteOffset": 0
        },
        {
            "componentType": 5126,
            "type": "VEC2",
            "count": 138,
            "bufferView": 7,
            "byteOffset": 0
        },
        {
            "componentType": 5123,
            "type": "SCALAR",
            "count": 42,
            "bufferView": 8,
            "byteOffset": 0
        },
        {
            "componentType": 5126,
            "type": "VEC3",
            "count": 30,
            "bufferView": 9,
            "byteOffset": 0,
            "min": [
                -0.0160146001726389,
                -3.38395990359779e-18,
                -0.0370498113334179
            ],
            "max": [
                0.0160146001726389,
                -6.09112745424475e-19,
                0.0376827791333199
            ]
        },
        {
            "componentType": 5126,
            "type": "VEC3",
            "count": 30,
            "bufferView": 10,
            "byteOffset": 0
        },
        {
            "componentType": 5126,
            "type": "VEC2",
            "count": 30,
            "bufferView": 11,
            "byteOffset": 0
        }
    ],
    "samplers": [
        {}
    ],
    "materials": [
        {
            "name": "woodBirch",
            "alphaMode": "OPAQUE",
            "extras": {
                "fromFBX": {
                    "shadingModel": "Phong",
                    "isTruePBR": false
                }
            },
            "pbrMetallicRoughness": {
                "baseColorFactor": [
                    1.0,
                    0.949019610881805,
                    0.870588183403015,
                    1.0
                ],
                "metallicFactor": 0.400000005960464,
                "roughnessFactor": 1.0
            }
        },
        {
            "name": "leafsDark",
            "alphaMode": "OPAQUE",
            "extras": {
                "fromFBX": {
                    "shadingModel": "Phong",
                    "isTruePBR": false
                }
            },
            "pbrMetallicRoughness": {
                "baseColorFactor": [
                    0.168627500534058,
                    0.650980412960052,
                    0.666666686534882,
                    1.0
                ],
                "metallicFactor": 0.400000005960464,
                "roughnessFactor": 1.0
            }
        },
        {
            "name": "_defaultMat",
            "alphaMode": "OPAQUE",
            "extras": {
                "fromFBX": {
                    "shadingModel": "Phong",
                    "isTruePBR": false
                }
            },
            "pbrMetallicRoughness": {
                "baseColorFactor": [
                    1.0,
                    1.0,
                    1.0,
                    1.0
                ],
                "metallicFactor": 0.400000005960464,
                "roughnessFactor": 1.0
            }
        }
    ],
    "meshes": [
        {
            "name": "bed_floor",
            "primitives": [
                {
                    "material": 0,
                    "mode": 4,
                    "attributes": {
                        "NORMAL": 2,
                        "POSITION": 1,
                        "TEXCOORD_0": 3
                    },
                    "indices": 0
                },
                {
                    "material": 1,
                    "mode": 4,
                    "attributes": {
                        "NORMAL": 6,
                        "POSITION": 5,
                        "TEXCOORD_0": 7
                    },
                    "indices": 4
                },
                {
                    "material": 2,
                    "mode": 4,
                    "attributes": {
                        "NORMAL": 10,
                        "POSITION": 9,
                        "TEXCOORD_0": 11
                    },
                    "indices": 8
                }
            ]
        }
    ],
    "nodes": [
        {
            "name": "RootNode",
            "translation": [
                0.0,
                0.0,
                0.0
            ],
            "rotation": [
                0.0,
                0.0,
                0.0,
                1.0
            ],
            "scale": [
                1.0,
                1.0,
                1.0
            ],
            "children": [
                1
            ]
        },
        {
            "name": "bed_floor",
            "translation": [
                0.0,
                -0.0499999970197678,
                0.0
            ],
            "rotation": [
                0.0,
                0.0,
                0.0,
                1.0
            ],
            "scale": [
                10.0,
                10.0,
                10.0
            ],
            "mesh": 0
        }
    ]
}