{
    "asset": {
        "generator": "FBX2glTF",
        "version": "2.0"
    },
    "scene": 0,
    "buffers": [
        {
            "byteLength": 170976,
            "uri": "buffer.bin"
        }
    ],
    "bufferViews": [
        {
            "buffer": 0,
            "byteLength": 1992,
            "byteOffset": 0,
            "target": 34963
        },
        {
            "buffer": 0,
            "byteLength": 6000,
            "byteOffset": 1992,
            "target": 34962
        },
        {
            "buffer": 0,
            "byteLength": 6000,
            "byteOffset": 7992,
            "target": 34962
        },
        {
            "buffer": 0,
            "byteLength": 8000,
            "byteOffset": 13992,
            "target": 34962
        },
        {
            "buffer": 0,
            "byteLength": 4000,
            "byteOffset": 21992,
            "target": 34962
        },
        {
            "buffer": 0,
            "byteLength": 4416,
            "byteOffset": 25992,
            "target": 34963
        },
        {
            "buffer": 0,
            "byteLength": 11088,
            "byteOffset": 30408,
            "target": 34962
        },
        {
            "buffer": 0,
            "byteLength": 11088,
            "byteOffset": 41496,
            "target": 34962
        },
        {
            "buffer": 0,
            "byteLength": 14784,
            "byteOffset": 52584,
            "target": 34962
        },
        {
            "buffer": 0,
            "byteLength": 7392,
            "byteOffset": 67368,
            "target": 34962
        },
        {
            "buffer": 0,
            "byteLength": 1440,
            "byteOffset": 74760,
            "target": 34963
        },
        {
            "buffer": 0,
            "byteLength": 4200,
            "byteOffset": 76200,
            "target": 34962
        },
        {
            "buffer": 0,
            "byteLength": 4200,
            "byteOffset": 80400,
            "target": 34962
        },
        {
            "buffer": 0,
            "byteLength": 5600,
            "byteOffset": 84600,
            "target": 34962
        },
        {
            "buffer": 0,
            "byteLength": 2800,
            "byteOffset": 90200,
            "target": 34962
        },
        {
            "buffer": 0,
            "byteLength": 1992,
            "byteOffset": 93000,
            "target": 34963
        },
        {
            "buffer": 0,
            "byteLength": 6000,
            "byteOffset": 94992,
            "target": 34962
        },
        {
            "buffer": 0,
            "byteLength": 6000,
            "byteOffset": 100992,
            "target": 34962
        },
        {
            "buffer": 0,
            "byteLength": 8000,
            "byteOffset": 106992,
            "target": 34962
        },
        {
            "buffer": 0,
            "byteLength": 4000,
            "byteOffset": 114992,
            "target": 34962
        },
        {
            "buffer": 0,
            "byteLength": 1992,
            "byteOffset": 118992,
            "target": 34963
        },
        {
            "buffer": 0,
            "byteLength": 6000,
            "byteOffset": 120984,
            "target": 34962
        },
        {
            "buffer": 0,
            "byteLength": 6000,
            "byteOffset": 126984,
            "target": 34962
        },
        {
            "buffer": 0,
            "byteLength": 8000,
            "byteOffset": 132984,
            "target": 34962
        },
        {
            "buffer": 0,
            "byteLength": 4000,
            "byteOffset": 140984,
            "target": 34962
        },
        {
            "buffer": 0,
            "byteLength": 1992,
            "byteOffset": 144984,
            "target": 34963
        },
        {
            "buffer": 0,
            "byteLength": 6000,
            "byteOffset": 146976,
            "target": 34962
        },
        {
            "buffer": 0,
            "byteLength": 6000,
            "byteOffset": 152976,
            "target": 34962
        },
        {
            "buffer": 0,
            "byteLength": 8000,
            "byteOffset": 158976,
            "target": 34962
        },
        {
            "buffer": 0,
            "byteLength": 4000,
            "byteOffset": 166976,
            "target": 34962
        }
    ],
    "scenes": [
        {
            "name": "Root Scene",
            "nodes": [
                0
            ]
        }
    ],
    "accessors": [
        {
            "componentType": 5123,
            "type": "SCALAR",
            "count": 996,
            "bufferView": 0,
            "byteOffset": 0
        },
        {
            "componentType": 5126,
            "type": "VEC3",
            "count": 500,
            "bufferView": 1,
            "byteOffset": 0,
            "min": [
                -2.70541049415471e-13,
                -0.300000011920929,
                -0.300000011920929
            ],
            "max": [
                0.300000011920929,
                0.300000011920929,
                0.300000011920929
            ]
        },
        {
            "componentType": 5126,
            "type": "VEC3",
            "count": 500,
            "bufferView": 2,
            "byteOffset": 0
        },
        {
            "componentType": 5126,
            "type": "VEC4",
            "count": 500,
            "bufferView": 3,
            "byteOffset": 0
        },
        {
            "componentType": 5126,
            "type": "VEC2",
            "count": 500,
            "bufferView": 4,
            "byteOffset": 0
        },
        {
            "componentType": 5123,
            "type": "SCALAR",
            "count": 2208,
            "bufferView": 5,
            "byteOffset": 0
        },
        {
            "componentType": 5126,
            "type": "VEC3",
            "count": 924,
            "bufferView": 6,
            "byteOffset": 0,
            "min": [
                -0.75,
                0.0,
                -1.52499997615814
            ],
            "max": [
                0.75,
                1.10000002384186,
                1.375
            ]
        },
        {
            "componentType": 5126,
            "type": "VEC3",
            "count": 924,
            "bufferView": 7,
            "byteOffset": 0
        },
        {
            "componentType": 5126,
            "type": "VEC4",
            "count": 924,
            "bufferView": 8,
            "byteOffset": 0
        },
        {
            "componentType": 5126,
            "type": "VEC2",
            "count": 924,
            "bufferView": 9,
            "byteOffset": 0
        },
        {
            "componentType": 5123,
            "type": "SCALAR",
            "count": 720,
            "bufferView": 10,
            "byteOffset": 0
        },
        {
            "componentType": 5126,
            "type": "VEC3",
            "count": 350,
            "bufferView": 11,
            "byteOffset": 0,
            "min": [
                -0.5,
                -0.0874999910593033,
                -0.150000005960464
            ],
            "max": [
                0.5,
                0.425772041082382,
                0.0999998077750206
            ]
        },
        {
            "componentType": 5126,
            "type": "VEC3",
            "count": 350,
            "bufferView": 12,
            "byteOffset": 0
        },
        {
            "componentType": 5126,
            "type": "VEC4",
            "count": 350,
            "bufferView": 13,
            "byteOffset": 0
        },
        {
            "componentType": 5126,
            "type": "VEC2",
            "count": 350,
            "bufferView": 14,
            "byteOffset": 0
        },
        {
            "componentType": 5123,
            "type": "SCALAR",
            "count": 996,
            "bufferView": 15,
            "byteOffset": 0
        },
        {
            "componentType": 5126,
            "type": "VEC3",
            "count": 500,
            "bufferView": 16,
            "byteOffset": 0,
            "min": [
                -2.70541049415471e-13,
                -0.300000011920929,
                -0.300000011920929
            ],
            "max": [
                0.300000011920929,
                0.300000011920929,
                0.300000011920929
            ]
        },
        {
            "componentType": 5126,
            "type": "VEC3",
            "count": 500,
            "bufferView": 17,
            "byteOffset": 0
        },
        {
            "componentType": 5126,
            "type": "VEC4",
            "count": 500,
            "bufferView": 18,
            "byteOffset": 0
        },
        {
            "componentType": 5126,
            "type": "VEC2",
            "count": 500,
            "bufferView": 19,
            "byteOffset": 0
        },
        {
            "componentType": 5123,
            "type": "SCALAR",
            "count": 996,
            "bufferView": 20,
            "byteOffset": 0
        },
        {
            "componentType": 5126,
            "type": "VEC3",
            "count": 500,
            "bufferView": 21,
            "byteOffset": 0,
            "min": [
                -0.300000011920929,
                -0.300000011920929,
                -0.300000011920929
            ],
            "max": [
                4.33146831661617e-14,
                0.300000011920929,
                0.300000011920929
            ]
        },
        {
            "componentType": 5126,
            "type": "VEC3",
            "count": 500,
            "bufferView": 22,
            "byteOffset": 0
        },
        {
            "componentType": 5126,
            "type": "VEC4",
            "count": 500,
            "bufferView": 23,
            "byteOffset": 0
        },
        {
            "componentType": 5126,
            "type": "VEC2",
            "count": 500,
            "bufferView": 24,
            "byteOffset": 0
        },
        {
            "componentType": 5123,
            "type": "SCALAR",
            "count": 996,
            "bufferView": 25,
            "byteOffset": 0
        },
        {
            "componentType": 5126,
            "type": "VEC3",
            "count": 500,
            "bufferView": 26,
            "byteOffset": 0,
            "min": [
                -0.300000011920929,
                -0.300000011920929,
                -0.300000011920929
            ],
            "max": [
                4.33146831661617e-14,
                0.300000011920929,
                0.300000011920929
            ]
        },
        {
            "componentType": 5126,
            "type": "VEC3",
            "count": 500,
            "bufferView": 27,
            "byteOffset": 0
        },
        {
            "componentType": 5126,
            "type": "VEC4",
            "count": 500,
            "bufferView": 28,
            "byteOffset": 0
        },
        {
            "componentType": 5126,
            "type": "VEC2",
            "count": 500,
            "bufferView": 29,
            "byteOffset": 0
        }
    ],
    "images": [
        {
            "name": "colormap.png",
            "uri": "colormap.png"
        }
    ],
    "samplers": [
        {}
    ],
    "textures": [
        {
            "name": "DiffuseColor_Texture",
            "sampler": 0,
            "source": 0
        }
    ],
    "materials": [
        {
            "name": "colormap",
            "alphaMode": "OPAQUE",
            "extras": {
                "fromFBX": {
                    "shadingModel": "Lambert",
                    "isTruePBR": false
                }
            },
            "pbrMetallicRoughness": {
                "baseColorTexture": {
                    "index": 0,
                    "texCoord": 0
                },
                "baseColorFactor": [
                    1.0,
                    1.0,
                    1.0,
                    1.0
                ],
                "metallicFactor": 0.200000002980232,
                "roughnessFactor": 0.800000011920929
            }
        }
    ],
    "meshes": [
        {
            "name": "wheel-front-left",
            "primitives": [
                {
                    "material": 0,
                    "mode": 4,
                    "attributes": {
                        "NORMAL": 2,
                        "POSITION": 1,
                        "TANGENT": 3,
                        "TEXCOORD_0": 4
                    },
                    "indices": 0
                }
            ]
        },
        {
            "name": "body",
            "primitives": [
                {
                    "material": 0,
                    "mode": 4,
                    "attributes": {
                        "NORMAL": 7,
                        "POSITION": 6,
                        "TANGENT": 8,
                        "TEXCOORD_0": 9
                    },
                    "indices": 5
                }
            ]
        },
        {
            "name": "grill",
            "primitives": [
                {
                    "material": 0,
                    "mode": 4,
                    "attributes": {
                        "NORMAL": 12,
                        "POSITION": 11,
                        "TANGENT": 13,
                        "TEXCOORD_0": 14
                    },
                    "indices": 10
                }
            ]
        },
        {
            "name": "wheel-back-left",
            "primitives": [
                {
                    "material": 0,
                    "mode": 4,
                    "attributes": {
                        "NORMAL": 17,
                        "POSITION": 16,
                        "TANGENT": 18,
                        "TEXCOORD_0": 19
                    },
                    "indices": 15
                }
            ]
        },
        {
            "name": "wheel-back-right",
            "primitives": [
                {
                    "material": 0,
                    "mode": 4,
                    "attributes": {
                        "NORMAL": 22,
                        "POSITION": 21,
                        "TANGENT": 23,
                        "TEXCOORD_0": 24
                    },
                    "indices": 20
                }
            ]
        },
        {
            "name": "wheel-front-right",
            "primitives": [
                {
                    "material": 0,
                    "mode": 4,
                    "attributes": {
                        "NORMAL": 27,
                        "POSITION": 26,
                        "TANGENT": 28,
                        "TEXCOORD_0": 29
                    },
                    "indices": 25
                }
            ]
        }
    ],
    "nodes": [
        {
            "name": "RootNode",
            "translation": [
                0.0,
                0.0,
                0.0
            ],
            "rotation": [
                0.0,
                0.0,
                0.0,
                1.0
            ],
            "scale": [
                1.0,
                1.0,
                1.0
            ],
            "children": [
                1
            ]
        },
        {
            "name": "police",
            "translation": [
                0.0,
                0.0,
                0.0
            ],
            "rotation": [
                0.0,
                0.0,
                0.0,
                1.0
            ],
            "scale": [
                1.0,
                1.0,
                1.0
            ],
            "children": [
                2,
                3,
                5,
                6,
                7
            ]
        },
        {
            "name": "wheel-front-left",
            "translation": [
                0.300000011920929,
                0.300000011920929,
                0.809999883174896
            ],
            "rotation": [
                0.0,
                0.0,
                0.0,
                1.0
            ],
            "scale": [
                1.0,
                1.0,
                1.0
            ],
            "mesh": 0
        },
        {
            "name": "body",
            "translation": [
                0.0,
                0.199999988079071,
                -0.0249999985098839
            ],
            "rotation": [
                0.0,
                0.0,
                0.0,
                1.0
            ],
            "scale": [
                1.0,
                1.0,
                1.0
            ],
            "children": [
                4
            ],
            "mesh": 1
        },
        {
            "name": "grill",
            "translation": [
                0.0,
                0.0742279291152954,
                1.47499978542328
            ],
            "rotation": [
                0.0,
                0.0,
                0.0,
                1.0
            ],
            "scale": [
                1.0,
                1.0,
                1.0
            ],
            "mesh": 2
        },
        {
            "name": "wheel-back-left",
            "translation": [
                0.300000011920929,
                0.300000011920929,
                -0.809999883174896
            ],
            "rotation": [
                0.0,
                0.0,
                0.0,
                1.0
            ],
            "scale": [
                1.0,
                1.0,
                1.0
            ],
            "mesh": 3
        },
        {
            "name": "wheel-back-right",
            "translation": [
                -0.300000011920929,
                0.300000011920929,
                -0.809999883174896
            ],
            "rotation": [
                0.0,
                0.0,
                0.0,
                1.0
            ],
            "scale": [
                1.0,
                1.0,
                1.0
            ],
            "mesh": 4
        },
        {
            "name": "wheel-front-right",
            "translation": [
                -0.300000011920929,
                0.300000011920929,
                0.809999883174896
            ],
            "rotation": [
                0.0,
                0.0,
                0.0,
                1.0
            ],
            "scale": [
                1.0,
                1.0,
                1.0
            ],
            "mesh": 5
        }
    ]
}