{
    "asset": {
        "generator": "FBX2glTF",
        "version": "2.0"
    },
    "scene": 0,
    "buffers": [
        {
            "byteLength": 132660,
            "uri": "buffer.bin"
        }
    ],
    "bufferViews": [
        {
            "buffer": 0,
            "byteLength": 7212,
            "byteOffset": 0,
            "target": 34963
        },
        {
            "buffer": 0,
            "byteLength": 24240,
            "byteOffset": 7212,
            "target": 34962
        },
        {
            "buffer": 0,
            "byteLength": 24240,
            "byteOffset": 31452,
            "target": 34962
        },
        {
            "buffer": 0,
            "byteLength": 32320,
            "byteOffset": 55692,
            "target": 34962
        },
        {
            "buffer": 0,
            "byteLength": 16160,
            "byteOffset": 88012,
            "target": 34962
        },
        {
            "buffer": 0,
            "byteLength": 552,
            "byteOffset": 104172,
            "target": 34963
        },
        {
            "buffer": 0,
            "byteLength": 1512,
            "byteOffset": 104724,
            "target": 34962
        },
        {
            "buffer": 0,
            "byteLength": 1512,
            "byteOffset": 106236,
            "target": 34962
        },
        {
            "buffer": 0,
            "byteLength": 2016,
            "byteOffset": 107748,
            "target": 34962
        },
        {
            "buffer": 0,
            "byteLength": 1008,
            "byteOffset": 109764,
            "target": 34962
        },
        {
            "buffer": 0,
            "byteLength": 636,
            "byteOffset": 110772,
            "target": 34963
        },
        {
            "buffer": 0,
            "byteLength": 1752,
            "byteOffset": 111408,
            "target": 34962
        },
        {
            "buffer": 0,
            "byteLength": 1752,
            "byteOffset": 113160,
            "target": 34962
        },
        {
            "buffer": 0,
            "byteLength": 2336,
            "byteOffset": 114912,
            "target": 34962
        },
        {
            "buffer": 0,
            "byteLength": 1168,
            "byteOffset": 117248,
            "target": 34962
        },
        {
            "buffer": 0,
            "byteLength": 636,
            "byteOffset": 118416,
            "target": 34963
        },
        {
            "buffer": 0,
            "byteLength": 1752,
            "byteOffset": 119052,
            "target": 34962
        },
        {
            "buffer": 0,
            "byteLength": 1752,
            "byteOffset": 120804,
            "target": 34962
        },
        {
            "buffer": 0,
            "byteLength": 2336,
            "byteOffset": 122556,
            "target": 34962
        },
        {
            "buffer": 0,
            "byteLength": 1168,
            "byteOffset": 124892,
            "target": 34962
        },
        {
            "buffer": 0,
            "byteLength": 552,
            "byteOffset": 126060,
            "target": 34963
        },
        {
            "buffer": 0,
            "byteLength": 1512,
            "byteOffset": 126612,
            "target": 34962
        },
        {
            "buffer": 0,
            "byteLength": 1512,
            "byteOffset": 128124,
            "target": 34962
        },
        {
            "buffer": 0,
            "byteLength": 2016,
            "byteOffset": 129636,
            "target": 34962
        },
        {
            "buffer": 0,
            "byteLength": 1008,
            "byteOffset": 131652,
            "target": 34962
        }
    ],
    "scenes": [
        {
            "name": "Root Scene",
            "nodes": [
                0
            ]
        }
    ],
    "accessors": [
        {
            "componentType": 5123,
            "type": "SCALAR",
            "count": 3606,
            "bufferView": 0,
            "byteOffset": 0
        },
        {
            "componentType": 5126,
            "type": "VEC3",
            "count": 2020,
            "bufferView": 1,
            "byteOffset": 0,
            "min": [
                -0.98279994726181,
                0.195167988538742,
                -0.48259249329567
            ],
            "max": [
                0.9828000664711,
                2.67989611625671,
                0.48259249329567
            ]
        },
        {
            "componentType": 5126,
            "type": "VEC3",
            "count": 2020,
            "bufferView": 2,
            "byteOffset": 0
        },
        {
            "componentType": 5126,
            "type": "VEC4",
            "count": 2020,
            "bufferView": 3,
            "byteOffset": 0
        },
        {
            "componentType": 5126,
            "type": "VEC2",
            "count": 2020,
            "bufferView": 4,
            "byteOffset": 0
        },
        {
            "componentType": 5123,
            "type": "SCALAR",
            "count": 276,
            "bufferView": 5,
            "byteOffset": 0
        },
        {
            "componentType": 5126,
            "type": "VEC3",
            "count": 126,
            "bufferView": 6,
            "byteOffset": 0,
            "min": [
                -0.201401993632317,
                -0.201401993632317,
                -0.0665912553668022
            ],
            "max": [
                0.201401993632317,
                0.201401993632317,
                0.0665912553668022
            ]
        },
        {
            "componentType": 5126,
            "type": "VEC3",
            "count": 126,
            "bufferView": 7,
            "byteOffset": 0
        },
        {
            "componentType": 5126,
            "type": "VEC4",
            "count": 126,
            "bufferView": 8,
            "byteOffset": 0
        },
        {
            "componentType": 5126,
            "type": "VEC2",
            "count": 126,
            "bufferView": 9,
            "byteOffset": 0
        },
        {
            "componentType": 5123,
            "type": "SCALAR",
            "count": 318,
            "bufferView": 10,
            "byteOffset": 0
        },
        {
            "componentType": 5126,
            "type": "VEC3",
            "count": 146,
            "bufferView": 11,
            "byteOffset": 0,
            "min": [
                -0.201401993632317,
                -0.201401993632317,
                -0.0665912553668022
            ],
            "max": [
                0.201401993632317,
                0.201401993632317,
                0.0665912553668022
            ]
        },
        {
            "componentType": 5126,
            "type": "VEC3",
            "count": 146,
            "bufferView": 12,
            "byteOffset": 0
        },
        {
            "componentType": 5126,
            "type": "VEC4",
            "count": 146,
            "bufferView": 13,
            "byteOffset": 0
        },
        {
            "componentType": 5126,
            "type": "VEC2",
            "count": 146,
            "bufferView": 14,
            "byteOffset": 0
        },
        {
            "componentType": 5123,
            "type": "SCALAR",
            "count": 318,
            "bufferView": 15,
            "byteOffset": 0
        },
        {
            "componentType": 5126,
            "type": "VEC3",
            "count": 146,
            "bufferView": 16,
            "byteOffset": 0,
            "min": [
                -0.201401993632317,
                -0.201401993632317,
                -0.0665912553668022
            ],
            "max": [
                0.201401993632317,
                0.201401993632317,
                0.0665912553668022
            ]
        },
        {
            "componentType": 5126,
            "type": "VEC3",
            "count": 146,
            "bufferView": 17,
            "byteOffset": 0
        },
        {
            "componentType": 5126,
            "type": "VEC4",
            "count": 146,
            "bufferView": 18,
            "byteOffset": 0
        },
        {
            "componentType": 5126,
            "type": "VEC2",
            "count": 146,
            "bufferView": 19,
            "byteOffset": 0
        },
        {
            "componentType": 5123,
            "type": "SCALAR",
            "count": 276,
            "bufferView": 20,
            "byteOffset": 0
        },
        {
            "componentType": 5126,
            "type": "VEC3",
            "count": 126,
            "bufferView": 21,
            "byteOffset": 0,
            "min": [
                -0.201401993632317,
                -0.201401993632317,
                -0.0665912553668022
            ],
            "max": [
                0.201401993632317,
                0.201401993632317,
                0.0665912553668022
            ]
        },
        {
            "componentType": 5126,
            "type": "VEC3",
            "count": 126,
            "bufferView": 22,
            "byteOffset": 0
        },
        {
            "componentType": 5126,
            "type": "VEC4",
            "count": 126,
            "bufferView": 23,
            "byteOffset": 0
        },
        {
            "componentType": 5126,
            "type": "VEC2",
            "count": 126,
            "bufferView": 24,
            "byteOffset": 0
        }
    ],
    "images": [
        {
            "name": "colormap.png",
            "uri": "colormap.png"
        }
    ],
    "samplers": [
        {}
    ],
    "textures": [
        {
            "name": "DiffuseColor_Texture",
            "sampler": 0,
            "source": 0
        }
    ],
    "materials": [
        {
            "name": "colormap",
            "alphaMode": "OPAQUE",
            "extras": {
                "fromFBX": {
                    "shadingModel": "Lambert",
                    "isTruePBR": false
                }
            },
            "pbrMetallicRoughness": {
                "baseColorTexture": {
                    "index": 0,
                    "texCoord": 0
                },
                "baseColorFactor": [
                    1.0,
                    1.0,
                    1.0,
                    1.0
                ],
                "metallicFactor": 0.200000002980232,
                "roughnessFactor": 0.800000011920929
            }
        }
    ],
    "meshes": [
        {
            "name": "siege-tower",
            "primitives": [
                {
                    "material": 0,
                    "mode": 4,
                    "attributes": {
                        "NORMAL": 2,
                        "POSITION": 1,
                        "TANGENT": 3,
                        "TEXCOORD_0": 4
                    },
                    "indices": 0
                }
            ]
        },
        {
            "name": "wheel",
            "primitives": [
                {
                    "material": 0,
                    "mode": 4,
                    "attributes": {
                        "NORMAL": 7,
                        "POSITION": 6,
                        "TANGENT": 8,
                        "TEXCOORD_0": 9
                    },
                    "indices": 5
                }
            ]
        },
        {
            "name": "wheel_1",
            "primitives": [
                {
                    "material": 0,
                    "mode": 4,
                    "attributes": {
                        "NORMAL": 12,
                        "POSITION": 11,
                        "TANGENT": 13,
                        "TEXCOORD_0": 14
                    },
                    "indices": 10
                }
            ]
        },
        {
            "name": "wheel_2",
            "primitives": [
                {
                    "material": 0,
                    "mode": 4,
                    "attributes": {
                        "NORMAL": 17,
                        "POSITION": 16,
                        "TANGENT": 18,
                        "TEXCOORD_0": 19
                    },
                    "indices": 15
                }
            ]
        },
        {
            "name": "wheel_3",
            "primitives": [
                {
                    "material": 0,
                    "mode": 4,
                    "attributes": {
                        "NORMAL": 22,
                        "POSITION": 21,
                        "TANGENT": 23,
                        "TEXCOORD_0": 24
                    },
                    "indices": 20
                }
            ]
        }
    ],
    "nodes": [
        {
            "name": "RootNode",
            "translation": [
                0.0,
                0.0,
                0.0
            ],
            "rotation": [
                0.0,
                0.0,
                0.0,
                1.0
            ],
            "scale": [
                1.0,
                1.0,
                1.0
            ],
            "children": [
                1
            ]
        },
        {
            "name": "siege-tower",
            "translation": [
                0.0,
                0.0,
                0.0
            ],
            "rotation": [
                0.0,
                0.0,
                0.0,
                1.0
            ],
            "scale": [
                1.0,
                1.0,
                1.0
            ],
            "children": [
                2,
                3,
                4,
                5
            ],
            "mesh": 0
        },
        {
            "name": "wheel",
            "translation": [
                -0.615887999534607,
                0.201401993632317,
                0.538335263729095
            ],
            "rotation": [
                0.0,
                0.0,
                0.0,
                1.0
            ],
            "scale": [
                1.0,
                1.0,
                1.0
            ],
            "mesh": 1
        },
        {
            "name": "wheel_1",
            "translation": [
                0.222767993807793,
                0.201401993632317,
                0.538335263729095
            ],
            "rotation": [
                0.0,
                0.0,
                0.0,
                1.0
            ],
            "scale": [
                1.0,
                1.0,
                1.0
            ],
            "mesh": 2
        },
        {
            "name": "wheel_2",
            "translation": [
                -0.615887999534607,
                0.201401993632317,
                -0.538335263729095
            ],
            "rotation": [
                0.0,
                0.0,
                0.0,
                1.0
            ],
            "scale": [
                1.0,
                1.0,
                1.0
            ],
            "mesh": 3
        },
        {
            "name": "wheel_3",
            "translation": [
                0.222767993807793,
                0.201401993632317,
                -0.538335263729095
            ],
            "rotation": [
                0.0,
                0.0,
                0.0,
                1.0
            ],
            "scale": [
                1.0,
                1.0,
                1.0
            ],
            "mesh": 4
        }
    ]
}