{
    "asset": {
        "generator": "FBX2glTF",
        "version": "2.0"
    },
    "scene": 0,
    "buffers": [
        {
            "byteLength": 32112,
            "uri": "buffer.bin"
        }
    ],
    "bufferViews": [
        {
            "buffer": 0,
            "byteLength": 3072,
            "byteOffset": 0,
            "target": 34963
        },
        {
            "buffer": 0,
            "byteLength": 3612,
            "byteOffset": 3072,
            "target": 34962
        },
        {
            "buffer": 0,
            "byteLength": 3612,
            "byteOffset": 6684,
            "target": 34962
        },
        {
            "buffer": 0,
            "byteLength": 2408,
            "byteOffset": 10296,
            "target": 34962
        },
        {
            "buffer": 0,
            "byteLength": 3612,
            "byteOffset": 12704,
            "target": 34962
        },
        {
            "buffer": 0,
            "byteLength": 3612,
            "byteOffset": 16316,
            "target": 34962
        },
        {
            "buffer": 0,
            "byteLength": 1152,
            "byteOffset": 19928,
            "target": 34963
        },
        {
            "buffer": 0,
            "byteLength": 2364,
            "byteOffset": 21080,
            "target": 34962
        },
        {
            "buffer": 0,
            "byteLength": 2364,
            "byteOffset": 23444,
            "target": 34962
        },
        {
            "buffer": 0,
            "byteLength": 1576,
            "byteOffset": 25808,
            "target": 34962
        },
        {
            "buffer": 0,
            "byteLength": 2364,
            "byteOffset": 27384,
            "target": 34962
        },
        {
            "buffer": 0,
            "byteLength": 2364,
            "byteOffset": 29748,
            "target": 34962
        }
    ],
    "scenes": [
        {
            "name": "Root Scene",
            "nodes": [
                0
            ]
        }
    ],
    "accessors": [
        {
            "componentType": 5123,
            "type": "SCALAR",
            "count": 1536,
            "bufferView": 0,
            "byteOffset": 0
        },
        {
            "componentType": 5126,
            "type": "VEC3",
            "count": 301,
            "bufferView": 1,
            "byteOffset": 0,
            "min": [
                -0.640000224113464,
                -0.0748978182673454,
                -0.639999985694885
            ],
            "max": [
                0.639999806880951,
                0.483732968568802,
                0.639999985694885
            ]
        },
        {
            "componentType": 5126,
            "type": "VEC3",
            "count": 301,
            "bufferView": 2,
            "byteOffset": 0
        },
        {
            "componentType": 5126,
            "type": "VEC2",
            "count": 301,
            "bufferView": 3,
            "byteOffset": 0
        },
        {
            "componentType": 5126,
            "type": "VEC3",
            "count": 301,
            "bufferView": 4,
            "byteOffset": 0,
            "min": [
                0.0,
                0.0,
                0.0
            ],
            "max": [
                0.0,
                1.26813471317291,
                0.0
            ]
        },
        {
            "componentType": 5126,
            "type": "VEC3",
            "count": 301,
            "bufferView": 5,
            "byteOffset": 0,
            "min": [
                0.0,
                -0.214663907885551,
                0.0
            ],
            "max": [
                0.0,
                0.0655101165175438,
                0.0
            ]
        },
        {
            "componentType": 5123,
            "type": "SCALAR",
            "count": 576,
            "bufferView": 6,
            "byteOffset": 0
        },
        {
            "componentType": 5126,
            "type": "VEC3",
            "count": 197,
            "bufferView": 7,
            "byteOffset": 0,
            "min": [
                -0.75,
                0.348303258419037,
                -0.750000059604645
            ],
            "max": [
                0.75,
                0.748303115367889,
                0.74999988079071
            ]
        },
        {
            "componentType": 5126,
            "type": "VEC3",
            "count": 197,
            "bufferView": 8,
            "byteOffset": 0
        },
        {
            "componentType": 5126,
            "type": "VEC2",
            "count": 197,
            "bufferView": 9,
            "byteOffset": 0
        },
        {
            "componentType": 5126,
            "type": "VEC3",
            "count": 197,
            "bufferView": 10,
            "byteOffset": 0,
            "min": [
                0.0,
                1.25016236305237,
                0.0
            ],
            "max": [
                0.0,
                1.25016248226166,
                0.0
            ]
        },
        {
            "componentType": 5126,
            "type": "VEC3",
            "count": 197,
            "bufferView": 11,
            "byteOffset": 0,
            "min": [
                -0.375003814697266,
                -0.254955261945724,
                -0.375000059604645
            ],
            "max": [
                0.374996185302734,
                -0.15495528280735,
                0.374999910593033
            ]
        }
    ],
    "samplers": [
        {}
    ],
    "materials": [
        {
            "name": "Metallic",
            "alphaMode": "OPAQUE",
            "extras": {
                "fromFBX": {
                    "shadingModel": "Phong",
                    "isTruePBR": false
                }
            },
            "pbrMetallicRoughness": {
                "baseColorFactor": [
                    0.800000011920929,
                    0.800000011920929,
                    0.800000011920929,
                    1.0
                ],
                "metallicFactor": 0.400000005960464,
                "roughnessFactor": 0.229415729641914
            }
        },
        {
            "name": "Non Metallic",
            "alphaMode": "OPAQUE",
            "extras": {
                "fromFBX": {
                    "shadingModel": "Phong",
                    "isTruePBR": false
                }
            },
            "pbrMetallicRoughness": {
                "baseColorFactor": [
                    0.800000011920929,
                    0.800000011920929,
                    0.800000011920929,
                    1.0
                ],
                "metallicFactor": 0.400000005960464,
                "roughnessFactor": 0.229415729641914
            }
        }
    ],
    "meshes": [
        {
            "name": "Spring",
            "primitives": [
                {
                    "material": 0,
                    "mode": 4,
                    "attributes": {
                        "NORMAL": 2,
                        "POSITION": 1,
                        "TEXCOORD_0": 3
                    },
                    "indices": 0,
                    "targets": [
                        {
                            "POSITION": 4
                        },
                        {
                            "POSITION": 5
                        }
                    ]
                },
                {
                    "material": 1,
                    "mode": 4,
                    "attributes": {
                        "NORMAL": 8,
                        "POSITION": 7,
                        "TEXCOORD_0": 9
                    },
                    "indices": 6,
                    "targets": [
                        {
                            "POSITION": 10
                        },
                        {
                            "POSITION": 11
                        }
                    ]
                }
            ],
            "weights": [
                0.0,
                0.0
            ]
        }
    ],
    "nodes": [
        {
            "name": "RootNode",
            "translation": [
                0.0,
                0.0,
                0.0
            ],
            "rotation": [
                0.0,
                0.0,
                0.0,
                1.0
            ],
            "scale": [
                1.0,
                1.0,
                1.0
            ],
            "children": [
                1
            ]
        },
        {
            "name": "Spring",
            "translation": [
                0.0,
                0.0,
                0.0
            ],
            "rotation": [
                6.12323426292584e-17,
                1.0,
                6.12323426292584e-17,
                3.74939939305299e-33
            ],
            "scale": [
                1.0,
                1.0,
                1.0
            ],
            "mesh": 0
        }
    ]
}