{
    "asset": {
        "generator": "FBX2glTF",
        "version": "2.0"
    },
    "scene": 0,
    "buffers": [
        {
            "byteLength": 22496,
            "uri": "buffer.bin"
        }
    ],
    "bufferViews": [
        {
            "buffer": 0,
            "byteLength": 216,
            "byteOffset": 0,
            "target": 34963
        },
        {
            "buffer": 0,
            "byteLength": 864,
            "byteOffset": 216,
            "target": 34962
        },
        {
            "buffer": 0,
            "byteLength": 864,
            "byteOffset": 1080,
            "target": 34962
        },
        {
            "buffer": 0,
            "byteLength": 576,
            "byteOffset": 1944,
            "target": 34962
        },
        {
            "buffer": 0,
            "byteLength": 900,
            "byteOffset": 2520,
            "target": 34963
        },
        {
            "buffer": 0,
            "byteLength": 3408,
            "byteOffset": 3420,
            "target": 34962
        },
        {
            "buffer": 0,
            "byteLength": 3408,
            "byteOffset": 6828,
            "target": 34962
        },
        {
            "buffer": 0,
            "byteLength": 2272,
            "byteOffset": 10236,
            "target": 34962
        },
        {
            "buffer": 0,
            "byteLength": 900,
            "byteOffset": 12508,
            "target": 34963
        },
        {
            "buffer": 0,
            "byteLength": 3408,
            "byteOffset": 13408,
            "target": 34962
        },
        {
            "buffer": 0,
            "byteLength": 3408,
            "byteOffset": 16816,
            "target": 34962
        },
        {
            "buffer": 0,
            "byteLength": 2272,
            "byteOffset": 20224,
            "target": 34962
        }
    ],
    "scenes": [
        {
            "name": "Root Scene",
            "nodes": [
                0
            ]
        }
    ],
    "accessors": [
        {
            "componentType": 5123,
            "type": "SCALAR",
            "count": 108,
            "bufferView": 0,
            "byteOffset": 0
        },
        {
            "componentType": 5126,
            "type": "VEC3",
            "count": 72,
            "bufferView": 1,
            "byteOffset": 0,
            "min": [
                -0.00847144704312086,
                8.01482684712154e-33,
                -0.00847144704312086
            ],
            "max": [
                0.0152120301499963,
                0.094818577170372,
                0.0145630091428757
            ]
        },
        {
            "componentType": 5126,
            "type": "VEC3",
            "count": 72,
            "bufferView": 2,
            "byteOffset": 0
        },
        {
            "componentType": 5126,
            "type": "VEC2",
            "count": 72,
            "bufferView": 3,
            "byteOffset": 0
        },
        {
            "componentType": 5123,
            "type": "SCALAR",
            "count": 450,
            "bufferView": 4,
            "byteOffset": 0
        },
        {
            "componentType": 5126,
            "type": "VEC3",
            "count": 284,
            "bufferView": 5,
            "byteOffset": 0,
            "min": [
                -0.0517164506018162,
                0.0,
                -0.0517164506018162
            ],
            "max": [
                0.0517164506018162,
                0.0193737484514713,
                0.0517164506018162
            ]
        },
        {
            "componentType": 5126,
            "type": "VEC3",
            "count": 284,
            "bufferView": 6,
            "byteOffset": 0
        },
        {
            "componentType": 5126,
            "type": "VEC2",
            "count": 284,
            "bufferView": 7,
            "byteOffset": 0
        },
        {
            "componentType": 5123,
            "type": "SCALAR",
            "count": 450,
            "bufferView": 8,
            "byteOffset": 0
        },
        {
            "componentType": 5126,
            "type": "VEC3",
            "count": 284,
            "bufferView": 9,
            "byteOffset": 0,
            "min": [
                -0.0517164506018162,
                0.0,
                -0.0517164506018162
            ],
            "max": [
                0.0517164506018162,
                0.0193737484514713,
                0.0517164506018162
            ]
        },
        {
            "componentType": 5126,
            "type": "VEC3",
            "count": 284,
            "bufferView": 10,
            "byteOffset": 0
        },
        {
            "componentType": 5126,
            "type": "VEC2",
            "count": 284,
            "bufferView": 11,
            "byteOffset": 0
        }
    ],
    "samplers": [
        {}
    ],
    "materials": [
        {
            "name": "woodBark",
            "alphaMode": "OPAQUE",
            "extras": {
                "fromFBX": {
                    "shadingModel": "Phong",
                    "isTruePBR": false
                }
            },
            "pbrMetallicRoughness": {
                "baseColorFactor": [
                    0.886274516582489,
                    0.513725519180298,
                    0.341176509857178,
                    1.0
                ],
                "metallicFactor": 0.400000005960464,
                "roughnessFactor": 1.0
            }
        },
        {
            "name": "leafsGreen",
            "alphaMode": "OPAQUE",
            "extras": {
                "fromFBX": {
                    "shadingModel": "Phong",
                    "isTruePBR": false
                }
            },
            "pbrMetallicRoughness": {
                "baseColorFactor": [
                    0.160784304141998,
                    0.788235306739807,
                    0.670588314533234,
                    1.0
                ],
                "metallicFactor": 0.400000005960464,
                "roughnessFactor": 1.0
            }
        }
    ],
    "meshes": [
        {
            "name": "tree_palmDetailedShort",
            "primitives": [
                {
                    "material": 0,
                    "mode": 4,
                    "attributes": {
                        "NORMAL": 2,
                        "POSITION": 1,
                        "TEXCOORD_0": 3
                    },
                    "indices": 0
                }
            ]
        },
        {
            "name": "leafs",
            "primitives": [
                {
                    "material": 1,
                    "mode": 4,
                    "attributes": {
                        "NORMAL": 6,
                        "POSITION": 5,
                        "TEXCOORD_0": 7
                    },
                    "indices": 4
                }
            ]
        },
        {
            "name": "leafs",
            "primitives": [
                {
                    "material": 1,
                    "mode": 4,
                    "attributes": {
                        "NORMAL": 10,
                        "POSITION": 9,
                        "TEXCOORD_0": 11
                    },
                    "indices": 8
                }
            ]
        }
    ],
    "nodes": [
        {
            "name": "RootNode",
            "translation": [
                0.0,
                0.0,
                0.0
            ],
            "rotation": [
                0.0,
                0.0,
                0.0,
                1.0
            ],
            "scale": [
                1.0,
                1.0,
                1.0
            ],
            "children": [
                1
            ]
        },
        {
            "name": "tree_palmDetailedShort",
            "translation": [
                0.0,
                -0.0499999970197678,
                0.0
            ],
            "rotation": [
                0.0,
                0.0,
                0.0,
                1.0
            ],
            "scale": [
                10.0,
                10.0,
                10.0
            ],
            "children": [
                2,
                3
            ],
            "mesh": 0
        },
        {
            "name": "leafs",
            "translation": [
                -1.77657588640301e-09,
                0.0862494260072708,
                -0.000256708503002301
            ],
            "rotation": [
                0.0,
                0.0,
                0.0,
                1.0
            ],
            "scale": [
                1.0,
                1.0,
                1.0
            ],
            "mesh": 1
        },
        {
            "name": "leafs",
            "translation": [
                -1.77657388800156e-09,
                0.0862494260072708,
                -0.000256708503002301
            ],
            "rotation": [
                0.0,
                -0.382683426141739,
                0.0,
                0.923879504203796
            ],
            "scale": [
                0.99999988079071,
                1.35000002384186,
                0.99999988079071
            ],
            "mesh": 2
        }
    ]
}