{
    "asset": {
        "generator": "FBX2glTF",
        "version": "2.0"
    },
    "scene": 0,
    "buffers": [
        {
            "byteLength": 16432,
            "uri": "buffer.bin"
        }
    ],
    "bufferViews": [
        {
            "buffer": 0,
            "byteLength": 1092,
            "byteOffset": 0,
            "target": 34963
        },
        {
            "buffer": 0,
            "byteLength": 3792,
            "byteOffset": 1092,
            "target": 34962
        },
        {
            "buffer": 0,
            "byteLength": 3792,
            "byteOffset": 4884,
            "target": 34962
        },
        {
            "buffer": 0,
            "byteLength": 2528,
            "byteOffset": 8676,
            "target": 34962
        },
        {
            "buffer": 0,
            "byteLength": 492,
            "byteOffset": 11204,
            "target": 34963
        },
        {
            "buffer": 0,
            "byteLength": 1776,
            "byteOffset": 11696,
            "target": 34962
        },
        {
            "buffer": 0,
            "byteLength": 1776,
            "byteOffset": 13472,
            "target": 34962
        },
        {
            "buffer": 0,
            "byteLength": 1184,
            "byteOffset": 15248,
            "target": 34962
        }
    ],
    "scenes": [
        {
            "name": "Root Scene",
            "nodes": [
                0
            ]
        }
    ],
    "accessors": [
        {
            "componentType": 5123,
            "type": "SCALAR",
            "count": 546,
            "bufferView": 0,
            "byteOffset": 0
        },
        {
            "componentType": 5126,
            "type": "VEC3",
            "count": 316,
            "bufferView": 1,
            "byteOffset": 0,
            "min": [
                -0.0264831800013781,
                0.0,
                -0.0264831800013781
            ],
            "max": [
                0.0264831800013781,
                0.143033295869827,
                0.0264831800013781
            ]
        },
        {
            "componentType": 5126,
            "type": "VEC3",
            "count": 316,
            "bufferView": 2,
            "byteOffset": 0
        },
        {
            "componentType": 5126,
            "type": "VEC2",
            "count": 316,
            "bufferView": 3,
            "byteOffset": 0
        },
        {
            "componentType": 5123,
            "type": "SCALAR",
            "count": 246,
            "bufferView": 4,
            "byteOffset": 0
        },
        {
            "componentType": 5126,
            "type": "VEC3",
            "count": 148,
            "bufferView": 5,
            "byteOffset": 0,
            "min": [
                -0.0264831800013781,
                0.0543628670275211,
                -0.0264831800013781
            ],
            "max": [
                0.0264831800013781,
                0.143033295869827,
                0.0264831800013781
            ]
        },
        {
            "componentType": 5126,
            "type": "VEC3",
            "count": 148,
            "bufferView": 6,
            "byteOffset": 0
        },
        {
            "componentType": 5126,
            "type": "VEC2",
            "count": 148,
            "bufferView": 7,
            "byteOffset": 0
        }
    ],
    "samplers": [
        {}
    ],
    "materials": [
        {
            "name": "woodBarkDark",
            "alphaMode": "OPAQUE",
            "extras": {
                "fromFBX": {
                    "shadingModel": "Phong",
                    "isTruePBR": false
                }
            },
            "pbrMetallicRoughness": {
                "baseColorFactor": [
                    0.800000011920929,
                    0.462745100259781,
                    0.368627488613129,
                    1.0
                ],
                "metallicFactor": 0.400000005960464,
                "roughnessFactor": 1.0
            }
        },
        {
            "name": "leafsDark",
            "alphaMode": "OPAQUE",
            "extras": {
                "fromFBX": {
                    "shadingModel": "Phong",
                    "isTruePBR": false
                }
            },
            "pbrMetallicRoughness": {
                "baseColorFactor": [
                    0.168627500534058,
                    0.650980412960052,
                    0.666666686534882,
                    1.0
                ],
                "metallicFactor": 0.400000005960464,
                "roughnessFactor": 1.0
            }
        }
    ],
    "meshes": [
        {
            "name": "tree_cone_dark",
            "primitives": [
                {
                    "material": 0,
                    "mode": 4,
                    "attributes": {
                        "NORMAL": 2,
                        "POSITION": 1,
                        "TEXCOORD_0": 3
                    },
                    "indices": 0
                },
                {
                    "material": 1,
                    "mode": 4,
                    "attributes": {
                        "NORMAL": 6,
                        "POSITION": 5,
                        "TEXCOORD_0": 7
                    },
                    "indices": 4
                }
            ]
        }
    ],
    "nodes": [
        {
            "name": "RootNode",
            "translation": [
                0.0,
                0.0,
                0.0
            ],
            "rotation": [
                0.0,
                0.0,
                0.0,
                1.0
            ],
            "scale": [
                1.0,
                1.0,
                1.0
            ],
            "children": [
                1
            ]
        },
        {
            "name": "tree_cone_dark",
            "translation": [
                0.0,
                -0.0499999970197678,
                0.0
            ],
            "rotation": [
                0.0,
                0.0,
                0.0,
                1.0
            ],
            "scale": [
                10.0,
                10.0,
                10.0
            ],
            "mesh": 0
        }
    ]
}