{
    "asset": {
        "generator": "FBX2glTF",
        "version": "2.0"
    },
    "scene": 0,
    "buffers": [
        {
            "byteLength": 31008,
            "uri": "buffer.bin"
        }
    ],
    "bufferViews": [
        {
            "buffer": 0,
            "byteLength": 1056,
            "byteOffset": 0,
            "target": 34963
        },
        {
            "buffer": 0,
            "byteLength": 3552,
            "byteOffset": 1056,
            "target": 34962
        },
        {
            "buffer": 0,
            "byteLength": 3552,
            "byteOffset": 4608,
            "target": 34962
        },
        {
            "buffer": 0,
            "byteLength": 4736,
            "byteOffset": 8160,
            "target": 34962
        },
        {
            "buffer": 0,
            "byteLength": 2368,
            "byteOffset": 12896,
            "target": 34962
        },
        {
            "buffer": 0,
            "byteLength": 576,
            "byteOffset": 15264,
            "target": 34963
        },
        {
            "buffer": 0,
            "byteLength": 1800,
            "byteOffset": 15840,
            "target": 34962
        },
        {
            "buffer": 0,
            "byteLength": 1800,
            "byteOffset": 17640,
            "target": 34962
        },
        {
            "buffer": 0,
            "byteLength": 2400,
            "byteOffset": 19440,
            "target": 34962
        },
        {
            "buffer": 0,
            "byteLength": 1200,
            "byteOffset": 21840,
            "target": 34962
        },
        {
            "buffer": 0,
            "byteLength": 576,
            "byteOffset": 23040,
            "target": 34963
        },
        {
            "buffer": 0,
            "byteLength": 1848,
            "byteOffset": 23616,
            "target": 34962
        },
        {
            "buffer": 0,
            "byteLength": 1848,
            "byteOffset": 25464,
            "target": 34962
        },
        {
            "buffer": 0,
            "byteLength": 2464,
            "byteOffset": 27312,
            "target": 34962
        },
        {
            "buffer": 0,
            "byteLength": 1232,
            "byteOffset": 29776,
            "target": 34962
        }
    ],
    "scenes": [
        {
            "name": "Root Scene",
            "nodes": [
                0
            ]
        }
    ],
    "accessors": [
        {
            "componentType": 5123,
            "type": "SCALAR",
            "count": 528,
            "bufferView": 0,
            "byteOffset": 0
        },
        {
            "componentType": 5126,
            "type": "VEC3",
            "count": 296,
            "bufferView": 1,
            "byteOffset": 0,
            "min": [
                -0.474489122629166,
                0.0245494283735752,
                -0.325643420219421
            ],
            "max": [
                0.273332923650742,
                0.311649441719055,
                0.325643450021744
            ]
        },
        {
            "componentType": 5126,
            "type": "VEC3",
            "count": 296,
            "bufferView": 2,
            "byteOffset": 0
        },
        {
            "componentType": 5126,
            "type": "VEC4",
            "count": 296,
            "bufferView": 3,
            "byteOffset": 0
        },
        {
            "componentType": 5126,
            "type": "VEC2",
            "count": 296,
            "bufferView": 4,
            "byteOffset": 0
        },
        {
            "componentType": 5123,
            "type": "SCALAR",
            "count": 288,
            "bufferView": 5,
            "byteOffset": 0
        },
        {
            "componentType": 5126,
            "type": "VEC3",
            "count": 150,
            "bufferView": 6,
            "byteOffset": 0,
            "min": [
                -0.245397046208382,
                0.0,
                -0.0619447492063046
            ],
            "max": [
                0.245397046208382,
                0.288811832666397,
                0.0619447492063046
            ]
        },
        {
            "componentType": 5126,
            "type": "VEC3",
            "count": 150,
            "bufferView": 7,
            "byteOffset": 0
        },
        {
            "componentType": 5126,
            "type": "VEC4",
            "count": 150,
            "bufferView": 8,
            "byteOffset": 0
        },
        {
            "componentType": 5126,
            "type": "VEC2",
            "count": 150,
            "bufferView": 9,
            "byteOffset": 0
        },
        {
            "componentType": 5123,
            "type": "SCALAR",
            "count": 288,
            "bufferView": 10,
            "byteOffset": 0
        },
        {
            "componentType": 5126,
            "type": "VEC3",
            "count": 154,
            "bufferView": 11,
            "byteOffset": 0,
            "min": [
                -0.245397046208382,
                0.0,
                -0.0619447492063046
            ],
            "max": [
                0.245397046208382,
                0.288811832666397,
                0.0619447492063046
            ]
        },
        {
            "componentType": 5126,
            "type": "VEC3",
            "count": 154,
            "bufferView": 12,
            "byteOffset": 0
        },
        {
            "componentType": 5126,
            "type": "VEC4",
            "count": 154,
            "bufferView": 13,
            "byteOffset": 0
        },
        {
            "componentType": 5126,
            "type": "VEC2",
            "count": 154,
            "bufferView": 14,
            "byteOffset": 0
        }
    ],
    "images": [
        {
            "name": "colormap.png",
            "uri": "colormap.png"
        }
    ],
    "samplers": [
        {}
    ],
    "textures": [
        {
            "name": "DiffuseColor_Texture",
            "sampler": 0,
            "source": 0
        }
    ],
    "materials": [
        {
            "name": "colormap",
            "alphaMode": "OPAQUE",
            "extras": {
                "fromFBX": {
                    "shadingModel": "Lambert",
                    "isTruePBR": false
                }
            },
            "pbrMetallicRoughness": {
                "baseColorTexture": {
                    "index": 0,
                    "texCoord": 0
                },
                "baseColorFactor": [
                    1.0,
                    1.0,
                    1.0,
                    1.0
                ],
                "metallicFactor": 0.200000002980232,
                "roughnessFactor": 0.800000011920929
            }
        }
    ],
    "meshes": [
        {
            "name": "turkey",
            "primitives": [
                {
                    "material": 0,
                    "mode": 4,
                    "attributes": {
                        "NORMAL": 2,
                        "POSITION": 1,
                        "TANGENT": 3,
                        "TEXCOORD_0": 4
                    },
                    "indices": 0
                }
            ]
        },
        {
            "name": "leg",
            "primitives": [
                {
                    "material": 0,
                    "mode": 4,
                    "attributes": {
                        "NORMAL": 7,
                        "POSITION": 6,
                        "TANGENT": 8,
                        "TEXCOORD_0": 9
                    },
                    "indices": 5
                }
            ]
        },
        {
            "name": "leg_1",
            "primitives": [
                {
                    "material": 0,
                    "mode": 4,
                    "attributes": {
                        "NORMAL": 12,
                        "POSITION": 11,
                        "TANGENT": 13,
                        "TEXCOORD_0": 14
                    },
                    "indices": 10
                }
            ]
        }
    ],
    "nodes": [
        {
            "name": "RootNode",
            "translation": [
                0.0,
                0.0,
                0.0
            ],
            "rotation": [
                0.0,
                0.0,
                0.0,
                1.0
            ],
            "scale": [
                1.0,
                1.0,
                1.0
            ],
            "children": [
                1
            ]
        },
        {
            "name": "turkey",
            "translation": [
                0.0,
                0.0,
                0.0
            ],
            "rotation": [
                0.0,
                0.0,
                0.0,
                1.0
            ],
            "scale": [
                1.0,
                1.0,
                1.0
            ],
            "children": [
                2,
                3
            ],
            "mesh": 0
        },
        {
            "name": "leg",
            "translation": [
                0.144235640764236,
                -4.22994936250935e-18,
                0.189773142337799
            ],
            "rotation": [
                0.0,
                0.130526185035706,
                0.0,
                0.991444885730743
            ],
            "scale": [
                1.30499994754791,
                1.30499994754791,
                1.30499994754791
            ],
            "mesh": 1
        },
        {
            "name": "leg_1",
            "translation": [
                0.144235640764236,
                1.34178301802734e-09,
                -0.189773142337799
            ],
            "rotation": [
                0.0,
                -0.130526185035706,
                0.0,
                0.991444885730743
            ],
            "scale": [
                1.30499994754791,
                1.30499994754791,
                1.30499994754791
            ],
            "mesh": 2
        }
    ]
}