{
    "asset": {
        "generator": "FBX2glTF",
        "version": "2.0"
    },
    "scene": 0,
    "buffers": [
        {
            "byteLength": 31400,
            "uri": "buffer.bin"
        }
    ],
    "bufferViews": [
        {
            "buffer": 0,
            "byteLength": 2664,
            "byteOffset": 0,
            "target": 34963
        },
        {
            "buffer": 0,
            "byteLength": 10776,
            "byteOffset": 2664,
            "target": 34962
        },
        {
            "buffer": 0,
            "byteLength": 10776,
            "byteOffset": 13440,
            "target": 34962
        },
        {
            "buffer": 0,
            "byteLength": 7184,
            "byteOffset": 24216,
            "target": 34962
        }
    ],
    "scenes": [
        {
            "name": "Root Scene",
            "nodes": [
                0
            ]
        }
    ],
    "accessors": [
        {
            "componentType": 5123,
            "type": "SCALAR",
            "count": 1332,
            "bufferView": 0,
            "byteOffset": 0
        },
        {
            "componentType": 5126,
            "type": "VEC3",
            "count": 898,
            "bufferView": 1,
            "byteOffset": 0,
            "min": [
                -0.518763840198517,
                -8.73114913702011e-11,
                -0.0881292223930359
            ],
            "max": [
                0.53102844953537,
                5.0,
                0.188591957092285
            ]
        },
        {
            "componentType": 5126,
            "type": "VEC3",
            "count": 898,
            "bufferView": 2,
            "byteOffset": 0
        },
        {
            "componentType": 5126,
            "type": "VEC2",
            "count": 898,
            "bufferView": 3,
            "byteOffset": 0
        }
    ],
    "samplers": [
        {}
    ],
    "materials": [
        {
            "name": "Non Metallic",
            "alphaMode": "OPAQUE",
            "extras": {
                "fromFBX": {
                    "shadingModel": "Phong",
                    "isTruePBR": false
                }
            },
            "pbrMetallicRoughness": {
                "baseColorFactor": [
                    0.800000011920929,
                    0.800000011920929,
                    0.800000011920929,
                    1.0
                ],
                "metallicFactor": 0.400000005960464,
                "roughnessFactor": 0.229415729641914
            }
        }
    ],
    "meshes": [
        {
            "name": "Ladder5",
            "primitives": [
                {
                    "material": 0,
                    "mode": 4,
                    "attributes": {
                        "NORMAL": 2,
                        "POSITION": 1,
                        "TEXCOORD_0": 3
                    },
                    "indices": 0
                }
            ]
        }
    ],
    "nodes": [
        {
            "name": "RootNode",
            "translation": [
                0.0,
                0.0,
                0.0
            ],
            "rotation": [
                0.0,
                0.0,
                0.0,
                1.0
            ],
            "scale": [
                1.0,
                1.0,
                1.0
            ],
            "children": [
                1
            ]
        },
        {
            "name": "Ladder5",
            "translation": [
                0.0,
                0.0,
                0.0
            ],
            "rotation": [
                6.12323426292584e-17,
                1.0,
                6.12323426292584e-17,
                3.74939939305299e-33
            ],
            "scale": [
                1.0,
                1.0,
                1.0
            ],
            "mesh": 0
        }
    ]
}