{
    "asset": {
        "generator": "FBX2glTF",
        "version": "2.0"
    },
    "scene": 0,
    "buffers": [
        {
            "byteLength": 90216,
            "uri": "buffer.bin"
        }
    ],
    "bufferViews": [
        {
            "buffer": 0,
            "byteLength": 1146,
            "byteOffset": 0,
            "target": 34963
        },
        {
            "buffer": 0,
            "byteLength": 3480,
            "byteOffset": 1148,
            "target": 34962
        },
        {
            "buffer": 0,
            "byteLength": 3480,
            "byteOffset": 4628,
            "target": 34962
        },
        {
            "buffer": 0,
            "byteLength": 4640,
            "byteOffset": 8108,
            "target": 34962
        },
        {
            "buffer": 0,
            "byteLength": 2320,
            "byteOffset": 12748,
            "target": 34962
        },
        {
            "buffer": 0,
            "byteLength": 1146,
            "byteOffset": 15068,
            "target": 34963
        },
        {
            "buffer": 0,
            "byteLength": 3456,
            "byteOffset": 16216,
            "target": 34962
        },
        {
            "buffer": 0,
            "byteLength": 3456,
            "byteOffset": 19672,
            "target": 34962
        },
        {
            "buffer": 0,
            "byteLength": 4608,
            "byteOffset": 23128,
            "target": 34962
        },
        {
            "buffer": 0,
            "byteLength": 2304,
            "byteOffset": 27736,
            "target": 34962
        },
        {
            "buffer": 0,
            "byteLength": 1146,
            "byteOffset": 30040,
            "target": 34963
        },
        {
            "buffer": 0,
            "byteLength": 3468,
            "byteOffset": 31188,
            "target": 34962
        },
        {
            "buffer": 0,
            "byteLength": 3468,
            "byteOffset": 34656,
            "target": 34962
        },
        {
            "buffer": 0,
            "byteLength": 4624,
            "byteOffset": 38124,
            "target": 34962
        },
        {
            "buffer": 0,
            "byteLength": 2312,
            "byteOffset": 42748,
            "target": 34962
        },
        {
            "buffer": 0,
            "byteLength": 1146,
            "byteOffset": 45060,
            "target": 34963
        },
        {
            "buffer": 0,
            "byteLength": 3480,
            "byteOffset": 46208,
            "target": 34962
        },
        {
            "buffer": 0,
            "byteLength": 3480,
            "byteOffset": 49688,
            "target": 34962
        },
        {
            "buffer": 0,
            "byteLength": 4640,
            "byteOffset": 53168,
            "target": 34962
        },
        {
            "buffer": 0,
            "byteLength": 2320,
            "byteOffset": 57808,
            "target": 34962
        },
        {
            "buffer": 0,
            "byteLength": 1146,
            "byteOffset": 60128,
            "target": 34963
        },
        {
            "buffer": 0,
            "byteLength": 3480,
            "byteOffset": 61276,
            "target": 34962
        },
        {
            "buffer": 0,
            "byteLength": 3480,
            "byteOffset": 64756,
            "target": 34962
        },
        {
            "buffer": 0,
            "byteLength": 4640,
            "byteOffset": 68236,
            "target": 34962
        },
        {
            "buffer": 0,
            "byteLength": 2320,
            "byteOffset": 72876,
            "target": 34962
        },
        {
            "buffer": 0,
            "byteLength": 1146,
            "byteOffset": 75196,
            "target": 34963
        },
        {
            "buffer": 0,
            "byteLength": 3468,
            "byteOffset": 76344,
            "target": 34962
        },
        {
            "buffer": 0,
            "byteLength": 3468,
            "byteOffset": 79812,
            "target": 34962
        },
        {
            "buffer": 0,
            "byteLength": 4624,
            "byteOffset": 83280,
            "target": 34962
        },
        {
            "buffer": 0,
            "byteLength": 2312,
            "byteOffset": 87904,
            "target": 34962
        }
    ],
    "scenes": [
        {
            "name": "Root Scene",
            "nodes": [
                0
            ]
        }
    ],
    "accessors": [
        {
            "componentType": 5123,
            "type": "SCALAR",
            "count": 573,
            "bufferView": 0,
            "byteOffset": 0
        },
        {
            "componentType": 5126,
            "type": "VEC3",
            "count": 290,
            "bufferView": 1,
            "byteOffset": 0,
            "min": [
                -0.415172576904297,
                0.0,
                -0.239699974656105
            ],
            "max": [
                -0.138390839099884,
                0.363773614168167,
                0.0799001753330231
            ]
        },
        {
            "componentType": 5126,
            "type": "VEC3",
            "count": 290,
            "bufferView": 2,
            "byteOffset": 0
        },
        {
            "componentType": 5126,
            "type": "VEC4",
            "count": 290,
            "bufferView": 3,
            "byteOffset": 0
        },
        {
            "componentType": 5126,
            "type": "VEC2",
            "count": 290,
            "bufferView": 4,
            "byteOffset": 0
        },
        {
            "componentType": 5123,
            "type": "SCALAR",
            "count": 573,
            "bufferView": 5,
            "byteOffset": 0
        },
        {
            "componentType": 5126,
            "type": "VEC3",
            "count": 288,
            "bufferView": 6,
            "byteOffset": 0,
            "min": [
                -0.181209117174149,
                0.0,
                -0.3995001912117
            ],
            "max": [
                0.138390854001045,
                0.363773614168167,
                -0.0798999965190887
            ]
        },
        {
            "componentType": 5126,
            "type": "VEC3",
            "count": 288,
            "bufferView": 7,
            "byteOffset": 0
        },
        {
            "componentType": 5126,
            "type": "VEC4",
            "count": 288,
            "bufferView": 8,
            "byteOffset": 0
        },
        {
            "componentType": 5126,
            "type": "VEC2",
            "count": 288,
            "bufferView": 9,
            "byteOffset": 0
        },
        {
            "componentType": 5123,
            "type": "SCALAR",
            "count": 573,
            "bufferView": 10,
            "byteOffset": 0
        },
        {
            "componentType": 5126,
            "type": "VEC3",
            "count": 289,
            "bufferView": 11,
            "byteOffset": 0,
            "min": [
                3.92476795420954e-13,
                0.0,
                -0.319599986076355
            ],
            "max": [
                0.276781737804413,
                0.363773614168167,
                2.98023223876953e-08
            ]
        },
        {
            "componentType": 5126,
            "type": "VEC3",
            "count": 289,
            "bufferView": 12,
            "byteOffset": 0
        },
        {
            "componentType": 5126,
            "type": "VEC4",
            "count": 289,
            "bufferView": 13,
            "byteOffset": 0
        },
        {
            "componentType": 5126,
            "type": "VEC2",
            "count": 289,
            "bufferView": 14,
            "byteOffset": 0
        },
        {
            "componentType": 5123,
            "type": "SCALAR",
            "count": 573,
            "bufferView": 15,
            "byteOffset": 0
        },
        {
            "componentType": 5126,
            "type": "VEC3",
            "count": 290,
            "bufferView": 16,
            "byteOffset": 0,
            "min": [
                0.138390839099884,
                0.0,
                -0.0799001902341843
            ],
            "max": [
                0.415172517299652,
                0.363773614168167,
                0.239699974656105
            ]
        },
        {
            "componentType": 5126,
            "type": "VEC3",
            "count": 290,
            "bufferView": 17,
            "byteOffset": 0
        },
        {
            "componentType": 5126,
            "type": "VEC4",
            "count": 290,
            "bufferView": 18,
            "byteOffset": 0
        },
        {
            "componentType": 5126,
            "type": "VEC2",
            "count": 290,
            "bufferView": 19,
            "byteOffset": 0
        },
        {
            "componentType": 5123,
            "type": "SCALAR",
            "count": 573,
            "bufferView": 20,
            "byteOffset": 0
        },
        {
            "componentType": 5126,
            "type": "VEC3",
            "count": 290,
            "bufferView": 21,
            "byteOffset": 0,
            "min": [
                -0.138390868902206,
                0.0,
                0.0799000039696693
            ],
            "max": [
                0.181209117174149,
                0.363773614168167,
                0.3995001912117
            ]
        },
        {
            "componentType": 5126,
            "type": "VEC3",
            "count": 290,
            "bufferView": 22,
            "byteOffset": 0
        },
        {
            "componentType": 5126,
            "type": "VEC4",
            "count": 290,
            "bufferView": 23,
            "byteOffset": 0
        },
        {
            "componentType": 5126,
            "type": "VEC2",
            "count": 290,
            "bufferView": 24,
            "byteOffset": 0
        },
        {
            "componentType": 5123,
            "type": "SCALAR",
            "count": 573,
            "bufferView": 25,
            "byteOffset": 0
        },
        {
            "componentType": 5126,
            "type": "VEC3",
            "count": 289,
            "bufferView": 26,
            "byteOffset": 0,
            "min": [
                -0.276781737804413,
                0.0,
                -2.98023223876953e-08
            ],
            "max": [
                1.62430055520359e-15,
                0.363773614168167,
                0.319599986076355
            ]
        },
        {
            "componentType": 5126,
            "type": "VEC3",
            "count": 289,
            "bufferView": 27,
            "byteOffset": 0
        },
        {
            "componentType": 5126,
            "type": "VEC4",
            "count": 289,
            "bufferView": 28,
            "byteOffset": 0
        },
        {
            "componentType": 5126,
            "type": "VEC2",
            "count": 289,
            "bufferView": 29,
            "byteOffset": 0
        }
    ],
    "images": [
        {
            "name": "colormap.png",
            "uri": "colormap.png"
        }
    ],
    "samplers": [
        {}
    ],
    "textures": [
        {
            "name": "DiffuseColor_Texture",
            "sampler": 0,
            "source": 0
        }
    ],
    "materials": [
        {
            "name": "colormap",
            "alphaMode": "OPAQUE",
            "extras": {
                "fromFBX": {
                    "shadingModel": "Lambert",
                    "isTruePBR": false
                }
            },
            "pbrMetallicRoughness": {
                "baseColorTexture": {
                    "index": 0,
                    "texCoord": 0
                },
                "baseColorFactor": [
                    1.0,
                    1.0,
                    1.0,
                    1.0
                ],
                "metallicFactor": 0.200000002980232,
                "roughnessFactor": 0.800000011920929
            }
        }
    ],
    "meshes": [
        {
            "name": "slice",
            "primitives": [
                {
                    "material": 0,
                    "mode": 4,
                    "attributes": {
                        "NORMAL": 2,
                        "POSITION": 1,
                        "TANGENT": 3,
                        "TEXCOORD_0": 4
                    },
                    "indices": 0
                }
            ]
        },
        {
            "name": "slice_1",
            "primitives": [
                {
                    "material": 0,
                    "mode": 4,
                    "attributes": {
                        "NORMAL": 7,
                        "POSITION": 6,
                        "TANGENT": 8,
                        "TEXCOORD_0": 9
                    },
                    "indices": 5
                }
            ]
        },
        {
            "name": "slice_2",
            "primitives": [
                {
                    "material": 0,
                    "mode": 4,
                    "attributes": {
                        "NORMAL": 12,
                        "POSITION": 11,
                        "TANGENT": 13,
                        "TEXCOORD_0": 14
                    },
                    "indices": 10
                }
            ]
        },
        {
            "name": "slice_3",
            "primitives": [
                {
                    "material": 0,
                    "mode": 4,
                    "attributes": {
                        "NORMAL": 17,
                        "POSITION": 16,
                        "TANGENT": 18,
                        "TEXCOORD_0": 19
                    },
                    "indices": 15
                }
            ]
        },
        {
            "name": "slice_4",
            "primitives": [
                {
                    "material": 0,
                    "mode": 4,
                    "attributes": {
                        "NORMAL": 22,
                        "POSITION": 21,
                        "TANGENT": 23,
                        "TEXCOORD_0": 24
                    },
                    "indices": 20
                }
            ]
        },
        {
            "name": "slice_5",
            "primitives": [
                {
                    "material": 0,
                    "mode": 4,
                    "attributes": {
                        "NORMAL": 27,
                        "POSITION": 26,
                        "TANGENT": 28,
                        "TEXCOORD_0": 29
                    },
                    "indices": 25
                }
            ]
        }
    ],
    "nodes": [
        {
            "name": "RootNode",
            "translation": [
                0.0,
                0.0,
                0.0
            ],
            "rotation": [
                0.0,
                0.0,
                0.0,
                1.0
            ],
            "scale": [
                1.0,
                1.0,
                1.0
            ],
            "children": [
                1
            ]
        },
        {
            "name": "cake-birthday",
            "translation": [
                0.0,
                0.0,
                0.0
            ],
            "rotation": [
                0.0,
                0.0,
                0.0,
                1.0
            ],
            "scale": [
                1.0,
                1.0,
                1.0
            ],
            "children": [
                2,
                3,
                4,
                5,
                6,
                7
            ]
        },
        {
            "name": "slice",
            "translation": [
                0.138390854001045,
                0.0,
                0.239700004458427
            ],
            "rotation": [
                0.0,
                0.0,
                0.0,
                1.0
            ],
            "scale": [
                1.0,
                1.0,
                1.0
            ],
            "mesh": 0
        },
        {
            "name": "slice_1",
            "translation": [
                -0.138390854001045,
                0.0,
                0.239700004458427
            ],
            "rotation": [
                0.0,
                0.0,
                0.0,
                1.0
            ],
            "scale": [
                1.0,
                1.0,
                1.0
            ],
            "mesh": 1
        },
        {
            "name": "slice_2",
            "translation": [
                -0.27678170800209,
                0.0,
                2.03579002071817e-13
            ],
            "rotation": [
                0.0,
                0.0,
                0.0,
                1.0
            ],
            "scale": [
                1.0,
                1.0,
                1.0
            ],
            "mesh": 2
        },
        {
            "name": "slice_3",
            "translation": [
                -0.138390854001045,
                0.0,
                -0.239700004458427
            ],
            "rotation": [
                0.0,
                0.0,
                0.0,
                1.0
            ],
            "scale": [
                1.0,
                1.0,
                1.0
            ],
            "mesh": 3
        },
        {
            "name": "slice_4",
            "translation": [
                0.138390854001045,
                0.0,
                -0.239700004458427
            ],
            "rotation": [
                0.0,
                0.0,
                0.0,
                1.0
            ],
            "scale": [
                1.0,
                1.0,
                1.0
            ],
            "mesh": 4
        },
        {
            "name": "slice_5",
            "translation": [
                0.27678170800209,
                0.0,
                7.21911442571558e-15
            ],
            "rotation": [
                0.0,
                0.0,
                0.0,
                1.0
            ],
            "scale": [
                1.0,
                1.0,
                1.0
            ],
            "mesh": 5
        }
    ]
}