{
    "asset": {
        "generator": "FBX2glTF",
        "version": "2.0"
    },
    "scene": 0,
    "buffers": [
        {
            "byteLength": 79200,
            "uri": "buffer.bin"
        }
    ],
    "bufferViews": [
        {
            "buffer": 0,
            "byteLength": 3936,
            "byteOffset": 0,
            "target": 34963
        },
        {
            "buffer": 0,
            "byteLength": 16128,
            "byteOffset": 3936,
            "target": 34962
        },
        {
            "buffer": 0,
            "byteLength": 16128,
            "byteOffset": 20064,
            "target": 34962
        },
        {
            "buffer": 0,
            "byteLength": 10752,
            "byteOffset": 36192,
            "target": 34962
        },
        {
            "buffer": 0,
            "byteLength": 16128,
            "byteOffset": 46944,
            "target": 34962
        },
        {
            "buffer": 0,
            "byteLength": 16128,
            "byteOffset": 63072,
            "target": 34962
        }
    ],
    "scenes": [
        {
            "name": "Root Scene",
            "nodes": [
                0
            ]
        }
    ],
    "accessors": [
        {
            "componentType": 5123,
            "type": "SCALAR",
            "count": 1968,
            "bufferView": 0,
            "byteOffset": 0
        },
        {
            "componentType": 5126,
            "type": "VEC3",
            "count": 1344,
            "bufferView": 1,
            "byteOffset": 0,
            "min": [
                -0.572747111320496,
                -0.0628156587481499,
                -0.510978758335114
            ],
            "max": [
                0.528350472450256,
                0.60576456785202,
                0.52363246679306
            ]
        },
        {
            "componentType": 5126,
            "type": "VEC3",
            "count": 1344,
            "bufferView": 2,
            "byteOffset": 0
        },
        {
            "componentType": 5126,
            "type": "VEC2",
            "count": 1344,
            "bufferView": 3,
            "byteOffset": 0
        },
        {
            "componentType": 5126,
            "type": "VEC3",
            "count": 1344,
            "bufferView": 4,
            "byteOffset": 0,
            "min": [
                -0.0186276435852051,
                -0.391248166561127,
                0.0
            ],
            "max": [
                0.0,
                0.0,
                4.76837129781416e-08
            ]
        },
        {
            "componentType": 5126,
            "type": "VEC3",
            "count": 1344,
            "bufferView": 5,
            "byteOffset": 0,
            "min": [
                0.0,
                0.0,
                0.0
            ],
            "max": [
                0.0,
                0.278331369161606,
                0.0
            ]
        }
    ],
    "samplers": [
        {}
    ],
    "materials": [
        {
            "name": "Non Metallic",
            "alphaMode": "OPAQUE",
            "extras": {
                "fromFBX": {
                    "shadingModel": "Phong",
                    "isTruePBR": false
                }
            },
            "pbrMetallicRoughness": {
                "baseColorFactor": [
                    0.800000011920929,
                    0.800000011920929,
                    0.800000011920929,
                    1.0
                ],
                "metallicFactor": 0.400000005960464,
                "roughnessFactor": 0.229415729641914
            }
        }
    ],
    "meshes": [
        {
            "name": "Spikes",
            "primitives": [
                {
                    "material": 0,
                    "mode": 4,
                    "attributes": {
                        "NORMAL": 2,
                        "POSITION": 1,
                        "TEXCOORD_0": 3
                    },
                    "indices": 0,
                    "targets": [
                        {
                            "POSITION": 4
                        },
                        {
                            "POSITION": 5
                        }
                    ]
                }
            ],
            "weights": [
                0.0,
                0.0
            ]
        }
    ],
    "nodes": [
        {
            "name": "RootNode",
            "translation": [
                0.0,
                0.0,
                0.0
            ],
            "rotation": [
                0.0,
                0.0,
                0.0,
                1.0
            ],
            "scale": [
                1.0,
                1.0,
                1.0
            ],
            "children": [
                1
            ]
        },
        {
            "name": "Spikes",
            "translation": [
                0.0,
                0.0,
                0.0
            ],
            "rotation": [
                6.12323426292584e-17,
                1.0,
                6.12323426292584e-17,
                3.74939939305299e-33
            ],
            "scale": [
                1.0,
                1.0,
                1.0
            ],
            "mesh": 0
        }
    ]
}