{
    "asset": {
        "generator": "FBX2glTF",
        "version": "2.0"
    },
    "scene": 0,
    "buffers": [
        {
            "byteLength": 9944,
            "uri": "buffer.bin"
        }
    ],
    "bufferViews": [
        {
            "buffer": 0,
            "byteLength": 876,
            "byteOffset": 0,
            "target": 34963
        },
        {
            "buffer": 0,
            "byteLength": 2928,
            "byteOffset": 876,
            "target": 34962
        },
        {
            "buffer": 0,
            "byteLength": 2928,
            "byteOffset": 3804,
            "target": 34962
        },
        {
            "buffer": 0,
            "byteLength": 1952,
            "byteOffset": 6732,
            "target": 34962
        },
        {
            "buffer": 0,
            "byteLength": 108,
            "byteOffset": 8684,
            "target": 34963
        },
        {
            "buffer": 0,
            "byteLength": 432,
            "byteOffset": 8792,
            "target": 34962
        },
        {
            "buffer": 0,
            "byteLength": 432,
            "byteOffset": 9224,
            "target": 34962
        },
        {
            "buffer": 0,
            "byteLength": 288,
            "byteOffset": 9656,
            "target": 34962
        }
    ],
    "scenes": [
        {
            "name": "Root Scene",
            "nodes": [
                0
            ]
        }
    ],
    "accessors": [
        {
            "componentType": 5123,
            "type": "SCALAR",
            "count": 438,
            "bufferView": 0,
            "byteOffset": 0
        },
        {
            "componentType": 5126,
            "type": "VEC3",
            "count": 244,
            "bufferView": 1,
            "byteOffset": 0,
            "min": [
                -0.0249999985098839,
                0.0199999995529652,
                -0.0249999985098839
            ],
            "max": [
                0.0249999985098839,
                0.0967199951410294,
                0.0249999985098839
            ]
        },
        {
            "componentType": 5126,
            "type": "VEC3",
            "count": 244,
            "bufferView": 2,
            "byteOffset": 0
        },
        {
            "componentType": 5126,
            "type": "VEC2",
            "count": 244,
            "bufferView": 3,
            "byteOffset": 0
        },
        {
            "componentType": 5123,
            "type": "SCALAR",
            "count": 54,
            "bufferView": 4,
            "byteOffset": 0
        },
        {
            "componentType": 5126,
            "type": "VEC3",
            "count": 36,
            "bufferView": 5,
            "byteOffset": 0,
            "min": [
                -0.00933339353650808,
                0.0,
                -0.00933339353650808
            ],
            "max": [
                0.00933339353650808,
                0.0199999995529652,
                0.00933339353650808
            ]
        },
        {
            "componentType": 5126,
            "type": "VEC3",
            "count": 36,
            "bufferView": 6,
            "byteOffset": 0
        },
        {
            "componentType": 5126,
            "type": "VEC2",
            "count": 36,
            "bufferView": 7,
            "byteOffset": 0
        }
    ],
    "samplers": [
        {}
    ],
    "materials": [
        {
            "name": "leafsDark",
            "alphaMode": "OPAQUE",
            "extras": {
                "fromFBX": {
                    "shadingModel": "Phong",
                    "isTruePBR": false
                }
            },
            "pbrMetallicRoughness": {
                "baseColorFactor": [
                    0.168627500534058,
                    0.650980412960052,
                    0.666666686534882,
                    1.0
                ],
                "metallicFactor": 0.400000005960464,
                "roughnessFactor": 1.0
            }
        },
        {
            "name": "woodBarkDark",
            "alphaMode": "OPAQUE",
            "extras": {
                "fromFBX": {
                    "shadingModel": "Phong",
                    "isTruePBR": false
                }
            },
            "pbrMetallicRoughness": {
                "baseColorFactor": [
                    0.800000011920929,
                    0.462745100259781,
                    0.368627488613129,
                    1.0
                ],
                "metallicFactor": 0.400000005960464,
                "roughnessFactor": 1.0
            }
        }
    ],
    "meshes": [
        {
            "name": "tree_pineSmallA",
            "primitives": [
                {
                    "material": 0,
                    "mode": 4,
                    "attributes": {
                        "NORMAL": 2,
                        "POSITION": 1,
                        "TEXCOORD_0": 3
                    },
                    "indices": 0
                },
                {
                    "material": 1,
                    "mode": 4,
                    "attributes": {
                        "NORMAL": 6,
                        "POSITION": 5,
                        "TEXCOORD_0": 7
                    },
                    "indices": 4
                }
            ]
        }
    ],
    "nodes": [
        {
            "name": "RootNode",
            "translation": [
                0.0,
                0.0,
                0.0
            ],
            "rotation": [
                0.0,
                0.0,
                0.0,
                1.0
            ],
            "scale": [
                1.0,
                1.0,
                1.0
            ],
            "children": [
                1
            ]
        },
        {
            "name": "tree_pineSmallA",
            "translation": [
                0.0,
                -0.0499999970197678,
                0.0
            ],
            "rotation": [
                0.0,
                0.0,
                0.0,
                1.0
            ],
            "scale": [
                10.0,
                10.0,
                10.0
            ],
            "mesh": 0
        }
    ]
}