{
    "asset": {
        "generator": "FBX2glTF",
        "version": "2.0"
    },
    "scene": 0,
    "buffers": [
        {
            "byteLength": 48460,
            "uri": "buffer.bin"
        }
    ],
    "bufferViews": [
        {
            "buffer": 0,
            "byteLength": 2136,
            "byteOffset": 0,
            "target": 34963
        },
        {
            "buffer": 0,
            "byteLength": 8556,
            "byteOffset": 2136,
            "target": 34962
        },
        {
            "buffer": 0,
            "byteLength": 8556,
            "byteOffset": 10692,
            "target": 34962
        },
        {
            "buffer": 0,
            "byteLength": 5704,
            "byteOffset": 19248,
            "target": 34962
        },
        {
            "buffer": 0,
            "byteLength": 8556,
            "byteOffset": 24952,
            "target": 34962
        },
        {
            "buffer": 0,
            "byteLength": 960,
            "byteOffset": 33508,
            "target": 34963
        },
        {
            "buffer": 0,
            "byteLength": 3816,
            "byteOffset": 34468,
            "target": 34962
        },
        {
            "buffer": 0,
            "byteLength": 3816,
            "byteOffset": 38284,
            "target": 34962
        },
        {
            "buffer": 0,
            "byteLength": 2544,
            "byteOffset": 42100,
            "target": 34962
        },
        {
            "buffer": 0,
            "byteLength": 3816,
            "byteOffset": 44644,
            "target": 34962
        }
    ],
    "scenes": [
        {
            "name": "Root Scene",
            "nodes": [
                0
            ]
        }
    ],
    "accessors": [
        {
            "componentType": 5123,
            "type": "SCALAR",
            "count": 1068,
            "bufferView": 0,
            "byteOffset": 0
        },
        {
            "componentType": 5126,
            "type": "VEC3",
            "count": 713,
            "bufferView": 1,
            "byteOffset": 0,
            "min": [
                -0.576868176460266,
                -0.000631463655736297,
                -0.633511543273926
            ],
            "max": [
                0.571736335754395,
                0.987751603126526,
                0.499041199684143
            ]
        },
        {
            "componentType": 5126,
            "type": "VEC3",
            "count": 713,
            "bufferView": 2,
            "byteOffset": 0
        },
        {
            "componentType": 5126,
            "type": "VEC2",
            "count": 713,
            "bufferView": 3,
            "byteOffset": 0
        },
        {
            "componentType": 5126,
            "type": "VEC3",
            "count": 713,
            "bufferView": 4,
            "byteOffset": 0,
            "min": [
                -3.81469718035987e-08,
                -0.384862422943115,
                -0.145237803459167
            ],
            "max": [
                3.81469718035987e-08,
                1.10957741737366,
                1.22615885734558
            ]
        },
        {
            "componentType": 5123,
            "type": "SCALAR",
            "count": 480,
            "bufferView": 5,
            "byteOffset": 0
        },
        {
            "componentType": 5126,
            "type": "VEC3",
            "count": 318,
            "bufferView": 6,
            "byteOffset": 0,
            "min": [
                -0.516841232776642,
                0.0284896120429039,
                -0.444929420948029
            ],
            "max": [
                0.490321964025497,
                0.952249944210052,
                0.479637980461121
            ]
        },
        {
            "componentType": 5126,
            "type": "VEC3",
            "count": 318,
            "bufferView": 7,
            "byteOffset": 0
        },
        {
            "componentType": 5126,
            "type": "VEC2",
            "count": 318,
            "bufferView": 8,
            "byteOffset": 0
        },
        {
            "componentType": 5126,
            "type": "VEC3",
            "count": 318,
            "bufferView": 9,
            "byteOffset": 0,
            "min": [
                -0.00629676785320044,
                -0.343347758054733,
                -0.0385576225817204
            ],
            "max": [
                0.00507930759340525,
                0.709254264831543,
                1.0160505771637
            ]
        }
    ],
    "samplers": [
        {}
    ],
    "materials": [
        {
            "name": "Metallic",
            "alphaMode": "OPAQUE",
            "extras": {
                "fromFBX": {
                    "shadingModel": "Phong",
                    "isTruePBR": false
                }
            },
            "pbrMetallicRoughness": {
                "baseColorFactor": [
                    0.800000011920929,
                    0.800000011920929,
                    0.800000011920929,
                    1.0
                ],
                "metallicFactor": 0.400000005960464,
                "roughnessFactor": 0.229415729641914
            }
        },
        {
            "name": "Non Metallic",
            "alphaMode": "OPAQUE",
            "extras": {
                "fromFBX": {
                    "shadingModel": "Phong",
                    "isTruePBR": false
                }
            },
            "pbrMetallicRoughness": {
                "baseColorFactor": [
                    0.800000011920929,
                    0.800000011920929,
                    0.800000011920929,
                    1.0
                ],
                "metallicFactor": 0.400000005960464,
                "roughnessFactor": 0.229415729641914
            }
        }
    ],
    "meshes": [
        {
            "name": "TreasureChest",
            "primitives": [
                {
                    "material": 0,
                    "mode": 4,
                    "attributes": {
                        "NORMAL": 2,
                        "POSITION": 1,
                        "TEXCOORD_0": 3
                    },
                    "indices": 0,
                    "targets": [
                        {
                            "POSITION": 4
                        }
                    ]
                },
                {
                    "material": 1,
                    "mode": 4,
                    "attributes": {
                        "NORMAL": 7,
                        "POSITION": 6,
                        "TEXCOORD_0": 8
                    },
                    "indices": 5,
                    "targets": [
                        {
                            "POSITION": 9
                        }
                    ]
                }
            ],
            "weights": [
                0.0
            ]
        }
    ],
    "nodes": [
        {
            "name": "RootNode",
            "translation": [
                0.0,
                0.0,
                0.0
            ],
            "rotation": [
                0.0,
                0.0,
                0.0,
                1.0
            ],
            "scale": [
                1.0,
                1.0,
                1.0
            ],
            "children": [
                1
            ]
        },
        {
            "name": "TreasureChest",
            "translation": [
                0.0,
                0.0,
                0.0
            ],
            "rotation": [
                6.12323426292584e-17,
                1.0,
                6.12323426292584e-17,
                3.74939939305299e-33
            ],
            "scale": [
                1.0,
                1.0,
                1.0
            ],
            "mesh": 0
        }
    ]
}