{
    "asset": {
        "generator": "FBX2glTF",
        "version": "2.0"
    },
    "scene": 0,
    "buffers": [
        {
            "byteLength": 179664,
            "uri": "buffer.bin"
        }
    ],
    "bufferViews": [
        {
            "buffer": 0,
            "byteLength": 4656,
            "byteOffset": 0,
            "target": 34963
        },
        {
            "buffer": 0,
            "byteLength": 11664,
            "byteOffset": 4656,
            "target": 34962
        },
        {
            "buffer": 0,
            "byteLength": 11664,
            "byteOffset": 16320,
            "target": 34962
        },
        {
            "buffer": 0,
            "byteLength": 15552,
            "byteOffset": 27984,
            "target": 34962
        },
        {
            "buffer": 0,
            "byteLength": 7776,
            "byteOffset": 43536,
            "target": 34962
        },
        {
            "buffer": 0,
            "byteLength": 2568,
            "byteOffset": 51312,
            "target": 34963
        },
        {
            "buffer": 0,
            "byteLength": 7380,
            "byteOffset": 53880,
            "target": 34962
        },
        {
            "buffer": 0,
            "byteLength": 7380,
            "byteOffset": 61260,
            "target": 34962
        },
        {
            "buffer": 0,
            "byteLength": 9840,
            "byteOffset": 68640,
            "target": 34962
        },
        {
            "buffer": 0,
            "byteLength": 4920,
            "byteOffset": 78480,
            "target": 34962
        },
        {
            "buffer": 0,
            "byteLength": 2568,
            "byteOffset": 83400,
            "target": 34963
        },
        {
            "buffer": 0,
            "byteLength": 7380,
            "byteOffset": 85968,
            "target": 34962
        },
        {
            "buffer": 0,
            "byteLength": 7380,
            "byteOffset": 93348,
            "target": 34962
        },
        {
            "buffer": 0,
            "byteLength": 9840,
            "byteOffset": 100728,
            "target": 34962
        },
        {
            "buffer": 0,
            "byteLength": 4920,
            "byteOffset": 110568,
            "target": 34962
        },
        {
            "buffer": 0,
            "byteLength": 2568,
            "byteOffset": 115488,
            "target": 34963
        },
        {
            "buffer": 0,
            "byteLength": 7380,
            "byteOffset": 118056,
            "target": 34962
        },
        {
            "buffer": 0,
            "byteLength": 7380,
            "byteOffset": 125436,
            "target": 34962
        },
        {
            "buffer": 0,
            "byteLength": 9840,
            "byteOffset": 132816,
            "target": 34962
        },
        {
            "buffer": 0,
            "byteLength": 4920,
            "byteOffset": 142656,
            "target": 34962
        },
        {
            "buffer": 0,
            "byteLength": 2568,
            "byteOffset": 147576,
            "target": 34963
        },
        {
            "buffer": 0,
            "byteLength": 7380,
            "byteOffset": 150144,
            "target": 34962
        },
        {
            "buffer": 0,
            "byteLength": 7380,
            "byteOffset": 157524,
            "target": 34962
        },
        {
            "buffer": 0,
            "byteLength": 9840,
            "byteOffset": 164904,
            "target": 34962
        },
        {
            "buffer": 0,
            "byteLength": 4920,
            "byteOffset": 174744,
            "target": 34962
        }
    ],
    "scenes": [
        {
            "name": "Root Scene",
            "nodes": [
                0
            ]
        }
    ],
    "accessors": [
        {
            "componentType": 5123,
            "type": "SCALAR",
            "count": 2328,
            "bufferView": 0,
            "byteOffset": 0
        },
        {
            "componentType": 5126,
            "type": "VEC3",
            "count": 972,
            "bufferView": 1,
            "byteOffset": 0,
            "min": [
                -0.75,
                0.0,
                -1.37255716323853
            ],
            "max": [
                0.75,
                1.14999997615814,
                1.37255704402924
            ]
        },
        {
            "componentType": 5126,
            "type": "VEC3",
            "count": 972,
            "bufferView": 2,
            "byteOffset": 0
        },
        {
            "componentType": 5126,
            "type": "VEC4",
            "count": 972,
            "bufferView": 3,
            "byteOffset": 0
        },
        {
            "componentType": 5126,
            "type": "VEC2",
            "count": 972,
            "bufferView": 4,
            "byteOffset": 0
        },
        {
            "componentType": 5123,
            "type": "SCALAR",
            "count": 1284,
            "bufferView": 5,
            "byteOffset": 0
        },
        {
            "componentType": 5126,
            "type": "VEC3",
            "count": 615,
            "bufferView": 6,
            "byteOffset": 0,
            "min": [
                -6.56939373776602e-14,
                -0.300000011920929,
                -0.300000011920929
            ],
            "max": [
                0.300000101327896,
                0.300000011920929,
                0.300000011920929
            ]
        },
        {
            "componentType": 5126,
            "type": "VEC3",
            "count": 615,
            "bufferView": 7,
            "byteOffset": 0
        },
        {
            "componentType": 5126,
            "type": "VEC4",
            "count": 615,
            "bufferView": 8,
            "byteOffset": 0
        },
        {
            "componentType": 5126,
            "type": "VEC2",
            "count": 615,
            "bufferView": 9,
            "byteOffset": 0
        },
        {
            "componentType": 5123,
            "type": "SCALAR",
            "count": 1284,
            "bufferView": 10,
            "byteOffset": 0
        },
        {
            "componentType": 5126,
            "type": "VEC3",
            "count": 615,
            "bufferView": 11,
            "byteOffset": 0,
            "min": [
                -0.300000101327896,
                -0.300000011920929,
                -0.300000011920929
            ],
            "max": [
                1.40077565432412e-14,
                0.300000011920929,
                0.300000011920929
            ]
        },
        {
            "componentType": 5126,
            "type": "VEC3",
            "count": 615,
            "bufferView": 12,
            "byteOffset": 0
        },
        {
            "componentType": 5126,
            "type": "VEC4",
            "count": 615,
            "bufferView": 13,
            "byteOffset": 0
        },
        {
            "componentType": 5126,
            "type": "VEC2",
            "count": 615,
            "bufferView": 14,
            "byteOffset": 0
        },
        {
            "componentType": 5123,
            "type": "SCALAR",
            "count": 1284,
            "bufferView": 15,
            "byteOffset": 0
        },
        {
            "componentType": 5126,
            "type": "VEC3",
            "count": 615,
            "bufferView": 16,
            "byteOffset": 0,
            "min": [
                -6.56939373776602e-14,
                -0.300000011920929,
                -0.300000011920929
            ],
            "max": [
                0.300000101327896,
                0.300000011920929,
                0.300000011920929
            ]
        },
        {
            "componentType": 5126,
            "type": "VEC3",
            "count": 615,
            "bufferView": 17,
            "byteOffset": 0
        },
        {
            "componentType": 5126,
            "type": "VEC4",
            "count": 615,
            "bufferView": 18,
            "byteOffset": 0
        },
        {
            "componentType": 5126,
            "type": "VEC2",
            "count": 615,
            "bufferView": 19,
            "byteOffset": 0
        },
        {
            "componentType": 5123,
            "type": "SCALAR",
            "count": 1284,
            "bufferView": 20,
            "byteOffset": 0
        },
        {
            "componentType": 5126,
            "type": "VEC3",
            "count": 615,
            "bufferView": 21,
            "byteOffset": 0,
            "min": [
                -0.300000101327896,
                -0.300000011920929,
                -0.300000011920929
            ],
            "max": [
                1.40077565432412e-14,
                0.300000011920929,
                0.300000011920929
            ]
        },
        {
            "componentType": 5126,
            "type": "VEC3",
            "count": 615,
            "bufferView": 22,
            "byteOffset": 0
        },
        {
            "componentType": 5126,
            "type": "VEC4",
            "count": 615,
            "bufferView": 23,
            "byteOffset": 0
        },
        {
            "componentType": 5126,
            "type": "VEC2",
            "count": 615,
            "bufferView": 24,
            "byteOffset": 0
        }
    ],
    "images": [
        {
            "name": "colormap.png",
            "uri": "colormap.png"
        }
    ],
    "samplers": [
        {}
    ],
    "textures": [
        {
            "name": "DiffuseColor_Texture",
            "sampler": 0,
            "source": 0
        }
    ],
    "materials": [
        {
            "name": "colormap",
            "alphaMode": "OPAQUE",
            "extras": {
                "fromFBX": {
                    "shadingModel": "Lambert",
                    "isTruePBR": false
                }
            },
            "pbrMetallicRoughness": {
                "baseColorTexture": {
                    "index": 0,
                    "texCoord": 0
                },
                "baseColorFactor": [
                    1.0,
                    1.0,
                    1.0,
                    1.0
                ],
                "metallicFactor": 0.200000002980232,
                "roughnessFactor": 0.800000011920929
            }
        }
    ],
    "meshes": [
        {
            "name": "body",
            "primitives": [
                {
                    "material": 0,
                    "mode": 4,
                    "attributes": {
                        "NORMAL": 2,
                        "POSITION": 1,
                        "TANGENT": 3,
                        "TEXCOORD_0": 4
                    },
                    "indices": 0
                }
            ]
        },
        {
            "name": "wheel-back-left",
            "primitives": [
                {
                    "material": 0,
                    "mode": 4,
                    "attributes": {
                        "NORMAL": 7,
                        "POSITION": 6,
                        "TANGENT": 8,
                        "TEXCOORD_0": 9
                    },
                    "indices": 5
                }
            ]
        },
        {
            "name": "wheel-back-right",
            "primitives": [
                {
                    "material": 0,
                    "mode": 4,
                    "attributes": {
                        "NORMAL": 12,
                        "POSITION": 11,
                        "TANGENT": 13,
                        "TEXCOORD_0": 14
                    },
                    "indices": 10
                }
            ]
        },
        {
            "name": "wheel-front-left",
            "primitives": [
                {
                    "material": 0,
                    "mode": 4,
                    "attributes": {
                        "NORMAL": 17,
                        "POSITION": 16,
                        "TANGENT": 18,
                        "TEXCOORD_0": 19
                    },
                    "indices": 15
                }
            ]
        },
        {
            "name": "wheel-front-right",
            "primitives": [
                {
                    "material": 0,
                    "mode": 4,
                    "attributes": {
                        "NORMAL": 22,
                        "POSITION": 21,
                        "TANGENT": 23,
                        "TEXCOORD_0": 24
                    },
                    "indices": 20
                }
            ]
        }
    ],
    "nodes": [
        {
            "name": "RootNode",
            "translation": [
                0.0,
                0.0,
                0.0
            ],
            "rotation": [
                0.0,
                0.0,
                0.0,
                1.0
            ],
            "scale": [
                1.0,
                1.0,
                1.0
            ],
            "children": [
                1
            ]
        },
        {
            "name": "truck-flat",
            "translation": [
                0.0,
                0.0,
                0.0
            ],
            "rotation": [
                0.0,
                0.0,
                0.0,
                1.0
            ],
            "scale": [
                1.0,
                1.0,
                1.0
            ],
            "children": [
                2,
                3,
                4,
                5,
                6
            ]
        },
        {
            "name": "body",
            "translation": [
                0.0,
                0.150000005960464,
                -7.21911410807822e-16
            ],
            "rotation": [
                0.0,
                0.0,
                0.0,
                1.0
            ],
            "scale": [
                1.0,
                1.0,
                1.0
            ],
            "mesh": 0
        },
        {
            "name": "wheel-back-left",
            "translation": [
                0.300000011920929,
                0.300000011920929,
                -0.637442827224731
            ],
            "rotation": [
                0.0,
                0.0,
                0.0,
                1.0
            ],
            "scale": [
                1.0,
                1.0,
                1.0
            ],
            "mesh": 1
        },
        {
            "name": "wheel-back-right",
            "translation": [
                -0.300000011920929,
                0.300000011920929,
                -0.637442827224731
            ],
            "rotation": [
                0.0,
                0.0,
                0.0,
                1.0
            ],
            "scale": [
                1.0,
                1.0,
                1.0
            ],
            "mesh": 2
        },
        {
            "name": "wheel-front-left",
            "translation": [
                0.300000011920929,
                0.300000011920929,
                0.782557189464569
            ],
            "rotation": [
                0.0,
                0.0,
                0.0,
                1.0
            ],
            "scale": [
                1.0,
                1.0,
                1.0
            ],
            "mesh": 3
        },
        {
            "name": "wheel-front-right",
            "translation": [
                -0.300000011920929,
                0.300000011920929,
                0.782557189464569
            ],
            "rotation": [
                0.0,
                0.0,
                0.0,
                1.0
            ],
            "scale": [
                1.0,
                1.0,
                1.0
            ],
            "mesh": 4
        }
    ]
}