{
    "asset": {
        "generator": "FBX2glTF",
        "version": "2.0"
    },
    "scene": 0,
    "buffers": [
        {
            "byteLength": 9772,
            "uri": "buffer.bin"
        }
    ],
    "bufferViews": [
        {
            "buffer": 0,
            "byteLength": 1014,
            "byteOffset": 0,
            "target": 34963
        },
        {
            "buffer": 0,
            "byteLength": 2388,
            "byteOffset": 1016,
            "target": 34962
        },
        {
            "buffer": 0,
            "byteLength": 2388,
            "byteOffset": 3404,
            "target": 34962
        },
        {
            "buffer": 0,
            "byteLength": 1592,
            "byteOffset": 5792,
            "target": 34962
        },
        {
            "buffer": 0,
            "byteLength": 2388,
            "byteOffset": 7384,
            "target": 34962
        }
    ],
    "scenes": [
        {
            "name": "Root Scene",
            "nodes": [
                0
            ]
        }
    ],
    "accessors": [
        {
            "componentType": 5123,
            "type": "SCALAR",
            "count": 507,
            "bufferView": 0,
            "byteOffset": 0
        },
        {
            "componentType": 5126,
            "type": "VEC3",
            "count": 199,
            "bufferView": 1,
            "byteOffset": 0,
            "min": [
                -1.0,
                -1.0,
                -1.0
            ],
            "max": [
                1.0,
                0.0,
                1.0
            ]
        },
        {
            "componentType": 5126,
            "type": "VEC3",
            "count": 199,
            "bufferView": 2,
            "byteOffset": 0
        },
        {
            "componentType": 5126,
            "type": "VEC2",
            "count": 199,
            "bufferView": 3,
            "byteOffset": 0
        },
        {
            "componentType": 5126,
            "type": "VEC3",
            "count": 199,
            "bufferView": 4,
            "byteOffset": 0,
            "min": [
                -0.120221018791199,
                0.0,
                -0.15793776512146
            ],
            "max": [
                0.116712778806686,
                0.0,
                0.164730757474899
            ]
        }
    ],
    "samplers": [
        {}
    ],
    "materials": [
        {
            "name": "Non Metallic",
            "alphaMode": "OPAQUE",
            "extras": {
                "fromFBX": {
                    "shadingModel": "Phong",
                    "isTruePBR": false
                }
            },
            "pbrMetallicRoughness": {
                "baseColorFactor": [
                    0.800000011920929,
                    0.800000011920929,
                    0.800000011920929,
                    1.0
                ],
                "metallicFactor": 0.400000005960464,
                "roughnessFactor": 0.229415729641914
            }
        }
    ],
    "meshes": [
        {
            "name": "Water2",
            "primitives": [
                {
                    "material": 0,
                    "mode": 4,
                    "attributes": {
                        "NORMAL": 2,
                        "POSITION": 1,
                        "TEXCOORD_0": 3
                    },
                    "indices": 0,
                    "targets": [
                        {
                            "POSITION": 4
                        }
                    ]
                }
            ],
            "weights": [
                0.0
            ]
        }
    ],
    "nodes": [
        {
            "name": "RootNode",
            "translation": [
                0.0,
                0.0,
                0.0
            ],
            "rotation": [
                0.0,
                0.0,
                0.0,
                1.0
            ],
            "scale": [
                1.0,
                1.0,
                1.0
            ],
            "children": [
                1
            ]
        },
        {
            "name": "Water2",
            "translation": [
                0.0,
                0.0,
                0.0
            ],
            "rotation": [
                6.12323426292584e-17,
                1.0,
                6.12323426292584e-17,
                3.74939939305299e-33
            ],
            "scale": [
                1.0,
                1.0,
                1.0
            ],
            "mesh": 0
        }
    ]
}