{
    "asset": {
        "generator": "FBX2glTF",
        "version": "2.0"
    },
    "scene": 0,
    "buffers": [
        {
            "byteLength": 17072,
            "uri": "buffer.bin"
        }
    ],
    "bufferViews": [
        {
            "buffer": 0,
            "byteLength": 2832,
            "byteOffset": 0,
            "target": 34963
        },
        {
            "buffer": 0,
            "byteLength": 5340,
            "byteOffset": 2832,
            "target": 34962
        },
        {
            "buffer": 0,
            "byteLength": 5340,
            "byteOffset": 8172,
            "target": 34962
        },
        {
            "buffer": 0,
            "byteLength": 3560,
            "byteOffset": 13512,
            "target": 34962
        }
    ],
    "scenes": [
        {
            "name": "Root Scene",
            "nodes": [
                0
            ]
        }
    ],
    "accessors": [
        {
            "componentType": 5123,
            "type": "SCALAR",
            "count": 1416,
            "bufferView": 0,
            "byteOffset": 0
        },
        {
            "componentType": 5126,
            "type": "VEC3",
            "count": 445,
            "bufferView": 1,
            "byteOffset": 0,
            "min": [
                -3.31201839447021,
                0.00121960043907166,
                -1.23055577278137
            ],
            "max": [
                1.79090452194214,
                1.35016894340515,
                1.23055613040924
            ]
        },
        {
            "componentType": 5126,
            "type": "VEC3",
            "count": 445,
            "bufferView": 2,
            "byteOffset": 0
        },
        {
            "componentType": 5126,
            "type": "VEC2",
            "count": 445,
            "bufferView": 3,
            "byteOffset": 0
        }
    ],
    "samplers": [
        {}
    ],
    "materials": [
        {
            "name": "Non Metallic",
            "alphaMode": "OPAQUE",
            "extras": {
                "fromFBX": {
                    "shadingModel": "Phong",
                    "isTruePBR": false
                }
            },
            "pbrMetallicRoughness": {
                "baseColorFactor": [
                    0.800000011920929,
                    0.800000011920929,
                    0.800000011920929,
                    1.0
                ],
                "metallicFactor": 0.400000005960464,
                "roughnessFactor": 0.229415729641914
            }
        }
    ],
    "meshes": [
        {
            "name": "Cloud1",
            "primitives": [
                {
                    "material": 0,
                    "mode": 4,
                    "attributes": {
                        "NORMAL": 2,
                        "POSITION": 1,
                        "TEXCOORD_0": 3
                    },
                    "indices": 0
                }
            ]
        }
    ],
    "nodes": [
        {
            "name": "RootNode",
            "translation": [
                0.0,
                0.0,
                0.0
            ],
            "rotation": [
                0.0,
                0.0,
                0.0,
                1.0
            ],
            "scale": [
                1.0,
                1.0,
                1.0
            ],
            "children": [
                1
            ]
        },
        {
            "name": "Cloud1",
            "translation": [
                0.0,
                0.0,
                0.0
            ],
            "rotation": [
                6.12323426292584e-17,
                1.0,
                6.12323426292584e-17,
                3.74939939305299e-33
            ],
            "scale": [
                1.0,
                1.0,
                1.0
            ],
            "mesh": 0
        }
    ]
}