{
    "asset": {
        "generator": "FBX2glTF",
        "version": "2.0"
    },
    "scene": 0,
    "buffers": [
        {
            "byteLength": 4820,
            "uri": "buffer.bin"
        }
    ],
    "bufferViews": [
        {
            "buffer": 0,
            "byteLength": 60,
            "byteOffset": 0,
            "target": 34963
        },
        {
            "buffer": 0,
            "byteLength": 240,
            "byteOffset": 60,
            "target": 34962
        },
        {
            "buffer": 0,
            "byteLength": 240,
            "byteOffset": 300,
            "target": 34962
        },
        {
            "buffer": 0,
            "byteLength": 160,
            "byteOffset": 540,
            "target": 34962
        },
        {
            "buffer": 0,
            "byteLength": 408,
            "byteOffset": 700,
            "target": 34963
        },
        {
            "buffer": 0,
            "byteLength": 1392,
            "byteOffset": 1108,
            "target": 34962
        },
        {
            "buffer": 0,
            "byteLength": 1392,
            "byteOffset": 2500,
            "target": 34962
        },
        {
            "buffer": 0,
            "byteLength": 928,
            "byteOffset": 3892,
            "target": 34962
        }
    ],
    "scenes": [
        {
            "name": "Root Scene",
            "nodes": [
                0
            ]
        }
    ],
    "accessors": [
        {
            "componentType": 5123,
            "type": "SCALAR",
            "count": 30,
            "bufferView": 0,
            "byteOffset": 0
        },
        {
            "componentType": 5126,
            "type": "VEC3",
            "count": 20,
            "bufferView": 1,
            "byteOffset": 0,
            "min": [
                -0.00463709980249405,
                0.0,
                -0.00463709980249405
            ],
            "max": [
                0.00463709980249405,
                0.0628530979156494,
                0.00463709980249405
            ]
        },
        {
            "componentType": 5126,
            "type": "VEC3",
            "count": 20,
            "bufferView": 2,
            "byteOffset": 0
        },
        {
            "componentType": 5126,
            "type": "VEC2",
            "count": 20,
            "bufferView": 3,
            "byteOffset": 0
        },
        {
            "componentType": 5123,
            "type": "SCALAR",
            "count": 204,
            "bufferView": 4,
            "byteOffset": 0
        },
        {
            "componentType": 5126,
            "type": "VEC3",
            "count": 116,
            "bufferView": 5,
            "byteOffset": 0,
            "min": [
                -0.0207093488425016,
                0.0628530979156494,
                -0.0198036506772041
            ],
            "max": [
                0.0179179385304451,
                0.152960598468781,
                0.0193913485854864
            ]
        },
        {
            "componentType": 5126,
            "type": "VEC3",
            "count": 116,
            "bufferView": 6,
            "byteOffset": 0
        },
        {
            "componentType": 5126,
            "type": "VEC2",
            "count": 116,
            "bufferView": 7,
            "byteOffset": 0
        }
    ],
    "samplers": [
        {}
    ],
    "materials": [
        {
            "name": "woodBarkDark",
            "alphaMode": "OPAQUE",
            "extras": {
                "fromFBX": {
                    "shadingModel": "Phong",
                    "isTruePBR": false
                }
            },
            "pbrMetallicRoughness": {
                "baseColorFactor": [
                    0.800000011920929,
                    0.462745100259781,
                    0.368627488613129,
                    1.0
                ],
                "metallicFactor": 0.400000005960464,
                "roughnessFactor": 1.0
            }
        },
        {
            "name": "leafsDark",
            "alphaMode": "OPAQUE",
            "extras": {
                "fromFBX": {
                    "shadingModel": "Phong",
                    "isTruePBR": false
                }
            },
            "pbrMetallicRoughness": {
                "baseColorFactor": [
                    0.168627500534058,
                    0.650980412960052,
                    0.666666686534882,
                    1.0
                ],
                "metallicFactor": 0.400000005960464,
                "roughnessFactor": 1.0
            }
        }
    ],
    "meshes": [
        {
            "name": "tree_pineTallA",
            "primitives": [
                {
                    "material": 0,
                    "mode": 4,
                    "attributes": {
                        "NORMAL": 2,
                        "POSITION": 1,
                        "TEXCOORD_0": 3
                    },
                    "indices": 0
                },
                {
                    "material": 1,
                    "mode": 4,
                    "attributes": {
                        "NORMAL": 6,
                        "POSITION": 5,
                        "TEXCOORD_0": 7
                    },
                    "indices": 4
                }
            ]
        }
    ],
    "nodes": [
        {
            "name": "RootNode",
            "translation": [
                0.0,
                0.0,
                0.0
            ],
            "rotation": [
                0.0,
                0.0,
                0.0,
                1.0
            ],
            "scale": [
                1.0,
                1.0,
                1.0
            ],
            "children": [
                1
            ]
        },
        {
            "name": "tree_pineTallA",
            "translation": [
                0.0,
                -0.0499999970197678,
                0.0
            ],
            "rotation": [
                0.0,
                0.0,
                0.0,
                1.0
            ],
            "scale": [
                10.0,
                10.0,
                10.0
            ],
            "mesh": 0
        }
    ]
}