{
    "asset": {
        "generator": "FBX2glTF",
        "version": "2.0"
    },
    "scene": 0,
    "buffers": [
        {
            "byteLength": 152016,
            "uri": "buffer.bin"
        }
    ],
    "bufferViews": [
        {
            "buffer": 0,
            "byteLength": 1992,
            "byteOffset": 0,
            "target": 34963
        },
        {
            "buffer": 0,
            "byteLength": 5832,
            "byteOffset": 1992,
            "target": 34962
        },
        {
            "buffer": 0,
            "byteLength": 5832,
            "byteOffset": 7824,
            "target": 34962
        },
        {
            "buffer": 0,
            "byteLength": 7776,
            "byteOffset": 13656,
            "target": 34962
        },
        {
            "buffer": 0,
            "byteLength": 3888,
            "byteOffset": 21432,
            "target": 34962
        },
        {
            "buffer": 0,
            "byteLength": 1992,
            "byteOffset": 25320,
            "target": 34963
        },
        {
            "buffer": 0,
            "byteLength": 5832,
            "byteOffset": 27312,
            "target": 34962
        },
        {
            "buffer": 0,
            "byteLength": 5832,
            "byteOffset": 33144,
            "target": 34962
        },
        {
            "buffer": 0,
            "byteLength": 7776,
            "byteOffset": 38976,
            "target": 34962
        },
        {
            "buffer": 0,
            "byteLength": 3888,
            "byteOffset": 46752,
            "target": 34962
        },
        {
            "buffer": 0,
            "byteLength": 1992,
            "byteOffset": 50640,
            "target": 34963
        },
        {
            "buffer": 0,
            "byteLength": 5832,
            "byteOffset": 52632,
            "target": 34962
        },
        {
            "buffer": 0,
            "byteLength": 5832,
            "byteOffset": 58464,
            "target": 34962
        },
        {
            "buffer": 0,
            "byteLength": 7776,
            "byteOffset": 64296,
            "target": 34962
        },
        {
            "buffer": 0,
            "byteLength": 3888,
            "byteOffset": 72072,
            "target": 34962
        },
        {
            "buffer": 0,
            "byteLength": 1992,
            "byteOffset": 75960,
            "target": 34963
        },
        {
            "buffer": 0,
            "byteLength": 5832,
            "byteOffset": 77952,
            "target": 34962
        },
        {
            "buffer": 0,
            "byteLength": 5832,
            "byteOffset": 83784,
            "target": 34962
        },
        {
            "buffer": 0,
            "byteLength": 7776,
            "byteOffset": 89616,
            "target": 34962
        },
        {
            "buffer": 0,
            "byteLength": 3888,
            "byteOffset": 97392,
            "target": 34962
        },
        {
            "buffer": 0,
            "byteLength": 4560,
            "byteOffset": 101280,
            "target": 34963
        },
        {
            "buffer": 0,
            "byteLength": 11544,
            "byteOffset": 105840,
            "target": 34962
        },
        {
            "buffer": 0,
            "byteLength": 11544,
            "byteOffset": 117384,
            "target": 34962
        },
        {
            "buffer": 0,
            "byteLength": 15392,
            "byteOffset": 128928,
            "target": 34962
        },
        {
            "buffer": 0,
            "byteLength": 7696,
            "byteOffset": 144320,
            "target": 34962
        }
    ],
    "scenes": [
        {
            "name": "Root Scene",
            "nodes": [
                0
            ]
        }
    ],
    "accessors": [
        {
            "componentType": 5123,
            "type": "SCALAR",
            "count": 996,
            "bufferView": 0,
            "byteOffset": 0
        },
        {
            "componentType": 5126,
            "type": "VEC3",
            "count": 486,
            "bufferView": 1,
            "byteOffset": 0,
            "min": [
                -0.0499999970197678,
                -0.300000011920929,
                -0.300000011920929
            ],
            "max": [
                0.300000190734863,
                0.300000011920929,
                0.300000011920929
            ]
        },
        {
            "componentType": 5126,
            "type": "VEC3",
            "count": 486,
            "bufferView": 2,
            "byteOffset": 0
        },
        {
            "componentType": 5126,
            "type": "VEC4",
            "count": 486,
            "bufferView": 3,
            "byteOffset": 0
        },
        {
            "componentType": 5126,
            "type": "VEC2",
            "count": 486,
            "bufferView": 4,
            "byteOffset": 0
        },
        {
            "componentType": 5123,
            "type": "SCALAR",
            "count": 996,
            "bufferView": 5,
            "byteOffset": 0
        },
        {
            "componentType": 5126,
            "type": "VEC3",
            "count": 486,
            "bufferView": 6,
            "byteOffset": 0,
            "min": [
                -0.300000190734863,
                -0.300000011920929,
                -0.300000011920929
            ],
            "max": [
                0.0499999970197678,
                0.300000011920929,
                0.300000011920929
            ]
        },
        {
            "componentType": 5126,
            "type": "VEC3",
            "count": 486,
            "bufferView": 7,
            "byteOffset": 0
        },
        {
            "componentType": 5126,
            "type": "VEC4",
            "count": 486,
            "bufferView": 8,
            "byteOffset": 0
        },
        {
            "componentType": 5126,
            "type": "VEC2",
            "count": 486,
            "bufferView": 9,
            "byteOffset": 0
        },
        {
            "componentType": 5123,
            "type": "SCALAR",
            "count": 996,
            "bufferView": 10,
            "byteOffset": 0
        },
        {
            "componentType": 5126,
            "type": "VEC3",
            "count": 486,
            "bufferView": 11,
            "byteOffset": 0,
            "min": [
                -0.0499999970197678,
                -0.300000011920929,
                -0.300000011920929
            ],
            "max": [
                0.300000190734863,
                0.300000011920929,
                0.300000011920929
            ]
        },
        {
            "componentType": 5126,
            "type": "VEC3",
            "count": 486,
            "bufferView": 12,
            "byteOffset": 0
        },
        {
            "componentType": 5126,
            "type": "VEC4",
            "count": 486,
            "bufferView": 13,
            "byteOffset": 0
        },
        {
            "componentType": 5126,
            "type": "VEC2",
            "count": 486,
            "bufferView": 14,
            "byteOffset": 0
        },
        {
            "componentType": 5123,
            "type": "SCALAR",
            "count": 996,
            "bufferView": 15,
            "byteOffset": 0
        },
        {
            "componentType": 5126,
            "type": "VEC3",
            "count": 486,
            "bufferView": 16,
            "byteOffset": 0,
            "min": [
                -0.300000190734863,
                -0.300000011920929,
                -0.300000011920929
            ],
            "max": [
                0.0499999970197678,
                0.300000011920929,
                0.300000011920929
            ]
        },
        {
            "componentType": 5126,
            "type": "VEC3",
            "count": 486,
            "bufferView": 17,
            "byteOffset": 0
        },
        {
            "componentType": 5126,
            "type": "VEC4",
            "count": 486,
            "bufferView": 18,
            "byteOffset": 0
        },
        {
            "componentType": 5126,
            "type": "VEC2",
            "count": 486,
            "bufferView": 19,
            "byteOffset": 0
        },
        {
            "componentType": 5123,
            "type": "SCALAR",
            "count": 2280,
            "bufferView": 20,
            "byteOffset": 0
        },
        {
            "componentType": 5126,
            "type": "VEC3",
            "count": 962,
            "bufferView": 21,
            "byteOffset": 0,
            "min": [
                -0.649999976158142,
                0.0,
                -1.42499995231628
            ],
            "max": [
                0.649999976158142,
                0.949999988079071,
                1.42499995231628
            ]
        },
        {
            "componentType": 5126,
            "type": "VEC3",
            "count": 962,
            "bufferView": 22,
            "byteOffset": 0
        },
        {
            "componentType": 5126,
            "type": "VEC4",
            "count": 962,
            "bufferView": 23,
            "byteOffset": 0
        },
        {
            "componentType": 5126,
            "type": "VEC2",
            "count": 962,
            "bufferView": 24,
            "byteOffset": 0
        }
    ],
    "images": [
        {
            "name": "colormap.png",
            "uri": "colormap.png"
        }
    ],
    "samplers": [
        {}
    ],
    "textures": [
        {
            "name": "DiffuseColor_Texture",
            "sampler": 0,
            "source": 0
        }
    ],
    "materials": [
        {
            "name": "colormap",
            "alphaMode": "OPAQUE",
            "extras": {
                "fromFBX": {
                    "shadingModel": "Lambert",
                    "isTruePBR": false
                }
            },
            "pbrMetallicRoughness": {
                "baseColorTexture": {
                    "index": 0,
                    "texCoord": 0
                },
                "baseColorFactor": [
                    1.0,
                    1.0,
                    1.0,
                    1.0
                ],
                "metallicFactor": 0.200000002980232,
                "roughnessFactor": 0.800000011920929
            }
        }
    ],
    "meshes": [
        {
            "name": "wheel-front-left",
            "primitives": [
                {
                    "material": 0,
                    "mode": 4,
                    "attributes": {
                        "NORMAL": 2,
                        "POSITION": 1,
                        "TANGENT": 3,
                        "TEXCOORD_0": 4
                    },
                    "indices": 0
                }
            ]
        },
        {
            "name": "wheel-back-right",
            "primitives": [
                {
                    "material": 0,
                    "mode": 4,
                    "attributes": {
                        "NORMAL": 7,
                        "POSITION": 6,
                        "TANGENT": 8,
                        "TEXCOORD_0": 9
                    },
                    "indices": 5
                }
            ]
        },
        {
            "name": "wheel-back-left",
            "primitives": [
                {
                    "material": 0,
                    "mode": 4,
                    "attributes": {
                        "NORMAL": 12,
                        "POSITION": 11,
                        "TANGENT": 13,
                        "TEXCOORD_0": 14
                    },
                    "indices": 10
                }
            ]
        },
        {
            "name": "wheel-front-right",
            "primitives": [
                {
                    "material": 0,
                    "mode": 4,
                    "attributes": {
                        "NORMAL": 17,
                        "POSITION": 16,
                        "TANGENT": 18,
                        "TEXCOORD_0": 19
                    },
                    "indices": 15
                }
            ]
        },
        {
            "name": "body",
            "primitives": [
                {
                    "material": 0,
                    "mode": 4,
                    "attributes": {
                        "NORMAL": 22,
                        "POSITION": 21,
                        "TANGENT": 23,
                        "TEXCOORD_0": 24
                    },
                    "indices": 20
                }
            ]
        }
    ],
    "nodes": [
        {
            "name": "RootNode",
            "translation": [
                0.0,
                0.0,
                0.0
            ],
            "rotation": [
                0.0,
                0.0,
                0.0,
                1.0
            ],
            "scale": [
                1.0,
                1.0,
                1.0
            ],
            "children": [
                1
            ]
        },
        {
            "name": "hatchback-sports",
            "translation": [
                0.0,
                0.0,
                0.0
            ],
            "rotation": [
                0.0,
                0.0,
                0.0,
                1.0
            ],
            "scale": [
                1.0,
                1.0,
                1.0
            ],
            "children": [
                2,
                3,
                4,
                5,
                6
            ]
        },
        {
            "name": "wheel-front-left",
            "translation": [
                0.300000011920929,
                0.300000011920929,
                0.809999883174896
            ],
            "rotation": [
                0.0,
                0.0,
                0.0,
                1.0
            ],
            "scale": [
                1.0,
                1.0,
                1.0
            ],
            "mesh": 0
        },
        {
            "name": "wheel-back-right",
            "translation": [
                -0.300000011920929,
                0.300000011920929,
                -0.809999883174896
            ],
            "rotation": [
                0.0,
                0.0,
                0.0,
                1.0
            ],
            "scale": [
                1.0,
                1.0,
                1.0
            ],
            "mesh": 1
        },
        {
            "name": "wheel-back-left",
            "translation": [
                0.300000011920929,
                0.300000011920929,
                -0.809999883174896
            ],
            "rotation": [
                0.0,
                0.0,
                0.0,
                1.0
            ],
            "scale": [
                1.0,
                1.0,
                1.0
            ],
            "mesh": 2
        },
        {
            "name": "wheel-front-right",
            "translation": [
                -0.300000011920929,
                0.300000011920929,
                0.809999883174896
            ],
            "rotation": [
                0.0,
                0.0,
                0.0,
                1.0
            ],
            "scale": [
                1.0,
                1.0,
                1.0
            ],
            "mesh": 3
        },
        {
            "name": "body",
            "translation": [
                0.0,
                0.150000005960464,
                -0.0249999985098839
            ],
            "rotation": [
                0.0,
                0.0,
                0.0,
                1.0
            ],
            "scale": [
                1.0,
                1.0,
                1.0
            ],
            "mesh": 4
        }
    ]
}