{
    "asset": {
        "generator": "FBX2glTF",
        "version": "2.0"
    },
    "scene": 0,
    "buffers": [
        {
            "byteLength": 21912,
            "uri": "buffer.bin"
        }
    ],
    "bufferViews": [
        {
            "buffer": 0,
            "byteLength": 1464,
            "byteOffset": 0,
            "target": 34963
        },
        {
            "buffer": 0,
            "byteLength": 3312,
            "byteOffset": 1464,
            "target": 34962
        },
        {
            "buffer": 0,
            "byteLength": 3312,
            "byteOffset": 4776,
            "target": 34962
        },
        {
            "buffer": 0,
            "byteLength": 4416,
            "byteOffset": 8088,
            "target": 34962
        },
        {
            "buffer": 0,
            "byteLength": 2208,
            "byteOffset": 12504,
            "target": 34962
        },
        {
            "buffer": 0,
            "byteLength": 360,
            "byteOffset": 14712,
            "target": 34963
        },
        {
            "buffer": 0,
            "byteLength": 1404,
            "byteOffset": 15072,
            "target": 34962
        },
        {
            "buffer": 0,
            "byteLength": 1404,
            "byteOffset": 16476,
            "target": 34962
        },
        {
            "buffer": 0,
            "byteLength": 1872,
            "byteOffset": 17880,
            "target": 34962
        },
        {
            "buffer": 0,
            "byteLength": 936,
            "byteOffset": 19752,
            "target": 34962
        },
        {
            "buffer": 0,
            "byteLength": 72,
            "byteOffset": 20688,
            "target": 34963
        },
        {
            "buffer": 0,
            "byteLength": 288,
            "byteOffset": 20760,
            "target": 34962
        },
        {
            "buffer": 0,
            "byteLength": 288,
            "byteOffset": 21048,
            "target": 34962
        },
        {
            "buffer": 0,
            "byteLength": 384,
            "byteOffset": 21336,
            "target": 34962
        },
        {
            "buffer": 0,
            "byteLength": 192,
            "byteOffset": 21720,
            "target": 34962
        }
    ],
    "scenes": [
        {
            "name": "Root Scene",
            "nodes": [
                0
            ]
        }
    ],
    "accessors": [
        {
            "componentType": 5123,
            "type": "SCALAR",
            "count": 732,
            "bufferView": 0,
            "byteOffset": 0
        },
        {
            "componentType": 5126,
            "type": "VEC3",
            "count": 276,
            "bufferView": 1,
            "byteOffset": 0,
            "min": [
                -0.111594304442406,
                0.0,
                -0.128858000040054
            ],
            "max": [
                0.111594304442406,
                0.618873476982117,
                0.128858000040054
            ]
        },
        {
            "componentType": 5126,
            "type": "VEC3",
            "count": 276,
            "bufferView": 2,
            "byteOffset": 0
        },
        {
            "componentType": 5126,
            "type": "VEC4",
            "count": 276,
            "bufferView": 3,
            "byteOffset": 0
        },
        {
            "componentType": 5126,
            "type": "VEC2",
            "count": 276,
            "bufferView": 4,
            "byteOffset": 0
        },
        {
            "componentType": 5123,
            "type": "SCALAR",
            "count": 180,
            "bufferView": 5,
            "byteOffset": 0
        },
        {
            "componentType": 5126,
            "type": "VEC3",
            "count": 117,
            "bufferView": 6,
            "byteOffset": 0,
            "min": [
                -0.0799999982118607,
                -3.60955705403911e-16,
                -7.21911410807822e-16
            ],
            "max": [
                0.0,
                0.159999996423721,
                0.0799999982118607
            ]
        },
        {
            "componentType": 5126,
            "type": "VEC3",
            "count": 117,
            "bufferView": 7,
            "byteOffset": 0
        },
        {
            "componentType": 5126,
            "type": "VEC4",
            "count": 117,
            "bufferView": 8,
            "byteOffset": 0
        },
        {
            "componentType": 5126,
            "type": "VEC2",
            "count": 117,
            "bufferView": 9,
            "byteOffset": 0
        },
        {
            "componentType": 5123,
            "type": "SCALAR",
            "count": 36,
            "bufferView": 10,
            "byteOffset": 0
        },
        {
            "componentType": 5126,
            "type": "VEC3",
            "count": 24,
            "bufferView": 11,
            "byteOffset": 0,
            "min": [
                -0.0299999993294477,
                0.0,
                0.0
            ],
            "max": [
                0.0,
                0.189999997615814,
                0.0299999993294477
            ]
        },
        {
            "componentType": 5126,
            "type": "VEC3",
            "count": 24,
            "bufferView": 12,
            "byteOffset": 0
        },
        {
            "componentType": 5126,
            "type": "VEC4",
            "count": 24,
            "bufferView": 13,
            "byteOffset": 0
        },
        {
            "componentType": 5126,
            "type": "VEC2",
            "count": 24,
            "bufferView": 14,
            "byteOffset": 0
        }
    ],
    "images": [
        {
            "name": "colormap.png",
            "uri": "colormap.png"
        }
    ],
    "samplers": [
        {}
    ],
    "textures": [
        {
            "name": "DiffuseColor_Texture",
            "sampler": 0,
            "source": 0
        }
    ],
    "materials": [
        {
            "name": "colormap",
            "alphaMode": "OPAQUE",
            "extras": {
                "fromFBX": {
                    "shadingModel": "Lambert",
                    "isTruePBR": false
                }
            },
            "pbrMetallicRoughness": {
                "baseColorTexture": {
                    "index": 0,
                    "texCoord": 0
                },
                "baseColorFactor": [
                    1.0,
                    1.0,
                    1.0,
                    1.0
                ],
                "metallicFactor": 0.200000002980232,
                "roughnessFactor": 0.800000011920929
            }
        }
    ],
    "meshes": [
        {
            "name": "sundae",
            "primitives": [
                {
                    "material": 0,
                    "mode": 4,
                    "attributes": {
                        "NORMAL": 2,
                        "POSITION": 1,
                        "TANGENT": 3,
                        "TEXCOORD_0": 4
                    },
                    "indices": 0
                }
            ]
        },
        {
            "name": "cherry",
            "primitives": [
                {
                    "material": 0,
                    "mode": 4,
                    "attributes": {
                        "NORMAL": 7,
                        "POSITION": 6,
                        "TANGENT": 8,
                        "TEXCOORD_0": 9
                    },
                    "indices": 5
                }
            ]
        },
        {
            "name": "straw",
            "primitives": [
                {
                    "material": 0,
                    "mode": 4,
                    "attributes": {
                        "NORMAL": 12,
                        "POSITION": 11,
                        "TANGENT": 13,
                        "TEXCOORD_0": 14
                    },
                    "indices": 10
                }
            ]
        }
    ],
    "nodes": [
        {
            "name": "RootNode",
            "translation": [
                0.0,
                0.0,
                0.0
            ],
            "rotation": [
                0.0,
                0.0,
                0.0,
                1.0
            ],
            "scale": [
                1.0,
                1.0,
                1.0
            ],
            "children": [
                1
            ]
        },
        {
            "name": "sundae",
            "translation": [
                0.0,
                0.0,
                0.0
            ],
            "rotation": [
                0.0,
                0.0,
                0.0,
                1.0
            ],
            "scale": [
                1.0,
                1.0,
                1.0
            ],
            "children": [
                2,
                3
            ],
            "mesh": 0
        },
        {
            "name": "cherry",
            "translation": [
                0.0486795641481876,
                0.54496043920517,
                -0.0423645861446857
            ],
            "rotation": [
                -0.258819043636322,
                -0.0,
                0.0,
                0.965925812721252
            ],
            "scale": [
                0.622439980506897,
                0.622439980506897,
                0.622439980506897
            ],
            "mesh": 1
        },
        {
            "name": "straw",
            "translation": [
                0.0191576406359673,
                0.560788750648499,
                0.029442023485899
            ],
            "rotation": [
                0.130526199936867,
                0.0,
                0.0,
                0.991444885730743
            ],
            "scale": [
                0.432249993085861,
                0.583537518978119,
                0.432250022888184
            ],
            "mesh": 2
        }
    ]
}