{
    "asset": {
        "generator": "FBX2glTF",
        "version": "2.0"
    },
    "scene": 0,
    "buffers": [
        {
            "byteLength": 1492,
            "uri": "buffer.bin"
        }
    ],
    "bufferViews": [
        {
            "buffer": 0,
            "byteLength": 30,
            "byteOffset": 0,
            "target": 34963
        },
        {
            "buffer": 0,
            "byteLength": 84,
            "byteOffset": 32,
            "target": 34962
        },
        {
            "buffer": 0,
            "byteLength": 84,
            "byteOffset": 116,
            "target": 34962
        },
        {
            "buffer": 0,
            "byteLength": 56,
            "byteOffset": 200,
            "target": 34962
        },
        {
            "buffer": 0,
            "byteLength": 114,
            "byteOffset": 256,
            "target": 34963
        },
        {
            "buffer": 0,
            "byteLength": 420,
            "byteOffset": 372,
            "target": 34962
        },
        {
            "buffer": 0,
            "byteLength": 420,
            "byteOffset": 792,
            "target": 34962
        },
        {
            "buffer": 0,
            "byteLength": 280,
            "byteOffset": 1212,
            "target": 34962
        }
    ],
    "scenes": [
        {
            "name": "Root Scene",
            "nodes": [
                0
            ]
        }
    ],
    "accessors": [
        {
            "componentType": 5123,
            "type": "SCALAR",
            "count": 15,
            "bufferView": 0,
            "byteOffset": 0
        },
        {
            "componentType": 5126,
            "type": "VEC3",
            "count": 7,
            "bufferView": 1,
            "byteOffset": 0,
            "min": [
                -0.00848891958594322,
                0.0176791995763779,
                -0.00848891958594322
            ],
            "max": [
                0.00848891958594322,
                0.0176791995763779,
                0.00848891958594322
            ]
        },
        {
            "componentType": 5126,
            "type": "VEC3",
            "count": 7,
            "bufferView": 2,
            "byteOffset": 0
        },
        {
            "componentType": 5126,
            "type": "VEC2",
            "count": 7,
            "bufferView": 3,
            "byteOffset": 0
        },
        {
            "componentType": 5123,
            "type": "SCALAR",
            "count": 57,
            "bufferView": 4,
            "byteOffset": 0
        },
        {
            "componentType": 5126,
            "type": "VEC3",
            "count": 35,
            "bufferView": 5,
            "byteOffset": 0,
            "min": [
                -0.0180399995297194,
                1.12798701365704e-18,
                -0.0180399995297194
            ],
            "max": [
                0.0180399995297194,
                0.0176791995763779,
                0.0180399995297194
            ]
        },
        {
            "componentType": 5126,
            "type": "VEC3",
            "count": 35,
            "bufferView": 6,
            "byteOffset": 0
        },
        {
            "componentType": 5126,
            "type": "VEC2",
            "count": 35,
            "bufferView": 7,
            "byteOffset": 0
        }
    ],
    "samplers": [
        {}
    ],
    "materials": [
        {
            "name": "grass",
            "alphaMode": "OPAQUE",
            "extras": {
                "fromFBX": {
                    "shadingModel": "Phong",
                    "isTruePBR": false
                }
            },
            "pbrMetallicRoughness": {
                "baseColorFactor": [
                    0.172548994421959,
                    0.847058773040771,
                    0.721568584442139,
                    1.0
                ],
                "metallicFactor": 0.400000005960464,
                "roughnessFactor": 1.0
            }
        },
        {
            "name": "dirt",
            "alphaMode": "OPAQUE",
            "extras": {
                "fromFBX": {
                    "shadingModel": "Phong",
                    "isTruePBR": false
                }
            },
            "pbrMetallicRoughness": {
                "baseColorFactor": [
                    0.886274516582489,
                    0.513725519180298,
                    0.341176509857178,
                    1.0
                ],
                "metallicFactor": 0.400000005960464,
                "roughnessFactor": 1.0
            }
        }
    ],
    "meshes": [
        {
            "name": "rock_smallB",
            "primitives": [
                {
                    "material": 0,
                    "mode": 4,
                    "attributes": {
                        "NORMAL": 2,
                        "POSITION": 1,
                        "TEXCOORD_0": 3
                    },
                    "indices": 0
                },
                {
                    "material": 1,
                    "mode": 4,
                    "attributes": {
                        "NORMAL": 6,
                        "POSITION": 5,
                        "TEXCOORD_0": 7
                    },
                    "indices": 4
                }
            ]
        }
    ],
    "nodes": [
        {
            "name": "RootNode",
            "translation": [
                0.0,
                0.0,
                0.0
            ],
            "rotation": [
                0.0,
                0.0,
                0.0,
                1.0
            ],
            "scale": [
                1.0,
                1.0,
                1.0
            ],
            "children": [
                1
            ]
        },
        {
            "name": "rock_smallB",
            "translation": [
                0.0,
                -0.0499999970197678,
                0.0
            ],
            "rotation": [
                0.0,
                0.0,
                0.0,
                1.0
            ],
            "scale": [
                10.0,
                10.0,
                10.0
            ],
            "mesh": 0
        }
    ]
}