{
    "asset": {
        "generator": "FBX2glTF",
        "version": "2.0"
    },
    "scene": 0,
    "buffers": [
        {
            "byteLength": 3104,
            "uri": "buffer.bin"
        }
    ],
    "bufferViews": [
        {
            "buffer": 0,
            "byteLength": 150,
            "byteOffset": 0,
            "target": 34963
        },
        {
            "buffer": 0,
            "byteLength": 540,
            "byteOffset": 152,
            "target": 34962
        },
        {
            "buffer": 0,
            "byteLength": 540,
            "byteOffset": 692,
            "target": 34962
        },
        {
            "buffer": 0,
            "byteLength": 360,
            "byteOffset": 1232,
            "target": 34962
        },
        {
            "buffer": 0,
            "byteLength": 168,
            "byteOffset": 1592,
            "target": 34963
        },
        {
            "buffer": 0,
            "byteLength": 504,
            "byteOffset": 1760,
            "target": 34962
        },
        {
            "buffer": 0,
            "byteLength": 504,
            "byteOffset": 2264,
            "target": 34962
        },
        {
            "buffer": 0,
            "byteLength": 336,
            "byteOffset": 2768,
            "target": 34962
        }
    ],
    "scenes": [
        {
            "name": "Root Scene",
            "nodes": [
                0
            ]
        }
    ],
    "accessors": [
        {
            "componentType": 5123,
            "type": "SCALAR",
            "count": 75,
            "bufferView": 0,
            "byteOffset": 0
        },
        {
            "componentType": 5126,
            "type": "VEC3",
            "count": 45,
            "bufferView": 1,
            "byteOffset": 0,
            "min": [
                -0.0499999970197678,
                -2.70716792287823e-17,
                -0.0499999970197678
            ],
            "max": [
                0.0499999970197678,
                0.0499999970197678,
                -0.0081499982625246
            ]
        },
        {
            "componentType": 5126,
            "type": "VEC3",
            "count": 45,
            "bufferView": 2,
            "byteOffset": 0
        },
        {
            "componentType": 5126,
            "type": "VEC2",
            "count": 45,
            "bufferView": 3,
            "byteOffset": 0
        },
        {
            "componentType": 5123,
            "type": "SCALAR",
            "count": 84,
            "bufferView": 4,
            "byteOffset": 0
        },
        {
            "componentType": 5126,
            "type": "VEC3",
            "count": 42,
            "bufferView": 5,
            "byteOffset": 0,
            "min": [
                -0.0499999970197678,
                0.0399999991059303,
                -0.0499999970197678
            ],
            "max": [
                0.0499999970197678,
                0.0499999970197678,
                -0.0231500007212162
            ]
        },
        {
            "componentType": 5126,
            "type": "VEC3",
            "count": 42,
            "bufferView": 6,
            "byteOffset": 0
        },
        {
            "componentType": 5126,
            "type": "VEC2",
            "count": 42,
            "bufferView": 7,
            "byteOffset": 0
        }
    ],
    "samplers": [
        {}
    ],
    "materials": [
        {
            "name": "dirt",
            "alphaMode": "OPAQUE",
            "extras": {
                "fromFBX": {
                    "shadingModel": "Phong",
                    "isTruePBR": false
                }
            },
            "pbrMetallicRoughness": {
                "baseColorFactor": [
                    0.886274516582489,
                    0.513725519180298,
                    0.341176509857178,
                    1.0
                ],
                "metallicFactor": 0.400000005960464,
                "roughnessFactor": 1.0
            }
        },
        {
            "name": "grass",
            "alphaMode": "OPAQUE",
            "extras": {
                "fromFBX": {
                    "shadingModel": "Phong",
                    "isTruePBR": false
                }
            },
            "pbrMetallicRoughness": {
                "baseColorFactor": [
                    0.172548994421959,
                    0.847058773040771,
                    0.721568584442139,
                    1.0
                ],
                "metallicFactor": 0.400000005960464,
                "roughnessFactor": 1.0
            }
        }
    ],
    "meshes": [
        {
            "name": "cliff_half_rock",
            "primitives": [
                {
                    "material": 0,
                    "mode": 4,
                    "attributes": {
                        "NORMAL": 2,
                        "POSITION": 1,
                        "TEXCOORD_0": 3
                    },
                    "indices": 0
                },
                {
                    "material": 1,
                    "mode": 4,
                    "attributes": {
                        "NORMAL": 6,
                        "POSITION": 5,
                        "TEXCOORD_0": 7
                    },
                    "indices": 4
                }
            ]
        }
    ],
    "nodes": [
        {
            "name": "RootNode",
            "translation": [
                0.0,
                0.0,
                0.0
            ],
            "rotation": [
                0.0,
                0.0,
                0.0,
                1.0
            ],
            "scale": [
                1.0,
                1.0,
                1.0
            ],
            "children": [
                1
            ]
        },
        {
            "name": "cliff_half_rock",
            "translation": [
                0.0,
                -0.0499999970197678,
                0.0
            ],
            "rotation": [
                0.0,
                0.0,
                0.0,
                1.0
            ],
            "scale": [
                10.0,
                10.0,
                10.0
            ],
            "mesh": 0
        }
    ]
}