{
    "asset": {
        "generator": "FBX2glTF",
        "version": "2.0"
    },
    "scene": 0,
    "buffers": [
        {
            "byteLength": 18552,
            "uri": "buffer.bin"
        }
    ],
    "bufferViews": [
        {
            "buffer": 0,
            "byteLength": 552,
            "byteOffset": 0,
            "target": 34963
        },
        {
            "buffer": 0,
            "byteLength": 1584,
            "byteOffset": 552,
            "target": 34962
        },
        {
            "buffer": 0,
            "byteLength": 1584,
            "byteOffset": 2136,
            "target": 34962
        },
        {
            "buffer": 0,
            "byteLength": 2112,
            "byteOffset": 3720,
            "target": 34962
        },
        {
            "buffer": 0,
            "byteLength": 1056,
            "byteOffset": 5832,
            "target": 34962
        },
        {
            "buffer": 0,
            "byteLength": 360,
            "byteOffset": 6888,
            "target": 34963
        },
        {
            "buffer": 0,
            "byteLength": 1440,
            "byteOffset": 7248,
            "target": 34962
        },
        {
            "buffer": 0,
            "byteLength": 1440,
            "byteOffset": 8688,
            "target": 34962
        },
        {
            "buffer": 0,
            "byteLength": 1920,
            "byteOffset": 10128,
            "target": 34962
        },
        {
            "buffer": 0,
            "byteLength": 960,
            "byteOffset": 12048,
            "target": 34962
        },
        {
            "buffer": 0,
            "byteLength": 312,
            "byteOffset": 13008,
            "target": 34963
        },
        {
            "buffer": 0,
            "byteLength": 1308,
            "byteOffset": 13320,
            "target": 34962
        },
        {
            "buffer": 0,
            "byteLength": 1308,
            "byteOffset": 14628,
            "target": 34962
        },
        {
            "buffer": 0,
            "byteLength": 1744,
            "byteOffset": 15936,
            "target": 34962
        },
        {
            "buffer": 0,
            "byteLength": 872,
            "byteOffset": 17680,
            "target": 34962
        }
    ],
    "scenes": [
        {
            "name": "Root Scene",
            "nodes": [
                0
            ]
        }
    ],
    "accessors": [
        {
            "componentType": 5123,
            "type": "SCALAR",
            "count": 276,
            "bufferView": 0,
            "byteOffset": 0
        },
        {
            "componentType": 5126,
            "type": "VEC3",
            "count": 132,
            "bufferView": 1,
            "byteOffset": 0,
            "min": [
                -0.177581384778023,
                0.0,
                -0.15378999710083
            ],
            "max": [
                0.177581384778023,
                0.178599998354912,
                0.15378999710083
            ]
        },
        {
            "componentType": 5126,
            "type": "VEC3",
            "count": 132,
            "bufferView": 2,
            "byteOffset": 0
        },
        {
            "componentType": 5126,
            "type": "VEC4",
            "count": 132,
            "bufferView": 3,
            "byteOffset": 0
        },
        {
            "componentType": 5126,
            "type": "VEC2",
            "count": 132,
            "bufferView": 4,
            "byteOffset": 0
        },
        {
            "componentType": 5123,
            "type": "SCALAR",
            "count": 180,
            "bufferView": 5,
            "byteOffset": 0
        },
        {
            "componentType": 5126,
            "type": "VEC3",
            "count": 120,
            "bufferView": 6,
            "byteOffset": 0,
            "min": [
                -0.0288000013679266,
                0.0,
                -0.0288000013679266
            ],
            "max": [
                0.0288000013679266,
                0.115200005471706,
                0.0288000013679266
            ]
        },
        {
            "componentType": 5126,
            "type": "VEC3",
            "count": 120,
            "bufferView": 7,
            "byteOffset": 0
        },
        {
            "componentType": 5126,
            "type": "VEC4",
            "count": 120,
            "bufferView": 8,
            "byteOffset": 0
        },
        {
            "componentType": 5126,
            "type": "VEC2",
            "count": 120,
            "bufferView": 9,
            "byteOffset": 0
        },
        {
            "componentType": 5123,
            "type": "SCALAR",
            "count": 156,
            "bufferView": 10,
            "byteOffset": 0
        },
        {
            "componentType": 5126,
            "type": "VEC3",
            "count": 109,
            "bufferView": 11,
            "byteOffset": 0,
            "min": [
                -0.152358397841454,
                0.0,
                -0.131946235895157
            ],
            "max": [
                0.152358397841454,
                0.129999995231628,
                0.131946235895157
            ]
        },
        {
            "componentType": 5126,
            "type": "VEC3",
            "count": 109,
            "bufferView": 12,
            "byteOffset": 0
        },
        {
            "componentType": 5126,
            "type": "VEC4",
            "count": 109,
            "bufferView": 13,
            "byteOffset": 0
        },
        {
            "componentType": 5126,
            "type": "VEC2",
            "count": 109,
            "bufferView": 14,
            "byteOffset": 0
        }
    ],
    "images": [
        {
            "name": "colormap.png",
            "uri": "colormap.png"
        }
    ],
    "samplers": [
        {}
    ],
    "textures": [
        {
            "name": "DiffuseColor_Texture",
            "sampler": 0,
            "source": 0
        }
    ],
    "materials": [
        {
            "name": "colormap",
            "alphaMode": "OPAQUE",
            "extras": {
                "fromFBX": {
                    "shadingModel": "Lambert",
                    "isTruePBR": false
                }
            },
            "pbrMetallicRoughness": {
                "baseColorTexture": {
                    "index": 0,
                    "texCoord": 0
                },
                "baseColorFactor": [
                    1.0,
                    1.0,
                    1.0,
                    1.0
                ],
                "metallicFactor": 0.200000002980232,
                "roughnessFactor": 0.800000011920929
            }
        }
    ],
    "meshes": [
        {
            "name": "cupcake",
            "primitives": [
                {
                    "material": 0,
                    "mode": 4,
                    "attributes": {
                        "NORMAL": 2,
                        "POSITION": 1,
                        "TANGENT": 3,
                        "TEXCOORD_0": 4
                    },
                    "indices": 0
                }
            ]
        },
        {
            "name": "cherry",
            "primitives": [
                {
                    "material": 0,
                    "mode": 4,
                    "attributes": {
                        "NORMAL": 7,
                        "POSITION": 6,
                        "TANGENT": 8,
                        "TEXCOORD_0": 9
                    },
                    "indices": 5
                }
            ]
        },
        {
            "name": "cake",
            "primitives": [
                {
                    "material": 0,
                    "mode": 4,
                    "attributes": {
                        "NORMAL": 12,
                        "POSITION": 11,
                        "TANGENT": 13,
                        "TEXCOORD_0": 14
                    },
                    "indices": 10
                }
            ]
        }
    ],
    "nodes": [
        {
            "name": "RootNode",
            "translation": [
                0.0,
                0.0,
                0.0
            ],
            "rotation": [
                0.0,
                0.0,
                0.0,
                1.0
            ],
            "scale": [
                1.0,
                1.0,
                1.0
            ],
            "children": [
                1
            ]
        },
        {
            "name": "cupcake",
            "translation": [
                0.0,
                0.0,
                0.0
            ],
            "rotation": [
                0.0,
                0.0,
                0.0,
                1.0
            ],
            "scale": [
                1.0,
                1.0,
                1.0
            ],
            "children": [
                2,
                3
            ],
            "mesh": 0
        },
        {
            "name": "cherry",
            "translation": [
                5.41433518401197e-16,
                0.308600008487701,
                1.30846430966645e-15
            ],
            "rotation": [
                0.0,
                0.0,
                0.0,
                1.0
            ],
            "scale": [
                1.0,
                1.0,
                1.0
            ],
            "mesh": 1
        },
        {
            "name": "cake",
            "translation": [
                -1.80477852701956e-16,
                0.178599998354912,
                1.84989793394676e-15
            ],
            "rotation": [
                0.0,
                0.0,
                0.0,
                1.0
            ],
            "scale": [
                1.0,
                1.0,
                1.0
            ],
            "mesh": 2
        }
    ]
}