{
    "asset": {
        "generator": "FBX2glTF",
        "version": "2.0"
    },
    "scene": 0,
    "buffers": [
        {
            "byteLength": 178836,
            "uri": "buffer.bin"
        }
    ],
    "bufferViews": [
        {
            "buffer": 0,
            "byteLength": 2568,
            "byteOffset": 0,
            "target": 34963
        },
        {
            "buffer": 0,
            "byteLength": 7860,
            "byteOffset": 2568,
            "target": 34962
        },
        {
            "buffer": 0,
            "byteLength": 7860,
            "byteOffset": 10428,
            "target": 34962
        },
        {
            "buffer": 0,
            "byteLength": 10480,
            "byteOffset": 18288,
            "target": 34962
        },
        {
            "buffer": 0,
            "byteLength": 5240,
            "byteOffset": 28768,
            "target": 34962
        },
        {
            "buffer": 0,
            "byteLength": 1992,
            "byteOffset": 34008,
            "target": 34963
        },
        {
            "buffer": 0,
            "byteLength": 6000,
            "byteOffset": 36000,
            "target": 34962
        },
        {
            "buffer": 0,
            "byteLength": 6000,
            "byteOffset": 42000,
            "target": 34962
        },
        {
            "buffer": 0,
            "byteLength": 8000,
            "byteOffset": 48000,
            "target": 34962
        },
        {
            "buffer": 0,
            "byteLength": 4000,
            "byteOffset": 56000,
            "target": 34962
        },
        {
            "buffer": 0,
            "byteLength": 1992,
            "byteOffset": 60000,
            "target": 34963
        },
        {
            "buffer": 0,
            "byteLength": 5976,
            "byteOffset": 61992,
            "target": 34962
        },
        {
            "buffer": 0,
            "byteLength": 5976,
            "byteOffset": 67968,
            "target": 34962
        },
        {
            "buffer": 0,
            "byteLength": 7968,
            "byteOffset": 73944,
            "target": 34962
        },
        {
            "buffer": 0,
            "byteLength": 3984,
            "byteOffset": 81912,
            "target": 34962
        },
        {
            "buffer": 0,
            "byteLength": 3276,
            "byteOffset": 85896,
            "target": 34963
        },
        {
            "buffer": 0,
            "byteLength": 9888,
            "byteOffset": 89172,
            "target": 34962
        },
        {
            "buffer": 0,
            "byteLength": 9888,
            "byteOffset": 99060,
            "target": 34962
        },
        {
            "buffer": 0,
            "byteLength": 13184,
            "byteOffset": 108948,
            "target": 34962
        },
        {
            "buffer": 0,
            "byteLength": 6592,
            "byteOffset": 122132,
            "target": 34962
        },
        {
            "buffer": 0,
            "byteLength": 1272,
            "byteOffset": 128724,
            "target": 34963
        },
        {
            "buffer": 0,
            "byteLength": 3720,
            "byteOffset": 129996,
            "target": 34962
        },
        {
            "buffer": 0,
            "byteLength": 3720,
            "byteOffset": 133716,
            "target": 34962
        },
        {
            "buffer": 0,
            "byteLength": 4960,
            "byteOffset": 137436,
            "target": 34962
        },
        {
            "buffer": 0,
            "byteLength": 2480,
            "byteOffset": 142396,
            "target": 34962
        },
        {
            "buffer": 0,
            "byteLength": 2568,
            "byteOffset": 144876,
            "target": 34963
        },
        {
            "buffer": 0,
            "byteLength": 7848,
            "byteOffset": 147444,
            "target": 34962
        },
        {
            "buffer": 0,
            "byteLength": 7848,
            "byteOffset": 155292,
            "target": 34962
        },
        {
            "buffer": 0,
            "byteLength": 10464,
            "byteOffset": 163140,
            "target": 34962
        },
        {
            "buffer": 0,
            "byteLength": 5232,
            "byteOffset": 173604,
            "target": 34962
        }
    ],
    "scenes": [
        {
            "name": "Root Scene",
            "nodes": [
                0
            ]
        }
    ],
    "accessors": [
        {
            "componentType": 5123,
            "type": "SCALAR",
            "count": 1284,
            "bufferView": 0,
            "byteOffset": 0
        },
        {
            "componentType": 5126,
            "type": "VEC3",
            "count": 655,
            "bufferView": 1,
            "byteOffset": 0,
            "min": [
                -0.411558270454407,
                -0.525510847568512,
                -0.525510847568512
            ],
            "max": [
                0.0,
                0.525510847568512,
                0.525510847568512
            ]
        },
        {
            "componentType": 5126,
            "type": "VEC3",
            "count": 655,
            "bufferView": 2,
            "byteOffset": 0
        },
        {
            "componentType": 5126,
            "type": "VEC4",
            "count": 655,
            "bufferView": 3,
            "byteOffset": 0
        },
        {
            "componentType": 5126,
            "type": "VEC2",
            "count": 655,
            "bufferView": 4,
            "byteOffset": 0
        },
        {
            "componentType": 5123,
            "type": "SCALAR",
            "count": 996,
            "bufferView": 5,
            "byteOffset": 0
        },
        {
            "componentType": 5126,
            "type": "VEC3",
            "count": 500,
            "bufferView": 6,
            "byteOffset": 0,
            "min": [
                0.0,
                -0.325640290975571,
                -0.325640290975571
            ],
            "max": [
                0.299105316400528,
                0.325640290975571,
                0.325640290975571
            ]
        },
        {
            "componentType": 5126,
            "type": "VEC3",
            "count": 500,
            "bufferView": 7,
            "byteOffset": 0
        },
        {
            "componentType": 5126,
            "type": "VEC4",
            "count": 500,
            "bufferView": 8,
            "byteOffset": 0
        },
        {
            "componentType": 5126,
            "type": "VEC2",
            "count": 500,
            "bufferView": 9,
            "byteOffset": 0
        },
        {
            "componentType": 5123,
            "type": "SCALAR",
            "count": 996,
            "bufferView": 10,
            "byteOffset": 0
        },
        {
            "componentType": 5126,
            "type": "VEC3",
            "count": 498,
            "bufferView": 11,
            "byteOffset": 0,
            "min": [
                -0.299105316400528,
                -0.325640290975571,
                -0.325640290975571
            ],
            "max": [
                0.0,
                0.325640290975571,
                0.325640290975571
            ]
        },
        {
            "componentType": 5126,
            "type": "VEC3",
            "count": 498,
            "bufferView": 12,
            "byteOffset": 0
        },
        {
            "componentType": 5126,
            "type": "VEC4",
            "count": 498,
            "bufferView": 13,
            "byteOffset": 0
        },
        {
            "componentType": 5126,
            "type": "VEC2",
            "count": 498,
            "bufferView": 14,
            "byteOffset": 0
        },
        {
            "componentType": 5123,
            "type": "SCALAR",
            "count": 1638,
            "bufferView": 15,
            "byteOffset": 0
        },
        {
            "componentType": 5126,
            "type": "VEC3",
            "count": 824,
            "bufferView": 16,
            "byteOffset": 0,
            "min": [
                -0.671038627624512,
                0.0,
                -1.04133629798889
            ],
            "max": [
                0.671038627624512,
                1.51374995708466,
                0.941336274147034
            ]
        },
        {
            "componentType": 5126,
            "type": "VEC3",
            "count": 824,
            "bufferView": 17,
            "byteOffset": 0
        },
        {
            "componentType": 5126,
            "type": "VEC4",
            "count": 824,
            "bufferView": 18,
            "byteOffset": 0
        },
        {
            "componentType": 5126,
            "type": "VEC2",
            "count": 824,
            "bufferView": 19,
            "byteOffset": 0
        },
        {
            "componentType": 5123,
            "type": "SCALAR",
            "count": 636,
            "bufferView": 20,
            "byteOffset": 0
        },
        {
            "componentType": 5126,
            "type": "VEC3",
            "count": 310,
            "bufferView": 21,
            "byteOffset": 0,
            "min": [
                -0.5,
                0.0,
                -0.150000005960464
            ],
            "max": [
                0.5,
                0.425772041082382,
                0.0499999970197678
            ]
        },
        {
            "componentType": 5126,
            "type": "VEC3",
            "count": 310,
            "bufferView": 22,
            "byteOffset": 0
        },
        {
            "componentType": 5126,
            "type": "VEC4",
            "count": 310,
            "bufferView": 23,
            "byteOffset": 0
        },
        {
            "componentType": 5126,
            "type": "VEC2",
            "count": 310,
            "bufferView": 24,
            "byteOffset": 0
        },
        {
            "componentType": 5123,
            "type": "SCALAR",
            "count": 1284,
            "bufferView": 25,
            "byteOffset": 0
        },
        {
            "componentType": 5126,
            "type": "VEC3",
            "count": 654,
            "bufferView": 26,
            "byteOffset": 0,
            "min": [
                0.0,
                -0.525510847568512,
                -0.525510847568512
            ],
            "max": [
                0.411558270454407,
                0.525510847568512,
                0.525510847568512
            ]
        },
        {
            "componentType": 5126,
            "type": "VEC3",
            "count": 654,
            "bufferView": 27,
            "byteOffset": 0
        },
        {
            "componentType": 5126,
            "type": "VEC4",
            "count": 654,
            "bufferView": 28,
            "byteOffset": 0
        },
        {
            "componentType": 5126,
            "type": "VEC2",
            "count": 654,
            "bufferView": 29,
            "byteOffset": 0
        }
    ],
    "images": [
        {
            "name": "colormap.png",
            "uri": "colormap.png"
        }
    ],
    "samplers": [
        {}
    ],
    "textures": [
        {
            "name": "DiffuseColor_Texture",
            "sampler": 0,
            "source": 0
        }
    ],
    "materials": [
        {
            "name": "colormap",
            "alphaMode": "OPAQUE",
            "extras": {
                "fromFBX": {
                    "shadingModel": "Lambert",
                    "isTruePBR": false
                }
            },
            "pbrMetallicRoughness": {
                "baseColorTexture": {
                    "index": 0,
                    "texCoord": 0
                },
                "baseColorFactor": [
                    1.0,
                    1.0,
                    1.0,
                    1.0
                ],
                "metallicFactor": 0.200000002980232,
                "roughnessFactor": 0.800000011920929
            }
        }
    ],
    "meshes": [
        {
            "name": "wheel-back-right",
            "primitives": [
                {
                    "material": 0,
                    "mode": 4,
                    "attributes": {
                        "NORMAL": 2,
                        "POSITION": 1,
                        "TANGENT": 3,
                        "TEXCOORD_0": 4
                    },
                    "indices": 0
                }
            ]
        },
        {
            "name": "wheel-front-left",
            "primitives": [
                {
                    "material": 0,
                    "mode": 4,
                    "attributes": {
                        "NORMAL": 7,
                        "POSITION": 6,
                        "TANGENT": 8,
                        "TEXCOORD_0": 9
                    },
                    "indices": 5
                }
            ]
        },
        {
            "name": "wheel-front-right",
            "primitives": [
                {
                    "material": 0,
                    "mode": 4,
                    "attributes": {
                        "NORMAL": 12,
                        "POSITION": 11,
                        "TANGENT": 13,
                        "TEXCOORD_0": 14
                    },
                    "indices": 10
                }
            ]
        },
        {
            "name": "body",
            "primitives": [
                {
                    "material": 0,
                    "mode": 4,
                    "attributes": {
                        "NORMAL": 17,
                        "POSITION": 16,
                        "TANGENT": 18,
                        "TEXCOORD_0": 19
                    },
                    "indices": 15
                }
            ]
        },
        {
            "name": "grill",
            "primitives": [
                {
                    "material": 0,
                    "mode": 4,
                    "attributes": {
                        "NORMAL": 22,
                        "POSITION": 21,
                        "TANGENT": 23,
                        "TEXCOORD_0": 24
                    },
                    "indices": 20
                }
            ]
        },
        {
            "name": "wheel-back-left",
            "primitives": [
                {
                    "material": 0,
                    "mode": 4,
                    "attributes": {
                        "NORMAL": 27,
                        "POSITION": 26,
                        "TANGENT": 28,
                        "TEXCOORD_0": 29
                    },
                    "indices": 25
                }
            ]
        }
    ],
    "nodes": [
        {
            "name": "RootNode",
            "translation": [
                0.0,
                0.0,
                0.0
            ],
            "rotation": [
                0.0,
                0.0,
                0.0,
                1.0
            ],
            "scale": [
                1.0,
                1.0,
                1.0
            ],
            "children": [
                1
            ]
        },
        {
            "name": "tractor-police",
            "translation": [
                0.0,
                0.0,
                0.0
            ],
            "rotation": [
                0.0,
                0.0,
                0.0,
                1.0
            ],
            "scale": [
                1.0,
                1.0,
                1.0
            ],
            "children": [
                2,
                3,
                4,
                5,
                7
            ]
        },
        {
            "name": "wheel-back-right",
            "translation": [
                -0.259480267763138,
                0.525510847568512,
                -0.575265467166901
            ],
            "rotation": [
                0.0,
                0.0,
                0.0,
                1.0
            ],
            "scale": [
                1.0,
                1.0,
                1.0
            ],
            "mesh": 0
        },
        {
            "name": "wheel-front-left",
            "translation": [
                0.265262991189957,
                0.325640290975571,
                0.730522811412811
            ],
            "rotation": [
                0.0,
                0.0,
                0.0,
                1.0
            ],
            "scale": [
                1.0,
                1.0,
                1.0
            ],
            "mesh": 1
        },
        {
            "name": "wheel-front-right",
            "translation": [
                -0.265262991189957,
                0.325640290975571,
                0.730522811412811
            ],
            "rotation": [
                0.0,
                0.0,
                0.0,
                1.0
            ],
            "scale": [
                1.0,
                1.0,
                1.0
            ],
            "mesh": 2
        },
        {
            "name": "body",
            "translation": [
                -3.7117102724693e-09,
                0.188303142786026,
                0.159440010786057
            ],
            "rotation": [
                0.0,
                0.0,
                0.0,
                1.0
            ],
            "scale": [
                1.0,
                1.0,
                1.0
            ],
            "children": [
                6
            ],
            "mesh": 3
        },
        {
            "name": "grill",
            "translation": [
                0.0,
                0.082749992609024,
                0.991336286067963
            ],
            "rotation": [
                0.0,
                0.0,
                0.0,
                1.0
            ],
            "scale": [
                1.0,
                1.0,
                1.0
            ],
            "mesh": 4
        },
        {
            "name": "wheel-back-left",
            "translation": [
                0.259480267763138,
                0.525510847568512,
                -0.575265467166901
            ],
            "rotation": [
                0.0,
                0.0,
                0.0,
                1.0
            ],
            "scale": [
                1.0,
                1.0,
                1.0
            ],
            "mesh": 5
        }
    ]
}