{
    "asset": {
        "generator": "FBX2glTF",
        "version": "2.0"
    },
    "scene": 0,
    "buffers": [
        {
            "byteLength": 4952,
            "uri": "buffer.bin"
        }
    ],
    "bufferViews": [
        {
            "buffer": 0,
            "byteLength": 342,
            "byteOffset": 0,
            "target": 34963
        },
        {
            "buffer": 0,
            "byteLength": 1284,
            "byteOffset": 344,
            "target": 34962
        },
        {
            "buffer": 0,
            "byteLength": 1284,
            "byteOffset": 1628,
            "target": 34962
        },
        {
            "buffer": 0,
            "byteLength": 856,
            "byteOffset": 2912,
            "target": 34962
        },
        {
            "buffer": 0,
            "byteLength": 102,
            "byteOffset": 3768,
            "target": 34963
        },
        {
            "buffer": 0,
            "byteLength": 276,
            "byteOffset": 3872,
            "target": 34962
        },
        {
            "buffer": 0,
            "byteLength": 276,
            "byteOffset": 4148,
            "target": 34962
        },
        {
            "buffer": 0,
            "byteLength": 184,
            "byteOffset": 4424,
            "target": 34962
        },
        {
            "buffer": 0,
            "byteLength": 24,
            "byteOffset": 4608,
            "target": 34963
        },
        {
            "buffer": 0,
            "byteLength": 120,
            "byteOffset": 4632,
            "target": 34962
        },
        {
            "buffer": 0,
            "byteLength": 120,
            "byteOffset": 4752,
            "target": 34962
        },
        {
            "buffer": 0,
            "byteLength": 80,
            "byteOffset": 4872,
            "target": 34962
        }
    ],
    "scenes": [
        {
            "name": "Root Scene",
            "nodes": [
                0
            ]
        }
    ],
    "accessors": [
        {
            "componentType": 5123,
            "type": "SCALAR",
            "count": 171,
            "bufferView": 0,
            "byteOffset": 0
        },
        {
            "componentType": 5126,
            "type": "VEC3",
            "count": 107,
            "bufferView": 1,
            "byteOffset": 0,
            "min": [
                -0.0287464987486601,
                0.0,
                -0.0331935994327068
            ],
            "max": [
                0.0287464987486601,
                0.0710776001214981,
                0.0331935994327068
            ]
        },
        {
            "componentType": 5126,
            "type": "VEC3",
            "count": 107,
            "bufferView": 2,
            "byteOffset": 0
        },
        {
            "componentType": 5126,
            "type": "VEC2",
            "count": 107,
            "bufferView": 3,
            "byteOffset": 0
        },
        {
            "componentType": 5123,
            "type": "SCALAR",
            "count": 51,
            "bufferView": 4,
            "byteOffset": 0
        },
        {
            "componentType": 5126,
            "type": "VEC3",
            "count": 23,
            "bufferView": 5,
            "byteOffset": 0,
            "min": [
                -0.0229972004890442,
                0.0202047992497683,
                -0.018310159444809
            ],
            "max": [
                0.0193176493048668,
                0.0710776001214981,
                0.0265548788011074
            ]
        },
        {
            "componentType": 5126,
            "type": "VEC3",
            "count": 23,
            "bufferView": 6,
            "byteOffset": 0
        },
        {
            "componentType": 5126,
            "type": "VEC2",
            "count": 23,
            "bufferView": 7,
            "byteOffset": 0
        },
        {
            "componentType": 5123,
            "type": "SCALAR",
            "count": 12,
            "bufferView": 8,
            "byteOffset": 0
        },
        {
            "componentType": 5126,
            "type": "VEC3",
            "count": 10,
            "bufferView": 9,
            "byteOffset": 0,
            "min": [
                -0.0287464987486601,
                0.0,
                -0.0331935994327068
            ],
            "max": [
                0.0287464987486601,
                0.0,
                0.0331935994327068
            ]
        },
        {
            "componentType": 5126,
            "type": "VEC3",
            "count": 10,
            "bufferView": 10,
            "byteOffset": 0
        },
        {
            "componentType": 5126,
            "type": "VEC2",
            "count": 10,
            "bufferView": 11,
            "byteOffset": 0
        }
    ],
    "samplers": [
        {}
    ],
    "materials": [
        {
            "name": "dirt",
            "alphaMode": "OPAQUE",
            "extras": {
                "fromFBX": {
                    "shadingModel": "Phong",
                    "isTruePBR": false
                }
            },
            "pbrMetallicRoughness": {
                "baseColorFactor": [
                    0.886274516582489,
                    0.513725519180298,
                    0.341176509857178,
                    1.0
                ],
                "metallicFactor": 0.400000005960464,
                "roughnessFactor": 1.0
            }
        },
        {
            "name": "grass",
            "alphaMode": "OPAQUE",
            "extras": {
                "fromFBX": {
                    "shadingModel": "Phong",
                    "isTruePBR": false
                }
            },
            "pbrMetallicRoughness": {
                "baseColorFactor": [
                    0.172548994421959,
                    0.847058773040771,
                    0.721568584442139,
                    1.0
                ],
                "metallicFactor": 0.400000005960464,
                "roughnessFactor": 1.0
            }
        },
        {
            "name": "_defaultMat",
            "alphaMode": "OPAQUE",
            "extras": {
                "fromFBX": {
                    "shadingModel": "Phong",
                    "isTruePBR": false
                }
            },
            "pbrMetallicRoughness": {
                "baseColorFactor": [
                    1.0,
                    1.0,
                    1.0,
                    1.0
                ],
                "metallicFactor": 0.400000005960464,
                "roughnessFactor": 1.0
            }
        }
    ],
    "meshes": [
        {
            "name": "rock_tallH",
            "primitives": [
                {
                    "material": 0,
                    "mode": 4,
                    "attributes": {
                        "NORMAL": 2,
                        "POSITION": 1,
                        "TEXCOORD_0": 3
                    },
                    "indices": 0
                },
                {
                    "material": 1,
                    "mode": 4,
                    "attributes": {
                        "NORMAL": 6,
                        "POSITION": 5,
                        "TEXCOORD_0": 7
                    },
                    "indices": 4
                },
                {
                    "material": 2,
                    "mode": 4,
                    "attributes": {
                        "NORMAL": 10,
                        "POSITION": 9,
                        "TEXCOORD_0": 11
                    },
                    "indices": 8
                }
            ]
        }
    ],
    "nodes": [
        {
            "name": "RootNode",
            "translation": [
                0.0,
                0.0,
                0.0
            ],
            "rotation": [
                0.0,
                0.0,
                0.0,
                1.0
            ],
            "scale": [
                1.0,
                1.0,
                1.0
            ],
            "children": [
                1
            ]
        },
        {
            "name": "rock_tallH",
            "translation": [
                0.0,
                -0.0499999970197678,
                0.0
            ],
            "rotation": [
                0.0,
                0.0,
                0.0,
                1.0
            ],
            "scale": [
                10.0,
                10.0,
                10.0
            ],
            "mesh": 0
        }
    ]
}