{
    "asset": {
        "generator": "FBX2glTF",
        "version": "2.0"
    },
    "scene": 0,
    "buffers": [
        {
            "byteLength": 180552,
            "uri": "buffer.bin"
        }
    ],
    "bufferViews": [
        {
            "buffer": 0,
            "byteLength": 4380,
            "byteOffset": 0,
            "target": 34963
        },
        {
            "buffer": 0,
            "byteLength": 11280,
            "byteOffset": 4380,
            "target": 34962
        },
        {
            "buffer": 0,
            "byteLength": 11280,
            "byteOffset": 15660,
            "target": 34962
        },
        {
            "buffer": 0,
            "byteLength": 15040,
            "byteOffset": 26940,
            "target": 34962
        },
        {
            "buffer": 0,
            "byteLength": 7520,
            "byteOffset": 41980,
            "target": 34962
        },
        {
            "buffer": 0,
            "byteLength": 204,
            "byteOffset": 49500,
            "target": 34963
        },
        {
            "buffer": 0,
            "byteLength": 624,
            "byteOffset": 49704,
            "target": 34962
        },
        {
            "buffer": 0,
            "byteLength": 624,
            "byteOffset": 50328,
            "target": 34962
        },
        {
            "buffer": 0,
            "byteLength": 832,
            "byteOffset": 50952,
            "target": 34962
        },
        {
            "buffer": 0,
            "byteLength": 416,
            "byteOffset": 51784,
            "target": 34962
        },
        {
            "buffer": 0,
            "byteLength": 2568,
            "byteOffset": 52200,
            "target": 34963
        },
        {
            "buffer": 0,
            "byteLength": 7380,
            "byteOffset": 54768,
            "target": 34962
        },
        {
            "buffer": 0,
            "byteLength": 7380,
            "byteOffset": 62148,
            "target": 34962
        },
        {
            "buffer": 0,
            "byteLength": 9840,
            "byteOffset": 69528,
            "target": 34962
        },
        {
            "buffer": 0,
            "byteLength": 4920,
            "byteOffset": 79368,
            "target": 34962
        },
        {
            "buffer": 0,
            "byteLength": 2568,
            "byteOffset": 84288,
            "target": 34963
        },
        {
            "buffer": 0,
            "byteLength": 7380,
            "byteOffset": 86856,
            "target": 34962
        },
        {
            "buffer": 0,
            "byteLength": 7380,
            "byteOffset": 94236,
            "target": 34962
        },
        {
            "buffer": 0,
            "byteLength": 9840,
            "byteOffset": 101616,
            "target": 34962
        },
        {
            "buffer": 0,
            "byteLength": 4920,
            "byteOffset": 111456,
            "target": 34962
        },
        {
            "buffer": 0,
            "byteLength": 2568,
            "byteOffset": 116376,
            "target": 34963
        },
        {
            "buffer": 0,
            "byteLength": 7380,
            "byteOffset": 118944,
            "target": 34962
        },
        {
            "buffer": 0,
            "byteLength": 7380,
            "byteOffset": 126324,
            "target": 34962
        },
        {
            "buffer": 0,
            "byteLength": 9840,
            "byteOffset": 133704,
            "target": 34962
        },
        {
            "buffer": 0,
            "byteLength": 4920,
            "byteOffset": 143544,
            "target": 34962
        },
        {
            "buffer": 0,
            "byteLength": 2568,
            "byteOffset": 148464,
            "target": 34963
        },
        {
            "buffer": 0,
            "byteLength": 7380,
            "byteOffset": 151032,
            "target": 34962
        },
        {
            "buffer": 0,
            "byteLength": 7380,
            "byteOffset": 158412,
            "target": 34962
        },
        {
            "buffer": 0,
            "byteLength": 9840,
            "byteOffset": 165792,
            "target": 34962
        },
        {
            "buffer": 0,
            "byteLength": 4920,
            "byteOffset": 175632,
            "target": 34962
        }
    ],
    "scenes": [
        {
            "name": "Root Scene",
            "nodes": [
                0
            ]
        }
    ],
    "accessors": [
        {
            "componentType": 5123,
            "type": "SCALAR",
            "count": 2190,
            "bufferView": 0,
            "byteOffset": 0
        },
        {
            "componentType": 5126,
            "type": "VEC3",
            "count": 940,
            "bufferView": 1,
            "byteOffset": 0,
            "min": [
                -0.75,
                0.0,
                -1.62499976158142
            ],
            "max": [
                0.75,
                1.49999976158142,
                1.62499976158142
            ]
        },
        {
            "componentType": 5126,
            "type": "VEC3",
            "count": 940,
            "bufferView": 2,
            "byteOffset": 0
        },
        {
            "componentType": 5126,
            "type": "VEC4",
            "count": 940,
            "bufferView": 3,
            "byteOffset": 0
        },
        {
            "componentType": 5126,
            "type": "VEC2",
            "count": 940,
            "bufferView": 4,
            "byteOffset": 0
        },
        {
            "componentType": 5123,
            "type": "SCALAR",
            "count": 102,
            "bufferView": 5,
            "byteOffset": 0
        },
        {
            "componentType": 5126,
            "type": "VEC3",
            "count": 52,
            "bufferView": 6,
            "byteOffset": 0,
            "min": [
                -0.550000011920929,
                -1.0,
                -0.116425223648548
            ],
            "max": [
                0.550000011920929,
                0.0,
                -0.0249999985098839
            ]
        },
        {
            "componentType": 5126,
            "type": "VEC3",
            "count": 52,
            "bufferView": 7,
            "byteOffset": 0
        },
        {
            "componentType": 5126,
            "type": "VEC4",
            "count": 52,
            "bufferView": 8,
            "byteOffset": 0
        },
        {
            "componentType": 5126,
            "type": "VEC2",
            "count": 52,
            "bufferView": 9,
            "byteOffset": 0
        },
        {
            "componentType": 5123,
            "type": "SCALAR",
            "count": 1284,
            "bufferView": 10,
            "byteOffset": 0
        },
        {
            "componentType": 5126,
            "type": "VEC3",
            "count": 615,
            "bufferView": 11,
            "byteOffset": 0,
            "min": [
                -6.56939373776602e-14,
                -0.300000011920929,
                -0.300000011920929
            ],
            "max": [
                0.300000101327896,
                0.300000011920929,
                0.300000011920929
            ]
        },
        {
            "componentType": 5126,
            "type": "VEC3",
            "count": 615,
            "bufferView": 12,
            "byteOffset": 0
        },
        {
            "componentType": 5126,
            "type": "VEC4",
            "count": 615,
            "bufferView": 13,
            "byteOffset": 0
        },
        {
            "componentType": 5126,
            "type": "VEC2",
            "count": 615,
            "bufferView": 14,
            "byteOffset": 0
        },
        {
            "componentType": 5123,
            "type": "SCALAR",
            "count": 1284,
            "bufferView": 15,
            "byteOffset": 0
        },
        {
            "componentType": 5126,
            "type": "VEC3",
            "count": 615,
            "bufferView": 16,
            "byteOffset": 0,
            "min": [
                -0.300000101327896,
                -0.300000011920929,
                -0.300000011920929
            ],
            "max": [
                1.40077565432412e-14,
                0.300000011920929,
                0.300000011920929
            ]
        },
        {
            "componentType": 5126,
            "type": "VEC3",
            "count": 615,
            "bufferView": 17,
            "byteOffset": 0
        },
        {
            "componentType": 5126,
            "type": "VEC4",
            "count": 615,
            "bufferView": 18,
            "byteOffset": 0
        },
        {
            "componentType": 5126,
            "type": "VEC2",
            "count": 615,
            "bufferView": 19,
            "byteOffset": 0
        },
        {
            "componentType": 5123,
            "type": "SCALAR",
            "count": 1284,
            "bufferView": 20,
            "byteOffset": 0
        },
        {
            "componentType": 5126,
            "type": "VEC3",
            "count": 615,
            "bufferView": 21,
            "byteOffset": 0,
            "min": [
                -6.56939373776602e-14,
                -0.300000011920929,
                -0.300000011920929
            ],
            "max": [
                0.300000101327896,
                0.300000011920929,
                0.300000011920929
            ]
        },
        {
            "componentType": 5126,
            "type": "VEC3",
            "count": 615,
            "bufferView": 22,
            "byteOffset": 0
        },
        {
            "componentType": 5126,
            "type": "VEC4",
            "count": 615,
            "bufferView": 23,
            "byteOffset": 0
        },
        {
            "componentType": 5126,
            "type": "VEC2",
            "count": 615,
            "bufferView": 24,
            "byteOffset": 0
        },
        {
            "componentType": 5123,
            "type": "SCALAR",
            "count": 1284,
            "bufferView": 25,
            "byteOffset": 0
        },
        {
            "componentType": 5126,
            "type": "VEC3",
            "count": 615,
            "bufferView": 26,
            "byteOffset": 0,
            "min": [
                -0.300000101327896,
                -0.300000011920929,
                -0.300000011920929
            ],
            "max": [
                1.40077565432412e-14,
                0.300000011920929,
                0.300000011920929
            ]
        },
        {
            "componentType": 5126,
            "type": "VEC3",
            "count": 615,
            "bufferView": 27,
            "byteOffset": 0
        },
        {
            "componentType": 5126,
            "type": "VEC4",
            "count": 615,
            "bufferView": 28,
            "byteOffset": 0
        },
        {
            "componentType": 5126,
            "type": "VEC2",
            "count": 615,
            "bufferView": 29,
            "byteOffset": 0
        }
    ],
    "images": [
        {
            "name": "colormap.png",
            "uri": "colormap.png"
        }
    ],
    "samplers": [
        {}
    ],
    "textures": [
        {
            "name": "DiffuseColor_Texture",
            "sampler": 0,
            "source": 0
        }
    ],
    "materials": [
        {
            "name": "colormap",
            "alphaMode": "OPAQUE",
            "extras": {
                "fromFBX": {
                    "shadingModel": "Lambert",
                    "isTruePBR": false
                }
            },
            "pbrMetallicRoughness": {
                "baseColorTexture": {
                    "index": 0,
                    "texCoord": 0
                },
                "baseColorFactor": [
                    1.0,
                    1.0,
                    1.0,
                    1.0
                ],
                "metallicFactor": 0.200000002980232,
                "roughnessFactor": 0.800000011920929
            }
        }
    ],
    "meshes": [
        {
            "name": "body",
            "primitives": [
                {
                    "material": 0,
                    "mode": 4,
                    "attributes": {
                        "NORMAL": 2,
                        "POSITION": 1,
                        "TANGENT": 3,
                        "TEXCOORD_0": 4
                    },
                    "indices": 0
                }
            ]
        },
        {
            "name": "door",
            "primitives": [
                {
                    "material": 0,
                    "mode": 4,
                    "attributes": {
                        "NORMAL": 7,
                        "POSITION": 6,
                        "TANGENT": 8,
                        "TEXCOORD_0": 9
                    },
                    "indices": 5
                }
            ]
        },
        {
            "name": "wheel-back-left",
            "primitives": [
                {
                    "material": 0,
                    "mode": 4,
                    "attributes": {
                        "NORMAL": 12,
                        "POSITION": 11,
                        "TANGENT": 13,
                        "TEXCOORD_0": 14
                    },
                    "indices": 10
                }
            ]
        },
        {
            "name": "wheel-back-right",
            "primitives": [
                {
                    "material": 0,
                    "mode": 4,
                    "attributes": {
                        "NORMAL": 17,
                        "POSITION": 16,
                        "TANGENT": 18,
                        "TEXCOORD_0": 19
                    },
                    "indices": 15
                }
            ]
        },
        {
            "name": "wheel-front-left",
            "primitives": [
                {
                    "material": 0,
                    "mode": 4,
                    "attributes": {
                        "NORMAL": 22,
                        "POSITION": 21,
                        "TANGENT": 23,
                        "TEXCOORD_0": 24
                    },
                    "indices": 20
                }
            ]
        },
        {
            "name": "wheel-front-right",
            "primitives": [
                {
                    "material": 0,
                    "mode": 4,
                    "attributes": {
                        "NORMAL": 27,
                        "POSITION": 26,
                        "TANGENT": 28,
                        "TEXCOORD_0": 29
                    },
                    "indices": 25
                }
            ]
        }
    ],
    "nodes": [
        {
            "name": "RootNode",
            "translation": [
                0.0,
                0.0,
                0.0
            ],
            "rotation": [
                0.0,
                0.0,
                0.0,
                1.0
            ],
            "scale": [
                1.0,
                1.0,
                1.0
            ],
            "children": [
                1
            ]
        },
        {
            "name": "delivery",
            "translation": [
                0.0,
                0.0,
                0.0
            ],
            "rotation": [
                0.0,
                0.0,
                0.0,
                1.0
            ],
            "scale": [
                1.0,
                1.0,
                1.0
            ],
            "children": [
                2,
                3,
                4,
                5,
                6,
                7
            ]
        },
        {
            "name": "body",
            "translation": [
                0.0,
                0.150000005960464,
                -0.0249999985098839
            ],
            "rotation": [
                0.0,
                0.0,
                0.0,
                1.0
            ],
            "scale": [
                1.0,
                1.0,
                1.0
            ],
            "mesh": 0
        },
        {
            "name": "door",
            "translation": [
                0.0,
                1.5,
                -1.47500002384186
            ],
            "rotation": [
                0.0,
                0.0,
                0.0,
                1.0
            ],
            "scale": [
                1.0,
                1.0,
                1.0
            ],
            "mesh": 1
        },
        {
            "name": "wheel-back-left",
            "translation": [
                0.300000011920929,
                0.300000011920929,
                -0.610000014305115
            ],
            "rotation": [
                0.0,
                0.0,
                0.0,
                1.0
            ],
            "scale": [
                1.0,
                1.0,
                1.0
            ],
            "mesh": 2
        },
        {
            "name": "wheel-back-right",
            "translation": [
                -0.300000011920929,
                0.300000011920929,
                -0.610000014305115
            ],
            "rotation": [
                0.0,
                0.0,
                0.0,
                1.0
            ],
            "scale": [
                1.0,
                1.0,
                1.0
            ],
            "mesh": 3
        },
        {
            "name": "wheel-front-left",
            "translation": [
                0.300000011920929,
                0.300000011920929,
                1.00999999046326
            ],
            "rotation": [
                0.0,
                0.0,
                0.0,
                1.0
            ],
            "scale": [
                1.0,
                1.0,
                1.0
            ],
            "mesh": 4
        },
        {
            "name": "wheel-front-right",
            "translation": [
                -0.300000011920929,
                0.300000011920929,
                1.00999999046326
            ],
            "rotation": [
                0.0,
                0.0,
                0.0,
                1.0
            ],
            "scale": [
                1.0,
                1.0,
                1.0
            ],
            "mesh": 5
        }
    ]
}