{
    "asset": {
        "generator": "FBX2glTF",
        "version": "2.0"
    },
    "scene": 0,
    "buffers": [
        {
            "byteLength": 160440,
            "uri": "buffer.bin"
        }
    ],
    "bufferViews": [
        {
            "buffer": 0,
            "byteLength": 1992,
            "byteOffset": 0,
            "target": 34963
        },
        {
            "buffer": 0,
            "byteLength": 6000,
            "byteOffset": 1992,
            "target": 34962
        },
        {
            "buffer": 0,
            "byteLength": 6000,
            "byteOffset": 7992,
            "target": 34962
        },
        {
            "buffer": 0,
            "byteLength": 8000,
            "byteOffset": 13992,
            "target": 34962
        },
        {
            "buffer": 0,
            "byteLength": 4000,
            "byteOffset": 21992,
            "target": 34962
        },
        {
            "buffer": 0,
            "byteLength": 1992,
            "byteOffset": 25992,
            "target": 34963
        },
        {
            "buffer": 0,
            "byteLength": 6000,
            "byteOffset": 27984,
            "target": 34962
        },
        {
            "buffer": 0,
            "byteLength": 6000,
            "byteOffset": 33984,
            "target": 34962
        },
        {
            "buffer": 0,
            "byteLength": 8000,
            "byteOffset": 39984,
            "target": 34962
        },
        {
            "buffer": 0,
            "byteLength": 4000,
            "byteOffset": 47984,
            "target": 34962
        },
        {
            "buffer": 0,
            "byteLength": 2568,
            "byteOffset": 51984,
            "target": 34963
        },
        {
            "buffer": 0,
            "byteLength": 7860,
            "byteOffset": 54552,
            "target": 34962
        },
        {
            "buffer": 0,
            "byteLength": 7860,
            "byteOffset": 62412,
            "target": 34962
        },
        {
            "buffer": 0,
            "byteLength": 10480,
            "byteOffset": 70272,
            "target": 34962
        },
        {
            "buffer": 0,
            "byteLength": 5240,
            "byteOffset": 80752,
            "target": 34962
        },
        {
            "buffer": 0,
            "byteLength": 2568,
            "byteOffset": 85992,
            "target": 34963
        },
        {
            "buffer": 0,
            "byteLength": 7848,
            "byteOffset": 88560,
            "target": 34962
        },
        {
            "buffer": 0,
            "byteLength": 7848,
            "byteOffset": 96408,
            "target": 34962
        },
        {
            "buffer": 0,
            "byteLength": 10464,
            "byteOffset": 104256,
            "target": 34962
        },
        {
            "buffer": 0,
            "byteLength": 5232,
            "byteOffset": 114720,
            "target": 34962
        },
        {
            "buffer": 0,
            "byteLength": 3144,
            "byteOffset": 119952,
            "target": 34963
        },
        {
            "buffer": 0,
            "byteLength": 9336,
            "byteOffset": 123096,
            "target": 34962
        },
        {
            "buffer": 0,
            "byteLength": 9336,
            "byteOffset": 132432,
            "target": 34962
        },
        {
            "buffer": 0,
            "byteLength": 12448,
            "byteOffset": 141768,
            "target": 34962
        },
        {
            "buffer": 0,
            "byteLength": 6224,
            "byteOffset": 154216,
            "target": 34962
        }
    ],
    "scenes": [
        {
            "name": "Root Scene",
            "nodes": [
                0
            ]
        }
    ],
    "accessors": [
        {
            "componentType": 5123,
            "type": "SCALAR",
            "count": 996,
            "bufferView": 0,
            "byteOffset": 0
        },
        {
            "componentType": 5126,
            "type": "VEC3",
            "count": 500,
            "bufferView": 1,
            "byteOffset": 0,
            "min": [
                -0.299105405807495,
                -0.325640290975571,
                -0.325640290975571
            ],
            "max": [
                0.0,
                0.325640290975571,
                0.325640290975571
            ]
        },
        {
            "componentType": 5126,
            "type": "VEC3",
            "count": 500,
            "bufferView": 2,
            "byteOffset": 0
        },
        {
            "componentType": 5126,
            "type": "VEC4",
            "count": 500,
            "bufferView": 3,
            "byteOffset": 0
        },
        {
            "componentType": 5126,
            "type": "VEC2",
            "count": 500,
            "bufferView": 4,
            "byteOffset": 0
        },
        {
            "componentType": 5123,
            "type": "SCALAR",
            "count": 996,
            "bufferView": 5,
            "byteOffset": 0
        },
        {
            "componentType": 5126,
            "type": "VEC3",
            "count": 500,
            "bufferView": 6,
            "byteOffset": 0,
            "min": [
                0.0,
                -0.325640290975571,
                -0.325640290975571
            ],
            "max": [
                0.299105405807495,
                0.325640290975571,
                0.325640290975571
            ]
        },
        {
            "componentType": 5126,
            "type": "VEC3",
            "count": 500,
            "bufferView": 7,
            "byteOffset": 0
        },
        {
            "componentType": 5126,
            "type": "VEC4",
            "count": 500,
            "bufferView": 8,
            "byteOffset": 0
        },
        {
            "componentType": 5126,
            "type": "VEC2",
            "count": 500,
            "bufferView": 9,
            "byteOffset": 0
        },
        {
            "componentType": 5123,
            "type": "SCALAR",
            "count": 1284,
            "bufferView": 10,
            "byteOffset": 0
        },
        {
            "componentType": 5126,
            "type": "VEC3",
            "count": 655,
            "bufferView": 11,
            "byteOffset": 0,
            "min": [
                -0.411558270454407,
                -0.525510847568512,
                -0.525510847568512
            ],
            "max": [
                0.0,
                0.525510847568512,
                0.525510847568512
            ]
        },
        {
            "componentType": 5126,
            "type": "VEC3",
            "count": 655,
            "bufferView": 12,
            "byteOffset": 0
        },
        {
            "componentType": 5126,
            "type": "VEC4",
            "count": 655,
            "bufferView": 13,
            "byteOffset": 0
        },
        {
            "componentType": 5126,
            "type": "VEC2",
            "count": 655,
            "bufferView": 14,
            "byteOffset": 0
        },
        {
            "componentType": 5123,
            "type": "SCALAR",
            "count": 1284,
            "bufferView": 15,
            "byteOffset": 0
        },
        {
            "componentType": 5126,
            "type": "VEC3",
            "count": 654,
            "bufferView": 16,
            "byteOffset": 0,
            "min": [
                0.0,
                -0.525510847568512,
                -0.525510847568512
            ],
            "max": [
                0.411558270454407,
                0.525510847568512,
                0.525510847568512
            ]
        },
        {
            "componentType": 5126,
            "type": "VEC3",
            "count": 654,
            "bufferView": 17,
            "byteOffset": 0
        },
        {
            "componentType": 5126,
            "type": "VEC4",
            "count": 654,
            "bufferView": 18,
            "byteOffset": 0
        },
        {
            "componentType": 5126,
            "type": "VEC2",
            "count": 654,
            "bufferView": 19,
            "byteOffset": 0
        },
        {
            "componentType": 5123,
            "type": "SCALAR",
            "count": 1572,
            "bufferView": 20,
            "byteOffset": 0
        },
        {
            "componentType": 5126,
            "type": "VEC3",
            "count": 778,
            "bufferView": 21,
            "byteOffset": 0,
            "min": [
                -0.671038329601288,
                0.0,
                -0.991336107254028
            ],
            "max": [
                0.671038329601288,
                1.4137499332428,
                0.991336166858673
            ]
        },
        {
            "componentType": 5126,
            "type": "VEC3",
            "count": 778,
            "bufferView": 22,
            "byteOffset": 0
        },
        {
            "componentType": 5126,
            "type": "VEC4",
            "count": 778,
            "bufferView": 23,
            "byteOffset": 0
        },
        {
            "componentType": 5126,
            "type": "VEC2",
            "count": 778,
            "bufferView": 24,
            "byteOffset": 0
        }
    ],
    "images": [
        {
            "name": "colormap.png",
            "uri": "colormap.png"
        }
    ],
    "samplers": [
        {}
    ],
    "textures": [
        {
            "name": "DiffuseColor_Texture",
            "sampler": 0,
            "source": 0
        }
    ],
    "materials": [
        {
            "name": "colormap",
            "alphaMode": "OPAQUE",
            "extras": {
                "fromFBX": {
                    "shadingModel": "Lambert",
                    "isTruePBR": false
                }
            },
            "pbrMetallicRoughness": {
                "baseColorTexture": {
                    "index": 0,
                    "texCoord": 0
                },
                "baseColorFactor": [
                    1.0,
                    1.0,
                    1.0,
                    1.0
                ],
                "metallicFactor": 0.200000002980232,
                "roughnessFactor": 0.800000011920929
            }
        }
    ],
    "meshes": [
        {
            "name": "wheel-front-right",
            "primitives": [
                {
                    "material": 0,
                    "mode": 4,
                    "attributes": {
                        "NORMAL": 2,
                        "POSITION": 1,
                        "TANGENT": 3,
                        "TEXCOORD_0": 4
                    },
                    "indices": 0
                }
            ]
        },
        {
            "name": "wheel-front-left",
            "primitives": [
                {
                    "material": 0,
                    "mode": 4,
                    "attributes": {
                        "NORMAL": 7,
                        "POSITION": 6,
                        "TANGENT": 8,
                        "TEXCOORD_0": 9
                    },
                    "indices": 5
                }
            ]
        },
        {
            "name": "wheel-back-right",
            "primitives": [
                {
                    "material": 0,
                    "mode": 4,
                    "attributes": {
                        "NORMAL": 12,
                        "POSITION": 11,
                        "TANGENT": 13,
                        "TEXCOORD_0": 14
                    },
                    "indices": 10
                }
            ]
        },
        {
            "name": "wheel-back-left",
            "primitives": [
                {
                    "material": 0,
                    "mode": 4,
                    "attributes": {
                        "NORMAL": 17,
                        "POSITION": 16,
                        "TANGENT": 18,
                        "TEXCOORD_0": 19
                    },
                    "indices": 15
                }
            ]
        },
        {
            "name": "body",
            "primitives": [
                {
                    "material": 0,
                    "mode": 4,
                    "attributes": {
                        "NORMAL": 22,
                        "POSITION": 21,
                        "TANGENT": 23,
                        "TEXCOORD_0": 24
                    },
                    "indices": 20
                }
            ]
        }
    ],
    "nodes": [
        {
            "name": "RootNode",
            "translation": [
                0.0,
                0.0,
                0.0
            ],
            "rotation": [
                0.0,
                0.0,
                0.0,
                1.0
            ],
            "scale": [
                1.0,
                1.0,
                1.0
            ],
            "children": [
                1
            ]
        },
        {
            "name": "tractor",
            "translation": [
                0.0,
                0.0,
                0.0
            ],
            "rotation": [
                0.0,
                0.0,
                0.0,
                1.0
            ],
            "scale": [
                1.0,
                1.0,
                1.0
            ],
            "children": [
                2,
                3,
                4,
                5,
                6
            ]
        },
        {
            "name": "wheel-front-right",
            "translation": [
                -0.265262991189957,
                0.325640290975571,
                0.730522811412811
            ],
            "rotation": [
                0.0,
                0.0,
                0.0,
                1.0
            ],
            "scale": [
                1.0,
                1.0,
                1.0
            ],
            "mesh": 0
        },
        {
            "name": "wheel-front-left",
            "translation": [
                0.265262991189957,
                0.325640290975571,
                0.730522811412811
            ],
            "rotation": [
                0.0,
                0.0,
                0.0,
                1.0
            ],
            "scale": [
                1.0,
                1.0,
                1.0
            ],
            "mesh": 1
        },
        {
            "name": "wheel-back-right",
            "translation": [
                -0.259480267763138,
                0.525510847568512,
                -0.575265467166901
            ],
            "rotation": [
                0.0,
                0.0,
                0.0,
                1.0
            ],
            "scale": [
                1.0,
                1.0,
                1.0
            ],
            "mesh": 2
        },
        {
            "name": "wheel-back-left",
            "translation": [
                0.259480267763138,
                0.525510847568512,
                -0.575265467166901
            ],
            "rotation": [
                0.0,
                0.0,
                0.0,
                1.0
            ],
            "scale": [
                1.0,
                1.0,
                1.0
            ],
            "mesh": 3
        },
        {
            "name": "body",
            "translation": [
                -3.71171071655851e-09,
                0.188303142786026,
                0.109440021216869
            ],
            "rotation": [
                0.0,
                0.0,
                0.0,
                1.0
            ],
            "scale": [
                1.0,
                1.0,
                1.0
            ],
            "mesh": 4
        }
    ]
}