{
    "asset": {
        "generator": "FBX2glTF",
        "version": "2.0"
    },
    "scene": 0,
    "buffers": [
        {
            "byteLength": 13056,
            "uri": "buffer.bin"
        }
    ],
    "bufferViews": [
        {
            "buffer": 0,
            "byteLength": 120,
            "byteOffset": 0,
            "target": 34963
        },
        {
            "buffer": 0,
            "byteLength": 288,
            "byteOffset": 120,
            "target": 34962
        },
        {
            "buffer": 0,
            "byteLength": 288,
            "byteOffset": 408,
            "target": 34962
        },
        {
            "buffer": 0,
            "byteLength": 384,
            "byteOffset": 696,
            "target": 34962
        },
        {
            "buffer": 0,
            "byteLength": 192,
            "byteOffset": 1080,
            "target": 34962
        },
        {
            "buffer": 0,
            "byteLength": 264,
            "byteOffset": 1272,
            "target": 34963
        },
        {
            "buffer": 0,
            "byteLength": 744,
            "byteOffset": 1536,
            "target": 34962
        },
        {
            "buffer": 0,
            "byteLength": 744,
            "byteOffset": 2280,
            "target": 34962
        },
        {
            "buffer": 0,
            "byteLength": 992,
            "byteOffset": 3024,
            "target": 34962
        },
        {
            "buffer": 0,
            "byteLength": 496,
            "byteOffset": 4016,
            "target": 34962
        },
        {
            "buffer": 0,
            "byteLength": 336,
            "byteOffset": 4512,
            "target": 34963
        },
        {
            "buffer": 0,
            "byteLength": 984,
            "byteOffset": 4848,
            "target": 34962
        },
        {
            "buffer": 0,
            "byteLength": 984,
            "byteOffset": 5832,
            "target": 34962
        },
        {
            "buffer": 0,
            "byteLength": 1312,
            "byteOffset": 6816,
            "target": 34962
        },
        {
            "buffer": 0,
            "byteLength": 656,
            "byteOffset": 8128,
            "target": 34962
        },
        {
            "buffer": 0,
            "byteLength": 336,
            "byteOffset": 8784,
            "target": 34963
        },
        {
            "buffer": 0,
            "byteLength": 984,
            "byteOffset": 9120,
            "target": 34962
        },
        {
            "buffer": 0,
            "byteLength": 984,
            "byteOffset": 10104,
            "target": 34962
        },
        {
            "buffer": 0,
            "byteLength": 1312,
            "byteOffset": 11088,
            "target": 34962
        },
        {
            "buffer": 0,
            "byteLength": 656,
            "byteOffset": 12400,
            "target": 34962
        }
    ],
    "scenes": [
        {
            "name": "Root Scene",
            "nodes": [
                0
            ]
        }
    ],
    "accessors": [
        {
            "componentType": 5123,
            "type": "SCALAR",
            "count": 60,
            "bufferView": 0,
            "byteOffset": 0
        },
        {
            "componentType": 5126,
            "type": "VEC3",
            "count": 24,
            "bufferView": 1,
            "byteOffset": 0,
            "min": [
                -0.1929951608181,
                0.0,
                -0.193686708807945
            ],
            "max": [
                0.1929951608181,
                0.0,
                0.193686708807945
            ]
        },
        {
            "componentType": 5126,
            "type": "VEC3",
            "count": 24,
            "bufferView": 2,
            "byteOffset": 0
        },
        {
            "componentType": 5126,
            "type": "VEC4",
            "count": 24,
            "bufferView": 3,
            "byteOffset": 0
        },
        {
            "componentType": 5126,
            "type": "VEC2",
            "count": 24,
            "bufferView": 4,
            "byteOffset": 0
        },
        {
            "componentType": 5123,
            "type": "SCALAR",
            "count": 132,
            "bufferView": 5,
            "byteOffset": 0
        },
        {
            "componentType": 5126,
            "type": "VEC3",
            "count": 62,
            "bufferView": 6,
            "byteOffset": 0,
            "min": [
                -0.192802175879478,
                0.0,
                -0.193493038415909
            ],
            "max": [
                0.192802175879478,
                0.0316483192145824,
                0.193493038415909
            ]
        },
        {
            "componentType": 5126,
            "type": "VEC3",
            "count": 62,
            "bufferView": 7,
            "byteOffset": 0
        },
        {
            "componentType": 5126,
            "type": "VEC4",
            "count": 62,
            "bufferView": 8,
            "byteOffset": 0
        },
        {
            "componentType": 5126,
            "type": "VEC2",
            "count": 62,
            "bufferView": 9,
            "byteOffset": 0
        },
        {
            "componentType": 5123,
            "type": "SCALAR",
            "count": 168,
            "bufferView": 10,
            "byteOffset": 0
        },
        {
            "componentType": 5126,
            "type": "VEC3",
            "count": 82,
            "bufferView": 11,
            "byteOffset": 0,
            "min": [
                -0.176079332828522,
                0.0,
                -0.175448760390282
            ],
            "max": [
                0.176078349351883,
                0.0480000004172325,
                0.175451621413231
            ]
        },
        {
            "componentType": 5126,
            "type": "VEC3",
            "count": 82,
            "bufferView": 12,
            "byteOffset": 0
        },
        {
            "componentType": 5126,
            "type": "VEC4",
            "count": 82,
            "bufferView": 13,
            "byteOffset": 0
        },
        {
            "componentType": 5126,
            "type": "VEC2",
            "count": 82,
            "bufferView": 14,
            "byteOffset": 0
        },
        {
            "componentType": 5123,
            "type": "SCALAR",
            "count": 168,
            "bufferView": 15,
            "byteOffset": 0
        },
        {
            "componentType": 5126,
            "type": "VEC3",
            "count": 82,
            "bufferView": 16,
            "byteOffset": 0,
            "min": [
                -0.176079332828522,
                0.0,
                -0.175448760390282
            ],
            "max": [
                0.176078349351883,
                0.0480000004172325,
                0.175451621413231
            ]
        },
        {
            "componentType": 5126,
            "type": "VEC3",
            "count": 82,
            "bufferView": 17,
            "byteOffset": 0
        },
        {
            "componentType": 5126,
            "type": "VEC4",
            "count": 82,
            "bufferView": 18,
            "byteOffset": 0
        },
        {
            "componentType": 5126,
            "type": "VEC2",
            "count": 82,
            "bufferView": 19,
            "byteOffset": 0
        }
    ],
    "images": [
        {
            "name": "colormap.png",
            "uri": "colormap.png"
        }
    ],
    "samplers": [
        {}
    ],
    "textures": [
        {
            "name": "DiffuseColor_Texture",
            "sampler": 0,
            "source": 0
        }
    ],
    "materials": [
        {
            "name": "colormap",
            "alphaMode": "OPAQUE",
            "extras": {
                "fromFBX": {
                    "shadingModel": "Lambert",
                    "isTruePBR": false
                }
            },
            "pbrMetallicRoughness": {
                "baseColorTexture": {
                    "index": 0,
                    "texCoord": 0
                },
                "baseColorFactor": [
                    1.0,
                    1.0,
                    1.0,
                    1.0
                ],
                "metallicFactor": 0.200000002980232,
                "roughnessFactor": 0.800000011920929
            }
        }
    ],
    "meshes": [
        {
            "name": "lettuce",
            "primitives": [
                {
                    "material": 0,
                    "mode": 4,
                    "attributes": {
                        "NORMAL": 2,
                        "POSITION": 1,
                        "TANGENT": 3,
                        "TEXCOORD_0": 4
                    },
                    "indices": 0
                }
            ]
        },
        {
            "name": "meat",
            "primitives": [
                {
                    "material": 0,
                    "mode": 4,
                    "attributes": {
                        "NORMAL": 7,
                        "POSITION": 6,
                        "TANGENT": 8,
                        "TEXCOORD_0": 9
                    },
                    "indices": 5
                }
            ]
        },
        {
            "name": "bun",
            "primitives": [
                {
                    "material": 0,
                    "mode": 4,
                    "attributes": {
                        "NORMAL": 12,
                        "POSITION": 11,
                        "TANGENT": 13,
                        "TEXCOORD_0": 14
                    },
                    "indices": 10
                }
            ]
        },
        {
            "name": "bun_1",
            "primitives": [
                {
                    "material": 0,
                    "mode": 4,
                    "attributes": {
                        "NORMAL": 17,
                        "POSITION": 16,
                        "TANGENT": 18,
                        "TEXCOORD_0": 19
                    },
                    "indices": 15
                }
            ]
        }
    ],
    "nodes": [
        {
            "name": "RootNode",
            "translation": [
                0.0,
                0.0,
                0.0
            ],
            "rotation": [
                0.0,
                0.0,
                0.0,
                1.0
            ],
            "scale": [
                1.0,
                1.0,
                1.0
            ],
            "children": [
                1
            ]
        },
        {
            "name": "sandwich",
            "translation": [
                0.0,
                0.0,
                0.0
            ],
            "rotation": [
                0.0,
                0.0,
                0.0,
                1.0
            ],
            "scale": [
                1.0,
                1.0,
                1.0
            ],
            "children": [
                2,
                3,
                4,
                5
            ]
        },
        {
            "name": "lettuce",
            "translation": [
                -0.00999999977648258,
                0.0679999962449074,
                0.00999999977648258
            ],
            "rotation": [
                0.0,
                0.0,
                0.0,
                1.0
            ],
            "scale": [
                1.12000000476837,
                1.0,
                1.12000000476837
            ],
            "mesh": 0
        },
        {
            "name": "meat",
            "translation": [
                7.21911410807822e-16,
                0.0801758393645287,
                2.52668996429716e-15
            ],
            "rotation": [
                0.0,
                0.0,
                0.0,
                1.0
            ],
            "scale": [
                1.0,
                1.0,
                1.0
            ],
            "mesh": 1
        },
        {
            "name": "bun",
            "translation": [
                0.0,
                0.0,
                0.0
            ],
            "rotation": [
                -0.0,
                -0.70710676908493,
                0.0,
                0.70710676908493
            ],
            "scale": [
                0.999999761581421,
                1.0,
                0.999999761581421
            ],
            "mesh": 2
        },
        {
            "name": "bun_1",
            "translation": [
                0.0,
                0.119999997317791,
                -1.44382282161564e-15
            ],
            "rotation": [
                -0.0,
                -0.70710676908493,
                0.0,
                0.70710676908493
            ],
            "scale": [
                0.999999761581421,
                1.0,
                0.999999761581421
            ],
            "mesh": 3
        }
    ]
}