{
    "asset": {
        "generator": "FBX2glTF",
        "version": "2.0"
    },
    "scene": 0,
    "buffers": [
        {
            "byteLength": 14628,
            "uri": "buffer.bin"
        }
    ],
    "bufferViews": [
        {
            "buffer": 0,
            "byteLength": 240,
            "byteOffset": 0,
            "target": 34963
        },
        {
            "buffer": 0,
            "byteLength": 792,
            "byteOffset": 240,
            "target": 34962
        },
        {
            "buffer": 0,
            "byteLength": 792,
            "byteOffset": 1032,
            "target": 34962
        },
        {
            "buffer": 0,
            "byteLength": 1056,
            "byteOffset": 1824,
            "target": 34962
        },
        {
            "buffer": 0,
            "byteLength": 528,
            "byteOffset": 2880,
            "target": 34962
        },
        {
            "buffer": 0,
            "byteLength": 234,
            "byteOffset": 3408,
            "target": 34963
        },
        {
            "buffer": 0,
            "byteLength": 876,
            "byteOffset": 3644,
            "target": 34962
        },
        {
            "buffer": 0,
            "byteLength": 876,
            "byteOffset": 4520,
            "target": 34962
        },
        {
            "buffer": 0,
            "byteLength": 1168,
            "byteOffset": 5396,
            "target": 34962
        },
        {
            "buffer": 0,
            "byteLength": 584,
            "byteOffset": 6564,
            "target": 34962
        },
        {
            "buffer": 0,
            "byteLength": 234,
            "byteOffset": 7148,
            "target": 34963
        },
        {
            "buffer": 0,
            "byteLength": 876,
            "byteOffset": 7384,
            "target": 34962
        },
        {
            "buffer": 0,
            "byteLength": 876,
            "byteOffset": 8260,
            "target": 34962
        },
        {
            "buffer": 0,
            "byteLength": 1168,
            "byteOffset": 9136,
            "target": 34962
        },
        {
            "buffer": 0,
            "byteLength": 584,
            "byteOffset": 10304,
            "target": 34962
        },
        {
            "buffer": 0,
            "byteLength": 234,
            "byteOffset": 10888,
            "target": 34963
        },
        {
            "buffer": 0,
            "byteLength": 876,
            "byteOffset": 11124,
            "target": 34962
        },
        {
            "buffer": 0,
            "byteLength": 876,
            "byteOffset": 12000,
            "target": 34962
        },
        {
            "buffer": 0,
            "byteLength": 1168,
            "byteOffset": 12876,
            "target": 34962
        },
        {
            "buffer": 0,
            "byteLength": 584,
            "byteOffset": 14044,
            "target": 34962
        }
    ],
    "scenes": [
        {
            "name": "Root Scene",
            "nodes": [
                0
            ]
        }
    ],
    "accessors": [
        {
            "componentType": 5123,
            "type": "SCALAR",
            "count": 120,
            "bufferView": 0,
            "byteOffset": 0
        },
        {
            "componentType": 5126,
            "type": "VEC3",
            "count": 66,
            "bufferView": 1,
            "byteOffset": 0,
            "min": [
                -0.281765669584274,
                0.0,
                -0.110880002379417
            ],
            "max": [
                0.281765669584274,
                0.415874660015106,
                0.110880002379417
            ]
        },
        {
            "componentType": 5126,
            "type": "VEC3",
            "count": 66,
            "bufferView": 2,
            "byteOffset": 0
        },
        {
            "componentType": 5126,
            "type": "VEC4",
            "count": 66,
            "bufferView": 3,
            "byteOffset": 0
        },
        {
            "componentType": 5126,
            "type": "VEC2",
            "count": 66,
            "bufferView": 4,
            "byteOffset": 0
        },
        {
            "componentType": 5123,
            "type": "SCALAR",
            "count": 117,
            "bufferView": 5,
            "byteOffset": 0
        },
        {
            "componentType": 5126,
            "type": "VEC3",
            "count": 73,
            "bufferView": 6,
            "byteOffset": 0,
            "min": [
                -0.247663602232933,
                -0.2623410820961,
                -5.66101077126291e-09
            ],
            "max": [
                0.199417680501938,
                0.327617138624191,
                0.0400000102818012
            ]
        },
        {
            "componentType": 5126,
            "type": "VEC3",
            "count": 73,
            "bufferView": 7,
            "byteOffset": 0
        },
        {
            "componentType": 5126,
            "type": "VEC4",
            "count": 73,
            "bufferView": 8,
            "byteOffset": 0
        },
        {
            "componentType": 5126,
            "type": "VEC2",
            "count": 73,
            "bufferView": 9,
            "byteOffset": 0
        },
        {
            "componentType": 5123,
            "type": "SCALAR",
            "count": 117,
            "bufferView": 10,
            "byteOffset": 0
        },
        {
            "componentType": 5126,
            "type": "VEC3",
            "count": 73,
            "bufferView": 11,
            "byteOffset": 0,
            "min": [
                -0.247663602232933,
                -0.2623410820961,
                -5.66101077126291e-09
            ],
            "max": [
                0.199417680501938,
                0.327617138624191,
                0.0400000102818012
            ]
        },
        {
            "componentType": 5126,
            "type": "VEC3",
            "count": 73,
            "bufferView": 12,
            "byteOffset": 0
        },
        {
            "componentType": 5126,
            "type": "VEC4",
            "count": 73,
            "bufferView": 13,
            "byteOffset": 0
        },
        {
            "componentType": 5126,
            "type": "VEC2",
            "count": 73,
            "bufferView": 14,
            "byteOffset": 0
        },
        {
            "componentType": 5123,
            "type": "SCALAR",
            "count": 117,
            "bufferView": 15,
            "byteOffset": 0
        },
        {
            "componentType": 5126,
            "type": "VEC3",
            "count": 73,
            "bufferView": 16,
            "byteOffset": 0,
            "min": [
                -0.247663602232933,
                -0.2623410820961,
                -5.66101077126291e-09
            ],
            "max": [
                0.199417680501938,
                0.327617138624191,
                0.0400000102818012
            ]
        },
        {
            "componentType": 5126,
            "type": "VEC3",
            "count": 73,
            "bufferView": 17,
            "byteOffset": 0
        },
        {
            "componentType": 5126,
            "type": "VEC4",
            "count": 73,
            "bufferView": 18,
            "byteOffset": 0
        },
        {
            "componentType": 5126,
            "type": "VEC2",
            "count": 73,
            "bufferView": 19,
            "byteOffset": 0
        }
    ],
    "images": [
        {
            "name": "colormap.png",
            "uri": "colormap.png"
        }
    ],
    "samplers": [
        {}
    ],
    "textures": [
        {
            "name": "DiffuseColor_Texture",
            "sampler": 0,
            "source": 0
        }
    ],
    "materials": [
        {
            "name": "colormap",
            "alphaMode": "OPAQUE",
            "extras": {
                "fromFBX": {
                    "shadingModel": "Lambert",
                    "isTruePBR": false
                }
            },
            "pbrMetallicRoughness": {
                "baseColorTexture": {
                    "index": 0,
                    "texCoord": 0
                },
                "baseColorFactor": [
                    1.0,
                    1.0,
                    1.0,
                    1.0
                ],
                "metallicFactor": 0.200000002980232,
                "roughnessFactor": 0.800000011920929
            }
        }
    ],
    "meshes": [
        {
            "name": "knife-block",
            "primitives": [
                {
                    "material": 0,
                    "mode": 4,
                    "attributes": {
                        "NORMAL": 2,
                        "POSITION": 1,
                        "TANGENT": 3,
                        "TEXCOORD_0": 4
                    },
                    "indices": 0
                }
            ]
        },
        {
            "name": "cooking-knife",
            "primitives": [
                {
                    "material": 0,
                    "mode": 4,
                    "attributes": {
                        "NORMAL": 7,
                        "POSITION": 6,
                        "TANGENT": 8,
                        "TEXCOORD_0": 9
                    },
                    "indices": 5
                }
            ]
        },
        {
            "name": "cooking-knife_1",
            "primitives": [
                {
                    "material": 0,
                    "mode": 4,
                    "attributes": {
                        "NORMAL": 12,
                        "POSITION": 11,
                        "TANGENT": 13,
                        "TEXCOORD_0": 14
                    },
                    "indices": 10
                }
            ]
        },
        {
            "name": "cooking-knife_2",
            "primitives": [
                {
                    "material": 0,
                    "mode": 4,
                    "attributes": {
                        "NORMAL": 17,
                        "POSITION": 16,
                        "TANGENT": 18,
                        "TEXCOORD_0": 19
                    },
                    "indices": 15
                }
            ]
        }
    ],
    "nodes": [
        {
            "name": "RootNode",
            "translation": [
                0.0,
                0.0,
                0.0
            ],
            "rotation": [
                0.0,
                0.0,
                0.0,
                1.0
            ],
            "scale": [
                1.0,
                1.0,
                1.0
            ],
            "children": [
                1
            ]
        },
        {
            "name": "knife-block",
            "translation": [
                0.0,
                0.0,
                0.0
            ],
            "rotation": [
                0.0,
                0.0,
                0.0,
                1.0
            ],
            "scale": [
                1.0,
                1.0,
                1.0
            ],
            "children": [
                2,
                3,
                4
            ],
            "mesh": 0
        },
        {
            "name": "cooking-knife",
            "translation": [
                0.154727771878242,
                0.247089758515358,
                -0.0199999902397394
            ],
            "rotation": [
                0.0,
                0.0,
                0.0,
                1.0
            ],
            "scale": [
                1.0,
                1.0,
                1.0
            ],
            "mesh": 1
        },
        {
            "name": "cooking-knife_1",
            "translation": [
                0.0828463062644005,
                0.319575875997543,
                -0.063116654753685
            ],
            "rotation": [
                0.0,
                0.0,
                0.0,
                1.0
            ],
            "scale": [
                1.0,
                1.0,
                1.0
            ],
            "mesh": 2
        },
        {
            "name": "cooking-knife_2",
            "translation": [
                0.0828463062644005,
                0.319575875997543,
                0.0231166686862707
            ],
            "rotation": [
                0.0,
                0.0,
                0.0,
                1.0
            ],
            "scale": [
                1.0,
                1.0,
                1.0
            ],
            "mesh": 3
        }
    ]
}