{
    "asset": {
        "generator": "FBX2glTF",
        "version": "2.0"
    },
    "scene": 0,
    "buffers": [
        {
            "byteLength": 153168,
            "uri": "buffer.bin"
        }
    ],
    "bufferViews": [
        {
            "buffer": 0,
            "byteLength": 1992,
            "byteOffset": 0,
            "target": 34963
        },
        {
            "buffer": 0,
            "byteLength": 6000,
            "byteOffset": 1992,
            "target": 34962
        },
        {
            "buffer": 0,
            "byteLength": 6000,
            "byteOffset": 7992,
            "target": 34962
        },
        {
            "buffer": 0,
            "byteLength": 8000,
            "byteOffset": 13992,
            "target": 34962
        },
        {
            "buffer": 0,
            "byteLength": 4000,
            "byteOffset": 21992,
            "target": 34962
        },
        {
            "buffer": 0,
            "byteLength": 1992,
            "byteOffset": 25992,
            "target": 34963
        },
        {
            "buffer": 0,
            "byteLength": 6000,
            "byteOffset": 27984,
            "target": 34962
        },
        {
            "buffer": 0,
            "byteLength": 6000,
            "byteOffset": 33984,
            "target": 34962
        },
        {
            "buffer": 0,
            "byteLength": 8000,
            "byteOffset": 39984,
            "target": 34962
        },
        {
            "buffer": 0,
            "byteLength": 4000,
            "byteOffset": 47984,
            "target": 34962
        },
        {
            "buffer": 0,
            "byteLength": 1992,
            "byteOffset": 51984,
            "target": 34963
        },
        {
            "buffer": 0,
            "byteLength": 6000,
            "byteOffset": 53976,
            "target": 34962
        },
        {
            "buffer": 0,
            "byteLength": 6000,
            "byteOffset": 59976,
            "target": 34962
        },
        {
            "buffer": 0,
            "byteLength": 8000,
            "byteOffset": 65976,
            "target": 34962
        },
        {
            "buffer": 0,
            "byteLength": 4000,
            "byteOffset": 73976,
            "target": 34962
        },
        {
            "buffer": 0,
            "byteLength": 1992,
            "byteOffset": 77976,
            "target": 34963
        },
        {
            "buffer": 0,
            "byteLength": 6000,
            "byteOffset": 79968,
            "target": 34962
        },
        {
            "buffer": 0,
            "byteLength": 6000,
            "byteOffset": 85968,
            "target": 34962
        },
        {
            "buffer": 0,
            "byteLength": 8000,
            "byteOffset": 91968,
            "target": 34962
        },
        {
            "buffer": 0,
            "byteLength": 4000,
            "byteOffset": 99968,
            "target": 34962
        },
        {
            "buffer": 0,
            "byteLength": 4464,
            "byteOffset": 103968,
            "target": 34963
        },
        {
            "buffer": 0,
            "byteLength": 11184,
            "byteOffset": 108432,
            "target": 34962
        },
        {
            "buffer": 0,
            "byteLength": 11184,
            "byteOffset": 119616,
            "target": 34962
        },
        {
            "buffer": 0,
            "byteLength": 14912,
            "byteOffset": 130800,
            "target": 34962
        },
        {
            "buffer": 0,
            "byteLength": 7456,
            "byteOffset": 145712,
            "target": 34962
        }
    ],
    "scenes": [
        {
            "name": "Root Scene",
            "nodes": [
                0
            ]
        }
    ],
    "accessors": [
        {
            "componentType": 5123,
            "type": "SCALAR",
            "count": 996,
            "bufferView": 0,
            "byteOffset": 0
        },
        {
            "componentType": 5126,
            "type": "VEC3",
            "count": 500,
            "bufferView": 1,
            "byteOffset": 0,
            "min": [
                -0.300000190734863,
                -0.300000011920929,
                -0.300000011920929
            ],
            "max": [
                4.33146831661617e-14,
                0.300000011920929,
                0.300000011920929
            ]
        },
        {
            "componentType": 5126,
            "type": "VEC3",
            "count": 500,
            "bufferView": 2,
            "byteOffset": 0
        },
        {
            "componentType": 5126,
            "type": "VEC4",
            "count": 500,
            "bufferView": 3,
            "byteOffset": 0
        },
        {
            "componentType": 5126,
            "type": "VEC2",
            "count": 500,
            "bufferView": 4,
            "byteOffset": 0
        },
        {
            "componentType": 5123,
            "type": "SCALAR",
            "count": 996,
            "bufferView": 5,
            "byteOffset": 0
        },
        {
            "componentType": 5126,
            "type": "VEC3",
            "count": 500,
            "bufferView": 6,
            "byteOffset": 0,
            "min": [
                -2.70541049415471e-13,
                -0.300000011920929,
                -0.300000011920929
            ],
            "max": [
                0.300000190734863,
                0.300000011920929,
                0.300000011920929
            ]
        },
        {
            "componentType": 5126,
            "type": "VEC3",
            "count": 500,
            "bufferView": 7,
            "byteOffset": 0
        },
        {
            "componentType": 5126,
            "type": "VEC4",
            "count": 500,
            "bufferView": 8,
            "byteOffset": 0
        },
        {
            "componentType": 5126,
            "type": "VEC2",
            "count": 500,
            "bufferView": 9,
            "byteOffset": 0
        },
        {
            "componentType": 5123,
            "type": "SCALAR",
            "count": 996,
            "bufferView": 10,
            "byteOffset": 0
        },
        {
            "componentType": 5126,
            "type": "VEC3",
            "count": 500,
            "bufferView": 11,
            "byteOffset": 0,
            "min": [
                -0.300000190734863,
                -0.300000011920929,
                -0.300000011920929
            ],
            "max": [
                4.33146831661617e-14,
                0.300000011920929,
                0.300000011920929
            ]
        },
        {
            "componentType": 5126,
            "type": "VEC3",
            "count": 500,
            "bufferView": 12,
            "byteOffset": 0
        },
        {
            "componentType": 5126,
            "type": "VEC4",
            "count": 500,
            "bufferView": 13,
            "byteOffset": 0
        },
        {
            "componentType": 5126,
            "type": "VEC2",
            "count": 500,
            "bufferView": 14,
            "byteOffset": 0
        },
        {
            "componentType": 5123,
            "type": "SCALAR",
            "count": 996,
            "bufferView": 15,
            "byteOffset": 0
        },
        {
            "componentType": 5126,
            "type": "VEC3",
            "count": 500,
            "bufferView": 16,
            "byteOffset": 0,
            "min": [
                -2.70541049415471e-13,
                -0.300000011920929,
                -0.300000011920929
            ],
            "max": [
                0.300000190734863,
                0.300000011920929,
                0.300000011920929
            ]
        },
        {
            "componentType": 5126,
            "type": "VEC3",
            "count": 500,
            "bufferView": 17,
            "byteOffset": 0
        },
        {
            "componentType": 5126,
            "type": "VEC4",
            "count": 500,
            "bufferView": 18,
            "byteOffset": 0
        },
        {
            "componentType": 5126,
            "type": "VEC2",
            "count": 500,
            "bufferView": 19,
            "byteOffset": 0
        },
        {
            "componentType": 5123,
            "type": "SCALAR",
            "count": 2232,
            "bufferView": 20,
            "byteOffset": 0
        },
        {
            "componentType": 5126,
            "type": "VEC3",
            "count": 932,
            "bufferView": 21,
            "byteOffset": 0,
            "min": [
                -0.75,
                0.0,
                -1.37499976158142
            ],
            "max": [
                0.75,
                1.34999978542328,
                1.37499976158142
            ]
        },
        {
            "componentType": 5126,
            "type": "VEC3",
            "count": 932,
            "bufferView": 22,
            "byteOffset": 0
        },
        {
            "componentType": 5126,
            "type": "VEC4",
            "count": 932,
            "bufferView": 23,
            "byteOffset": 0
        },
        {
            "componentType": 5126,
            "type": "VEC2",
            "count": 932,
            "bufferView": 24,
            "byteOffset": 0
        }
    ],
    "images": [
        {
            "name": "colormap.png",
            "uri": "colormap.png"
        }
    ],
    "samplers": [
        {}
    ],
    "textures": [
        {
            "name": "DiffuseColor_Texture",
            "sampler": 0,
            "source": 0
        }
    ],
    "materials": [
        {
            "name": "colormap",
            "alphaMode": "OPAQUE",
            "extras": {
                "fromFBX": {
                    "shadingModel": "Lambert",
                    "isTruePBR": false
                }
            },
            "pbrMetallicRoughness": {
                "baseColorTexture": {
                    "index": 0,
                    "texCoord": 0
                },
                "baseColorFactor": [
                    1.0,
                    1.0,
                    1.0,
                    1.0
                ],
                "metallicFactor": 0.200000002980232,
                "roughnessFactor": 0.800000011920929
            }
        }
    ],
    "meshes": [
        {
            "name": "wheel-front-right",
            "primitives": [
                {
                    "material": 0,
                    "mode": 4,
                    "attributes": {
                        "NORMAL": 2,
                        "POSITION": 1,
                        "TANGENT": 3,
                        "TEXCOORD_0": 4
                    },
                    "indices": 0
                }
            ]
        },
        {
            "name": "wheel-front-left",
            "primitives": [
                {
                    "material": 0,
                    "mode": 4,
                    "attributes": {
                        "NORMAL": 7,
                        "POSITION": 6,
                        "TANGENT": 8,
                        "TEXCOORD_0": 9
                    },
                    "indices": 5
                }
            ]
        },
        {
            "name": "wheel-back-right",
            "primitives": [
                {
                    "material": 0,
                    "mode": 4,
                    "attributes": {
                        "NORMAL": 12,
                        "POSITION": 11,
                        "TANGENT": 13,
                        "TEXCOORD_0": 14
                    },
                    "indices": 10
                }
            ]
        },
        {
            "name": "wheel-back-left",
            "primitives": [
                {
                    "material": 0,
                    "mode": 4,
                    "attributes": {
                        "NORMAL": 17,
                        "POSITION": 16,
                        "TANGENT": 18,
                        "TEXCOORD_0": 19
                    },
                    "indices": 15
                }
            ]
        },
        {
            "name": "body",
            "primitives": [
                {
                    "material": 0,
                    "mode": 4,
                    "attributes": {
                        "NORMAL": 22,
                        "POSITION": 21,
                        "TANGENT": 23,
                        "TEXCOORD_0": 24
                    },
                    "indices": 20
                }
            ]
        }
    ],
    "nodes": [
        {
            "name": "RootNode",
            "translation": [
                0.0,
                0.0,
                0.0
            ],
            "rotation": [
                0.0,
                0.0,
                0.0,
                1.0
            ],
            "scale": [
                1.0,
                1.0,
                1.0
            ],
            "children": [
                1
            ]
        },
        {
            "name": "taxi",
            "translation": [
                0.0,
                0.0,
                0.0
            ],
            "rotation": [
                0.0,
                0.0,
                0.0,
                1.0
            ],
            "scale": [
                1.0,
                1.0,
                1.0
            ],
            "children": [
                2,
                3,
                4,
                5,
                6
            ]
        },
        {
            "name": "wheel-front-right",
            "translation": [
                -0.300000011920929,
                0.300000011920929,
                0.759999990463257
            ],
            "rotation": [
                0.0,
                0.0,
                0.0,
                1.0
            ],
            "scale": [
                1.0,
                1.0,
                1.0
            ],
            "mesh": 0
        },
        {
            "name": "wheel-front-left",
            "translation": [
                0.300000011920929,
                0.300000011920929,
                0.759999990463257
            ],
            "rotation": [
                0.0,
                0.0,
                0.0,
                1.0
            ],
            "scale": [
                1.0,
                1.0,
                1.0
            ],
            "mesh": 1
        },
        {
            "name": "wheel-back-right",
            "translation": [
                -0.300000011920929,
                0.300000011920929,
                -0.759999990463257
            ],
            "rotation": [
                0.0,
                0.0,
                0.0,
                1.0
            ],
            "scale": [
                1.0,
                1.0,
                1.0
            ],
            "mesh": 2
        },
        {
            "name": "wheel-back-left",
            "translation": [
                0.300000011920929,
                0.300000011920929,
                -0.759999990463257
            ],
            "rotation": [
                0.0,
                0.0,
                0.0,
                1.0
            ],
            "scale": [
                1.0,
                1.0,
                1.0
            ],
            "mesh": 3
        },
        {
            "name": "body",
            "translation": [
                0.0,
                0.150000005960464,
                -0.0249999985098839
            ],
            "rotation": [
                0.0,
                0.0,
                0.0,
                1.0
            ],
            "scale": [
                1.0,
                1.0,
                1.0
            ],
            "mesh": 4
        }
    ]
}