{
    "asset": {
        "generator": "FBX2glTF",
        "version": "2.0"
    },
    "scene": 0,
    "buffers": [
        {
            "byteLength": 198180,
            "uri": "buffer.bin"
        }
    ],
    "bufferViews": [
        {
            "buffer": 0,
            "byteLength": 4356,
            "byteOffset": 0,
            "target": 34963
        },
        {
            "buffer": 0,
            "byteLength": 11808,
            "byteOffset": 4356,
            "target": 34962
        },
        {
            "buffer": 0,
            "byteLength": 11808,
            "byteOffset": 16164,
            "target": 34962
        },
        {
            "buffer": 0,
            "byteLength": 15744,
            "byteOffset": 27972,
            "target": 34962
        },
        {
            "buffer": 0,
            "byteLength": 7872,
            "byteOffset": 43716,
            "target": 34962
        },
        {
            "buffer": 0,
            "byteLength": 2400,
            "byteOffset": 51588,
            "target": 34963
        },
        {
            "buffer": 0,
            "byteLength": 6048,
            "byteOffset": 53988,
            "target": 34962
        },
        {
            "buffer": 0,
            "byteLength": 6048,
            "byteOffset": 60036,
            "target": 34962
        },
        {
            "buffer": 0,
            "byteLength": 8064,
            "byteOffset": 66084,
            "target": 34962
        },
        {
            "buffer": 0,
            "byteLength": 4032,
            "byteOffset": 74148,
            "target": 34962
        },
        {
            "buffer": 0,
            "byteLength": 2568,
            "byteOffset": 78180,
            "target": 34963
        },
        {
            "buffer": 0,
            "byteLength": 7836,
            "byteOffset": 80748,
            "target": 34962
        },
        {
            "buffer": 0,
            "byteLength": 7836,
            "byteOffset": 88584,
            "target": 34962
        },
        {
            "buffer": 0,
            "byteLength": 10448,
            "byteOffset": 96420,
            "target": 34962
        },
        {
            "buffer": 0,
            "byteLength": 5224,
            "byteOffset": 106868,
            "target": 34962
        },
        {
            "buffer": 0,
            "byteLength": 1992,
            "byteOffset": 112092,
            "target": 34963
        },
        {
            "buffer": 0,
            "byteLength": 6012,
            "byteOffset": 114084,
            "target": 34962
        },
        {
            "buffer": 0,
            "byteLength": 6012,
            "byteOffset": 120096,
            "target": 34962
        },
        {
            "buffer": 0,
            "byteLength": 8016,
            "byteOffset": 126108,
            "target": 34962
        },
        {
            "buffer": 0,
            "byteLength": 4008,
            "byteOffset": 134124,
            "target": 34962
        },
        {
            "buffer": 0,
            "byteLength": 1992,
            "byteOffset": 138132,
            "target": 34963
        },
        {
            "buffer": 0,
            "byteLength": 6012,
            "byteOffset": 140124,
            "target": 34962
        },
        {
            "buffer": 0,
            "byteLength": 6012,
            "byteOffset": 146136,
            "target": 34962
        },
        {
            "buffer": 0,
            "byteLength": 8016,
            "byteOffset": 152148,
            "target": 34962
        },
        {
            "buffer": 0,
            "byteLength": 4008,
            "byteOffset": 160164,
            "target": 34962
        },
        {
            "buffer": 0,
            "byteLength": 2568,
            "byteOffset": 164172,
            "target": 34963
        },
        {
            "buffer": 0,
            "byteLength": 7860,
            "byteOffset": 166740,
            "target": 34962
        },
        {
            "buffer": 0,
            "byteLength": 7860,
            "byteOffset": 174600,
            "target": 34962
        },
        {
            "buffer": 0,
            "byteLength": 10480,
            "byteOffset": 182460,
            "target": 34962
        },
        {
            "buffer": 0,
            "byteLength": 5240,
            "byteOffset": 192940,
            "target": 34962
        }
    ],
    "scenes": [
        {
            "name": "Root Scene",
            "nodes": [
                0
            ]
        }
    ],
    "accessors": [
        {
            "componentType": 5123,
            "type": "SCALAR",
            "count": 2178,
            "bufferView": 0,
            "byteOffset": 0
        },
        {
            "componentType": 5126,
            "type": "VEC3",
            "count": 984,
            "bufferView": 1,
            "byteOffset": 0,
            "min": [
                -0.729299902915955,
                0.171725034713745,
                -1.23503077030182
            ],
            "max": [
                0.729299902915955,
                1.51202499866486,
                0.762860834598541
            ]
        },
        {
            "componentType": 5126,
            "type": "VEC3",
            "count": 984,
            "bufferView": 2,
            "byteOffset": 0
        },
        {
            "componentType": 5126,
            "type": "VEC4",
            "count": 984,
            "bufferView": 3,
            "byteOffset": 0
        },
        {
            "componentType": 5126,
            "type": "VEC2",
            "count": 984,
            "bufferView": 4,
            "byteOffset": 0
        },
        {
            "componentType": 5123,
            "type": "SCALAR",
            "count": 1200,
            "bufferView": 5,
            "byteOffset": 0
        },
        {
            "componentType": 5126,
            "type": "VEC3",
            "count": 504,
            "bufferView": 6,
            "byteOffset": 0,
            "min": [
                -0.654976546764374,
                -0.682724952697754,
                -0.0819614231586456
            ],
            "max": [
                0.654976546764374,
                0.0819614231586456,
                0.604131400585175
            ]
        },
        {
            "componentType": 5126,
            "type": "VEC3",
            "count": 504,
            "bufferView": 7,
            "byteOffset": 0
        },
        {
            "componentType": 5126,
            "type": "VEC4",
            "count": 504,
            "bufferView": 8,
            "byteOffset": 0
        },
        {
            "componentType": 5126,
            "type": "VEC2",
            "count": 504,
            "bufferView": 9,
            "byteOffset": 0
        },
        {
            "componentType": 5123,
            "type": "SCALAR",
            "count": 1284,
            "bufferView": 10,
            "byteOffset": 0
        },
        {
            "componentType": 5126,
            "type": "VEC3",
            "count": 653,
            "bufferView": 11,
            "byteOffset": 0,
            "min": [
                0.0,
                -0.437579959630966,
                -0.437580019235611
            ],
            "max": [
                0.342694461345673,
                0.437579959630966,
                0.437580019235611
            ]
        },
        {
            "componentType": 5126,
            "type": "VEC3",
            "count": 653,
            "bufferView": 12,
            "byteOffset": 0
        },
        {
            "componentType": 5126,
            "type": "VEC4",
            "count": 653,
            "bufferView": 13,
            "byteOffset": 0
        },
        {
            "componentType": 5126,
            "type": "VEC2",
            "count": 653,
            "bufferView": 14,
            "byteOffset": 0
        },
        {
            "componentType": 5123,
            "type": "SCALAR",
            "count": 996,
            "bufferView": 15,
            "byteOffset": 0
        },
        {
            "componentType": 5126,
            "type": "VEC3",
            "count": 501,
            "bufferView": 16,
            "byteOffset": 0,
            "min": [
                0.0,
                -0.269279986619949,
                -0.269279986619949
            ],
            "max": [
                0.247337520122528,
                0.269279986619949,
                0.269279986619949
            ]
        },
        {
            "componentType": 5126,
            "type": "VEC3",
            "count": 501,
            "bufferView": 17,
            "byteOffset": 0
        },
        {
            "componentType": 5126,
            "type": "VEC4",
            "count": 501,
            "bufferView": 18,
            "byteOffset": 0
        },
        {
            "componentType": 5126,
            "type": "VEC2",
            "count": 501,
            "bufferView": 19,
            "byteOffset": 0
        },
        {
            "componentType": 5123,
            "type": "SCALAR",
            "count": 996,
            "bufferView": 20,
            "byteOffset": 0
        },
        {
            "componentType": 5126,
            "type": "VEC3",
            "count": 501,
            "bufferView": 21,
            "byteOffset": 0,
            "min": [
                -0.247337520122528,
                -0.269279986619949,
                -0.269279986619949
            ],
            "max": [
                0.0,
                0.269279986619949,
                0.269279986619949
            ]
        },
        {
            "componentType": 5126,
            "type": "VEC3",
            "count": 501,
            "bufferView": 22,
            "byteOffset": 0
        },
        {
            "componentType": 5126,
            "type": "VEC4",
            "count": 501,
            "bufferView": 23,
            "byteOffset": 0
        },
        {
            "componentType": 5126,
            "type": "VEC2",
            "count": 501,
            "bufferView": 24,
            "byteOffset": 0
        },
        {
            "componentType": 5123,
            "type": "SCALAR",
            "count": 1284,
            "bufferView": 25,
            "byteOffset": 0
        },
        {
            "componentType": 5126,
            "type": "VEC3",
            "count": 655,
            "bufferView": 26,
            "byteOffset": 0,
            "min": [
                -0.342694461345673,
                -0.437579959630966,
                -0.437580019235611
            ],
            "max": [
                0.0,
                0.437579959630966,
                0.437580019235611
            ]
        },
        {
            "componentType": 5126,
            "type": "VEC3",
            "count": 655,
            "bufferView": 27,
            "byteOffset": 0
        },
        {
            "componentType": 5126,
            "type": "VEC4",
            "count": 655,
            "bufferView": 28,
            "byteOffset": 0
        },
        {
            "componentType": 5126,
            "type": "VEC2",
            "count": 655,
            "bufferView": 29,
            "byteOffset": 0
        }
    ],
    "images": [
        {
            "name": "colormap.png",
            "uri": "colormap.png"
        }
    ],
    "samplers": [
        {}
    ],
    "textures": [
        {
            "name": "DiffuseColor_Texture",
            "sampler": 0,
            "source": 0
        }
    ],
    "materials": [
        {
            "name": "colormap",
            "alphaMode": "OPAQUE",
            "extras": {
                "fromFBX": {
                    "shadingModel": "Lambert",
                    "isTruePBR": false
                }
            },
            "pbrMetallicRoughness": {
                "baseColorTexture": {
                    "index": 0,
                    "texCoord": 0
                },
                "baseColorFactor": [
                    1.0,
                    1.0,
                    1.0,
                    1.0
                ],
                "metallicFactor": 0.200000002980232,
                "roughnessFactor": 0.800000011920929
            }
        }
    ],
    "meshes": [
        {
            "name": "body",
            "primitives": [
                {
                    "material": 0,
                    "mode": 4,
                    "attributes": {
                        "NORMAL": 2,
                        "POSITION": 1,
                        "TANGENT": 3,
                        "TEXCOORD_0": 4
                    },
                    "indices": 0
                }
            ]
        },
        {
            "name": "shovel",
            "primitives": [
                {
                    "material": 0,
                    "mode": 4,
                    "attributes": {
                        "NORMAL": 7,
                        "POSITION": 6,
                        "TANGENT": 8,
                        "TEXCOORD_0": 9
                    },
                    "indices": 5
                }
            ]
        },
        {
            "name": "wheel-back-left",
            "primitives": [
                {
                    "material": 0,
                    "mode": 4,
                    "attributes": {
                        "NORMAL": 12,
                        "POSITION": 11,
                        "TANGENT": 13,
                        "TEXCOORD_0": 14
                    },
                    "indices": 10
                }
            ]
        },
        {
            "name": "wheel-front-left",
            "primitives": [
                {
                    "material": 0,
                    "mode": 4,
                    "attributes": {
                        "NORMAL": 17,
                        "POSITION": 16,
                        "TANGENT": 18,
                        "TEXCOORD_0": 19
                    },
                    "indices": 15
                }
            ]
        },
        {
            "name": "wheel-front-right",
            "primitives": [
                {
                    "material": 0,
                    "mode": 4,
                    "attributes": {
                        "NORMAL": 22,
                        "POSITION": 21,
                        "TANGENT": 23,
                        "TEXCOORD_0": 24
                    },
                    "indices": 20
                }
            ]
        },
        {
            "name": "wheel-back-right",
            "primitives": [
                {
                    "material": 0,
                    "mode": 4,
                    "attributes": {
                        "NORMAL": 27,
                        "POSITION": 26,
                        "TANGENT": 28,
                        "TEXCOORD_0": 29
                    },
                    "indices": 25
                }
            ]
        }
    ],
    "nodes": [
        {
            "name": "RootNode",
            "translation": [
                0.0,
                0.0,
                0.0
            ],
            "rotation": [
                0.0,
                0.0,
                0.0,
                1.0
            ],
            "scale": [
                1.0,
                1.0,
                1.0
            ],
            "children": [
                1
            ]
        },
        {
            "name": "tractor-shovel",
            "translation": [
                0.0,
                0.0,
                0.0
            ],
            "rotation": [
                0.0,
                0.0,
                0.0,
                1.0
            ],
            "scale": [
                1.0,
                1.0,
                1.0
            ],
            "children": [
                2,
                4,
                5,
                6,
                7
            ]
        },
        {
            "name": "body",
            "translation": [
                0.0,
                0.0,
                0.0
            ],
            "rotation": [
                0.0,
                0.0,
                0.0,
                1.0
            ],
            "scale": [
                1.0,
                1.0,
                1.0
            ],
            "children": [
                3
            ],
            "mesh": 0
        },
        {
            "name": "shovel",
            "translation": [
                0.0,
                0.682724952697754,
                0.630899488925934
            ],
            "rotation": [
                0.0,
                0.0,
                0.0,
                1.0
            ],
            "scale": [
                1.0,
                1.0,
                1.0
            ],
            "mesh": 1
        },
        {
            "name": "wheel-back-left",
            "translation": [
                0.487585514783859,
                0.437579959630966,
                -0.686250984668732
            ],
            "rotation": [
                0.0,
                0.0,
                0.0,
                1.0
            ],
            "scale": [
                1.0,
                1.0,
                1.0
            ],
            "mesh": 2
        },
        {
            "name": "wheel-front-left",
            "translation": [
                0.41464239358902,
                0.269279986619949,
                0.41232904791832
            ],
            "rotation": [
                0.0,
                0.0,
                0.0,
                1.0
            ],
            "scale": [
                1.0,
                1.0,
                1.0
            ],
            "mesh": 3
        },
        {
            "name": "wheel-front-right",
            "translation": [
                -0.41464239358902,
                0.269279986619949,
                0.41232904791832
            ],
            "rotation": [
                0.0,
                0.0,
                0.0,
                1.0
            ],
            "scale": [
                1.0,
                1.0,
                1.0
            ],
            "mesh": 4
        },
        {
            "name": "wheel-back-right",
            "translation": [
                -0.487585514783859,
                0.437579959630966,
                -0.686250984668732
            ],
            "rotation": [
                0.0,
                0.0,
                0.0,
                1.0
            ],
            "scale": [
                1.0,
                1.0,
                1.0
            ],
            "mesh": 5
        }
    ]
}