{
    "asset": {
        "generator": "FBX2glTF",
        "version": "2.0"
    },
    "scene": 0,
    "buffers": [
        {
            "byteLength": 11108,
            "uri": "buffer.bin"
        }
    ],
    "bufferViews": [
        {
            "buffer": 0,
            "byteLength": 1572,
            "byteOffset": 0,
            "target": 34963
        },
        {
            "buffer": 0,
            "byteLength": 3576,
            "byteOffset": 1572,
            "target": 34962
        },
        {
            "buffer": 0,
            "byteLength": 3576,
            "byteOffset": 5148,
            "target": 34962
        },
        {
            "buffer": 0,
            "byteLength": 2384,
            "byteOffset": 8724,
            "target": 34962
        }
    ],
    "scenes": [
        {
            "name": "Root Scene",
            "nodes": [
                0
            ]
        }
    ],
    "accessors": [
        {
            "componentType": 5123,
            "type": "SCALAR",
            "count": 786,
            "bufferView": 0,
            "byteOffset": 0
        },
        {
            "componentType": 5126,
            "type": "VEC3",
            "count": 298,
            "bufferView": 1,
            "byteOffset": 0,
            "min": [
                -0.0047499998472631,
                -0.0047499998472631,
                -3.72529021519519e-11
            ],
            "max": [
                0.00475000031292439,
                0.0047499998472631,
                0.000999999931082129
            ]
        },
        {
            "componentType": 5126,
            "type": "VEC3",
            "count": 298,
            "bufferView": 2,
            "byteOffset": 0
        },
        {
            "componentType": 5126,
            "type": "VEC2",
            "count": 298,
            "bufferView": 3,
            "byteOffset": 0
        }
    ],
    "images": [
        {
            "name": "base_color_texture",
            "uri": "data:image/png;base64,"
        }
    ],
    "samplers": [
        {}
    ],
    "textures": [
        {
            "name": "base_color_texture",
            "sampler": 0,
            "source": 0
        }
    ],
    "materials": [
        {
            "name": "restaurant",
            "alphaMode": "OPAQUE",
            "extras": {
                "fromFBX": {
                    "shadingModel": "Phong",
                    "isTruePBR": false
                }
            },
            "pbrMetallicRoughness": {
                "baseColorTexture": {
                    "index": 0,
                    "texCoord": 0
                },
                "baseColorFactor": [
                    1.0,
                    1.0,
                    1.0,
                    1.0
                ],
                "metallicFactor": 0.400000005960464,
                "roughnessFactor": 0.272165536880493
            }
        }
    ],
    "meshes": [
        {
            "name": "plate_dirty",
            "primitives": [
                {
                    "material": 0,
                    "mode": 4,
                    "attributes": {
                        "NORMAL": 2,
                        "POSITION": 1,
                        "TEXCOORD_0": 3
                    },
                    "indices": 0
                }
            ]
        }
    ],
    "nodes": [
        {
            "name": "RootNode",
            "translation": [
                0.0,
                0.0,
                0.0
            ],
            "rotation": [
                0.0,
                0.0,
                0.0,
                1.0
            ],
            "scale": [
                1.0,
                1.0,
                1.0
            ],
            "children": [
                1
            ]
        },
        {
            "name": "plate_dirty",
            "translation": [
                0.0,
                0.0,
                0.0
            ],
            "rotation": [
                -0.707106828689575,
                0.0,
                0.0,
                0.707106709480286
            ],
            "scale": [
                100.0,
                100.0,
                100.0
            ],
            "mesh": 0
        }
    ]
}