{
    "asset": {
        "generator": "FBX2glTF",
        "version": "2.0"
    },
    "scene": 0,
    "buffers": [
        {
            "byteLength": 17504,
            "uri": "buffer.bin"
        }
    ],
    "bufferViews": [
        {
            "buffer": 0,
            "byteLength": 1176,
            "byteOffset": 0,
            "target": 34963
        },
        {
            "buffer": 0,
            "byteLength": 3240,
            "byteOffset": 1176,
            "target": 34962
        },
        {
            "buffer": 0,
            "byteLength": 3240,
            "byteOffset": 4416,
            "target": 34962
        },
        {
            "buffer": 0,
            "byteLength": 2160,
            "byteOffset": 7656,
            "target": 34962
        },
        {
            "buffer": 0,
            "byteLength": 228,
            "byteOffset": 9816,
            "target": 34963
        },
        {
            "buffer": 0,
            "byteLength": 768,
            "byteOffset": 10044,
            "target": 34962
        },
        {
            "buffer": 0,
            "byteLength": 768,
            "byteOffset": 10812,
            "target": 34962
        },
        {
            "buffer": 0,
            "byteLength": 512,
            "byteOffset": 11580,
            "target": 34962
        },
        {
            "buffer": 0,
            "byteLength": 600,
            "byteOffset": 12092,
            "target": 34963
        },
        {
            "buffer": 0,
            "byteLength": 1752,
            "byteOffset": 12692,
            "target": 34962
        },
        {
            "buffer": 0,
            "byteLength": 1752,
            "byteOffset": 14444,
            "target": 34962
        },
        {
            "buffer": 0,
            "byteLength": 1168,
            "byteOffset": 16196,
            "target": 34962
        },
        {
            "buffer": 0,
            "byteLength": 12,
            "byteOffset": 17364,
            "target": 34963
        },
        {
            "buffer": 0,
            "byteLength": 48,
            "byteOffset": 17376,
            "target": 34962
        },
        {
            "buffer": 0,
            "byteLength": 48,
            "byteOffset": 17424,
            "target": 34962
        },
        {
            "buffer": 0,
            "byteLength": 32,
            "byteOffset": 17472,
            "target": 34962
        }
    ],
    "scenes": [
        {
            "name": "Root Scene",
            "nodes": [
                0
            ]
        }
    ],
    "accessors": [
        {
            "componentType": 5123,
            "type": "SCALAR",
            "count": 588,
            "bufferView": 0,
            "byteOffset": 0
        },
        {
            "componentType": 5126,
            "type": "VEC3",
            "count": 270,
            "bufferView": 1,
            "byteOffset": 0,
            "min": [
                -0.0519999973475933,
                -2.27941693193939e-29,
                -0.0519999973475933
            ],
            "max": [
                0.0519999973475933,
                0.0399999991059303,
                0.0519999973475933
            ]
        },
        {
            "componentType": 5126,
            "type": "VEC3",
            "count": 270,
            "bufferView": 2,
            "byteOffset": 0
        },
        {
            "componentType": 5126,
            "type": "VEC2",
            "count": 270,
            "bufferView": 3,
            "byteOffset": 0
        },
        {
            "componentType": 5123,
            "type": "SCALAR",
            "count": 114,
            "bufferView": 4,
            "byteOffset": 0
        },
        {
            "componentType": 5126,
            "type": "VEC3",
            "count": 64,
            "bufferView": 5,
            "byteOffset": 0,
            "min": [
                -0.0519999973475933,
                0.00499999988824129,
                -0.0399999991059303
            ],
            "max": [
                0.0519999973475933,
                0.0199999995529652,
                0.0399999991059303
            ]
        },
        {
            "componentType": 5126,
            "type": "VEC3",
            "count": 64,
            "bufferView": 6,
            "byteOffset": 0
        },
        {
            "componentType": 5126,
            "type": "VEC2",
            "count": 64,
            "bufferView": 7,
            "byteOffset": 0
        },
        {
            "componentType": 5123,
            "type": "SCALAR",
            "count": 300,
            "bufferView": 8,
            "byteOffset": 0
        },
        {
            "componentType": 5126,
            "type": "VEC3",
            "count": 146,
            "bufferView": 9,
            "byteOffset": 0,
            "min": [
                -0.0519999973475933,
                -2.27941693193939e-29,
                -0.0519999973475933
            ],
            "max": [
                0.0519999973475933,
                0.044999998062849,
                0.0519999973475933
            ]
        },
        {
            "componentType": 5126,
            "type": "VEC3",
            "count": 146,
            "bufferView": 10,
            "byteOffset": 0
        },
        {
            "componentType": 5126,
            "type": "VEC2",
            "count": 146,
            "bufferView": 11,
            "byteOffset": 0
        },
        {
            "componentType": 5123,
            "type": "SCALAR",
            "count": 6,
            "bufferView": 12,
            "byteOffset": 0
        },
        {
            "componentType": 5126,
            "type": "VEC3",
            "count": 4,
            "bufferView": 13,
            "byteOffset": 0,
            "min": [
                -0.0320000015199184,
                0.0199999995529652,
                -0.0299999993294477
            ],
            "max": [
                0.0320000015199184,
                0.0199999995529652,
                0.0299999993294477
            ]
        },
        {
            "componentType": 5126,
            "type": "VEC3",
            "count": 4,
            "bufferView": 14,
            "byteOffset": 0
        },
        {
            "componentType": 5126,
            "type": "VEC2",
            "count": 4,
            "bufferView": 15,
            "byteOffset": 0
        }
    ],
    "samplers": [
        {}
    ],
    "materials": [
        {
            "name": "woodBark",
            "alphaMode": "OPAQUE",
            "extras": {
                "fromFBX": {
                    "shadingModel": "Phong",
                    "isTruePBR": false
                }
            },
            "pbrMetallicRoughness": {
                "baseColorFactor": [
                    0.886274516582489,
                    0.513725519180298,
                    0.341176509857178,
                    1.0
                ],
                "metallicFactor": 0.400000005960464,
                "roughnessFactor": 1.0
            }
        },
        {
            "name": "stone",
            "alphaMode": "OPAQUE",
            "extras": {
                "fromFBX": {
                    "shadingModel": "Phong",
                    "isTruePBR": false
                }
            },
            "pbrMetallicRoughness": {
                "baseColorFactor": [
                    0.721568584442139,
                    0.886274516582489,
                    0.909803926944733,
                    1.0
                ],
                "metallicFactor": 0.400000005960464,
                "roughnessFactor": 1.0
            }
        },
        {
            "name": "wood",
            "alphaMode": "OPAQUE",
            "extras": {
                "fromFBX": {
                    "shadingModel": "Phong",
                    "isTruePBR": false
                }
            },
            "pbrMetallicRoughness": {
                "baseColorFactor": [
                    1.0,
                    0.556862771511078,
                    0.384313702583313,
                    1.0
                ],
                "metallicFactor": 0.400000005960464,
                "roughnessFactor": 1.0
            }
        },
        {
            "name": "stoneDark",
            "alphaMode": "OPAQUE",
            "extras": {
                "fromFBX": {
                    "shadingModel": "Phong",
                    "isTruePBR": false
                }
            },
            "pbrMetallicRoughness": {
                "baseColorFactor": [
                    0.603921592235565,
                    0.709803879261017,
                    0.729411780834198,
                    1.0
                ],
                "metallicFactor": 0.400000005960464,
                "roughnessFactor": 1.0
            }
        }
    ],
    "meshes": [
        {
            "name": "bridge_woodRound",
            "primitives": [
                {
                    "material": 0,
                    "mode": 4,
                    "attributes": {
                        "NORMAL": 2,
                        "POSITION": 1,
                        "TEXCOORD_0": 3
                    },
                    "indices": 0
                },
                {
                    "material": 1,
                    "mode": 4,
                    "attributes": {
                        "NORMAL": 6,
                        "POSITION": 5,
                        "TEXCOORD_0": 7
                    },
                    "indices": 4
                },
                {
                    "material": 2,
                    "mode": 4,
                    "attributes": {
                        "NORMAL": 10,
                        "POSITION": 9,
                        "TEXCOORD_0": 11
                    },
                    "indices": 8
                },
                {
                    "material": 3,
                    "mode": 4,
                    "attributes": {
                        "NORMAL": 14,
                        "POSITION": 13,
                        "TEXCOORD_0": 15
                    },
                    "indices": 12
                }
            ]
        }
    ],
    "nodes": [
        {
            "name": "RootNode",
            "translation": [
                0.0,
                0.0,
                0.0
            ],
            "rotation": [
                0.0,
                0.0,
                0.0,
                1.0
            ],
            "scale": [
                1.0,
                1.0,
                1.0
            ],
            "children": [
                1
            ]
        },
        {
            "name": "bridge_woodRound",
            "translation": [
                0.0,
                -0.0499999970197678,
                0.0
            ],
            "rotation": [
                0.0,
                0.0,
                0.0,
                1.0
            ],
            "scale": [
                10.0,
                10.0,
                10.0
            ],
            "mesh": 0
        }
    ]
}