{
    "asset": {
        "generator": "FBX2glTF",
        "version": "2.0"
    },
    "scene": 0,
    "buffers": [
        {
            "byteLength": 84624,
            "uri": "buffer.bin"
        }
    ],
    "bufferViews": [
        {
            "buffer": 0,
            "byteLength": 1032,
            "byteOffset": 0,
            "target": 34963
        },
        {
            "buffer": 0,
            "byteLength": 2388,
            "byteOffset": 1032,
            "target": 34962
        },
        {
            "buffer": 0,
            "byteLength": 2388,
            "byteOffset": 3420,
            "target": 34962
        },
        {
            "buffer": 0,
            "byteLength": 3184,
            "byteOffset": 5808,
            "target": 34962
        },
        {
            "buffer": 0,
            "byteLength": 1592,
            "byteOffset": 8992,
            "target": 34962
        },
        {
            "buffer": 0,
            "byteLength": 1032,
            "byteOffset": 10584,
            "target": 34963
        },
        {
            "buffer": 0,
            "byteLength": 2388,
            "byteOffset": 11616,
            "target": 34962
        },
        {
            "buffer": 0,
            "byteLength": 2388,
            "byteOffset": 14004,
            "target": 34962
        },
        {
            "buffer": 0,
            "byteLength": 3184,
            "byteOffset": 16392,
            "target": 34962
        },
        {
            "buffer": 0,
            "byteLength": 1592,
            "byteOffset": 19576,
            "target": 34962
        },
        {
            "buffer": 0,
            "byteLength": 1032,
            "byteOffset": 21168,
            "target": 34963
        },
        {
            "buffer": 0,
            "byteLength": 2388,
            "byteOffset": 22200,
            "target": 34962
        },
        {
            "buffer": 0,
            "byteLength": 2388,
            "byteOffset": 24588,
            "target": 34962
        },
        {
            "buffer": 0,
            "byteLength": 3184,
            "byteOffset": 26976,
            "target": 34962
        },
        {
            "buffer": 0,
            "byteLength": 1592,
            "byteOffset": 30160,
            "target": 34962
        },
        {
            "buffer": 0,
            "byteLength": 1032,
            "byteOffset": 31752,
            "target": 34963
        },
        {
            "buffer": 0,
            "byteLength": 2388,
            "byteOffset": 32784,
            "target": 34962
        },
        {
            "buffer": 0,
            "byteLength": 2388,
            "byteOffset": 35172,
            "target": 34962
        },
        {
            "buffer": 0,
            "byteLength": 3184,
            "byteOffset": 37560,
            "target": 34962
        },
        {
            "buffer": 0,
            "byteLength": 1592,
            "byteOffset": 40744,
            "target": 34962
        },
        {
            "buffer": 0,
            "byteLength": 1032,
            "byteOffset": 42336,
            "target": 34963
        },
        {
            "buffer": 0,
            "byteLength": 2388,
            "byteOffset": 43368,
            "target": 34962
        },
        {
            "buffer": 0,
            "byteLength": 2388,
            "byteOffset": 45756,
            "target": 34962
        },
        {
            "buffer": 0,
            "byteLength": 3184,
            "byteOffset": 48144,
            "target": 34962
        },
        {
            "buffer": 0,
            "byteLength": 1592,
            "byteOffset": 51328,
            "target": 34962
        },
        {
            "buffer": 0,
            "byteLength": 1032,
            "byteOffset": 52920,
            "target": 34963
        },
        {
            "buffer": 0,
            "byteLength": 2376,
            "byteOffset": 53952,
            "target": 34962
        },
        {
            "buffer": 0,
            "byteLength": 2376,
            "byteOffset": 56328,
            "target": 34962
        },
        {
            "buffer": 0,
            "byteLength": 3168,
            "byteOffset": 58704,
            "target": 34962
        },
        {
            "buffer": 0,
            "byteLength": 1584,
            "byteOffset": 61872,
            "target": 34962
        },
        {
            "buffer": 0,
            "byteLength": 1032,
            "byteOffset": 63456,
            "target": 34963
        },
        {
            "buffer": 0,
            "byteLength": 2388,
            "byteOffset": 64488,
            "target": 34962
        },
        {
            "buffer": 0,
            "byteLength": 2388,
            "byteOffset": 66876,
            "target": 34962
        },
        {
            "buffer": 0,
            "byteLength": 3184,
            "byteOffset": 69264,
            "target": 34962
        },
        {
            "buffer": 0,
            "byteLength": 1592,
            "byteOffset": 72448,
            "target": 34962
        },
        {
            "buffer": 0,
            "byteLength": 1032,
            "byteOffset": 74040,
            "target": 34963
        },
        {
            "buffer": 0,
            "byteLength": 2388,
            "byteOffset": 75072,
            "target": 34962
        },
        {
            "buffer": 0,
            "byteLength": 2388,
            "byteOffset": 77460,
            "target": 34962
        },
        {
            "buffer": 0,
            "byteLength": 3184,
            "byteOffset": 79848,
            "target": 34962
        },
        {
            "buffer": 0,
            "byteLength": 1592,
            "byteOffset": 83032,
            "target": 34962
        }
    ],
    "scenes": [
        {
            "name": "Root Scene",
            "nodes": [
                0
            ]
        }
    ],
    "accessors": [
        {
            "componentType": 5123,
            "type": "SCALAR",
            "count": 516,
            "bufferView": 0,
            "byteOffset": 0
        },
        {
            "componentType": 5126,
            "type": "VEC3",
            "count": 199,
            "bufferView": 1,
            "byteOffset": 0,
            "min": [
                -0.137429118156433,
                1.80477852701956e-16,
                -0.1374292075634
            ],
            "max": [
                0.0235791318118572,
                0.476099997758865,
                0.0902708992362022
            ]
        },
        {
            "componentType": 5126,
            "type": "VEC3",
            "count": 199,
            "bufferView": 2,
            "byteOffset": 0
        },
        {
            "componentType": 5126,
            "type": "VEC4",
            "count": 199,
            "bufferView": 3,
            "byteOffset": 0
        },
        {
            "componentType": 5126,
            "type": "VEC2",
            "count": 199,
            "bufferView": 4,
            "byteOffset": 0
        },
        {
            "componentType": 5123,
            "type": "SCALAR",
            "count": 516,
            "bufferView": 5,
            "byteOffset": 0
        },
        {
            "componentType": 5126,
            "type": "VEC3",
            "count": 199,
            "bufferView": 6,
            "byteOffset": 0,
            "min": [
                -0.113849997520447,
                9.02389263509778e-17,
                -0.0805041566491127
            ],
            "max": [
                0.113850012421608,
                0.476099997758865,
                0.0805041044950485
            ]
        },
        {
            "componentType": 5126,
            "type": "VEC3",
            "count": 199,
            "bufferView": 7,
            "byteOffset": 0
        },
        {
            "componentType": 5126,
            "type": "VEC4",
            "count": 199,
            "bufferView": 8,
            "byteOffset": 0
        },
        {
            "componentType": 5126,
            "type": "VEC2",
            "count": 199,
            "bufferView": 9,
            "byteOffset": 0
        },
        {
            "componentType": 5123,
            "type": "SCALAR",
            "count": 516,
            "bufferView": 10,
            "byteOffset": 0
        },
        {
            "componentType": 5126,
            "type": "VEC3",
            "count": 199,
            "bufferView": 11,
            "byteOffset": 0,
            "min": [
                -0.0805041193962097,
                9.02389263509778e-17,
                -0.113850012421608
            ],
            "max": [
                0.0805041268467903,
                0.476099997758865,
                0.113850101828575
            ]
        },
        {
            "componentType": 5126,
            "type": "VEC3",
            "count": 199,
            "bufferView": 12,
            "byteOffset": 0
        },
        {
            "componentType": 5126,
            "type": "VEC4",
            "count": 199,
            "bufferView": 13,
            "byteOffset": 0
        },
        {
            "componentType": 5126,
            "type": "VEC2",
            "count": 199,
            "bufferView": 14,
            "byteOffset": 0
        },
        {
            "componentType": 5123,
            "type": "SCALAR",
            "count": 516,
            "bufferView": 15,
            "byteOffset": 0
        },
        {
            "componentType": 5126,
            "type": "VEC3",
            "count": 199,
            "bufferView": 16,
            "byteOffset": 0,
            "min": [
                -0.137429118156433,
                9.02389263509778e-17,
                -0.0235791131854057
            ],
            "max": [
                0.0902708917856216,
                0.476099997758865,
                0.137429103255272
            ]
        },
        {
            "componentType": 5126,
            "type": "VEC3",
            "count": 199,
            "bufferView": 17,
            "byteOffset": 0
        },
        {
            "componentType": 5126,
            "type": "VEC4",
            "count": 199,
            "bufferView": 18,
            "byteOffset": 0
        },
        {
            "componentType": 5126,
            "type": "VEC2",
            "count": 199,
            "bufferView": 19,
            "byteOffset": 0
        },
        {
            "componentType": 5123,
            "type": "SCALAR",
            "count": 516,
            "bufferView": 20,
            "byteOffset": 0
        },
        {
            "componentType": 5126,
            "type": "VEC3",
            "count": 199,
            "bufferView": 21,
            "byteOffset": 0,
            "min": [
                -0.0805041268467903,
                9.02389263509778e-17,
                -0.113850124180317
            ],
            "max": [
                0.0805041044950485,
                0.476099997758865,
                0.113849997520447
            ]
        },
        {
            "componentType": 5126,
            "type": "VEC3",
            "count": 199,
            "bufferView": 22,
            "byteOffset": 0
        },
        {
            "componentType": 5126,
            "type": "VEC4",
            "count": 199,
            "bufferView": 23,
            "byteOffset": 0
        },
        {
            "componentType": 5126,
            "type": "VEC2",
            "count": 199,
            "bufferView": 24,
            "byteOffset": 0
        },
        {
            "componentType": 5123,
            "type": "SCALAR",
            "count": 516,
            "bufferView": 25,
            "byteOffset": 0
        },
        {
            "componentType": 5126,
            "type": "VEC3",
            "count": 198,
            "bufferView": 26,
            "byteOffset": 0,
            "min": [
                -0.0235791150480509,
                9.02389263509778e-17,
                -0.0902708917856216
            ],
            "max": [
                0.137429103255272,
                0.476099997758865,
                0.1374292075634
            ]
        },
        {
            "componentType": 5126,
            "type": "VEC3",
            "count": 198,
            "bufferView": 27,
            "byteOffset": 0
        },
        {
            "componentType": 5126,
            "type": "VEC4",
            "count": 198,
            "bufferView": 28,
            "byteOffset": 0
        },
        {
            "componentType": 5126,
            "type": "VEC2",
            "count": 198,
            "bufferView": 29,
            "byteOffset": 0
        },
        {
            "componentType": 5123,
            "type": "SCALAR",
            "count": 516,
            "bufferView": 30,
            "byteOffset": 0
        },
        {
            "componentType": 5126,
            "type": "VEC3",
            "count": 199,
            "bufferView": 31,
            "byteOffset": 0,
            "min": [
                -0.113850012421608,
                9.02389263509778e-17,
                -0.0805041044950485
            ],
            "max": [
                0.113849997520447,
                0.476099997758865,
                0.0805041566491127
            ]
        },
        {
            "componentType": 5126,
            "type": "VEC3",
            "count": 199,
            "bufferView": 32,
            "byteOffset": 0
        },
        {
            "componentType": 5126,
            "type": "VEC4",
            "count": 199,
            "bufferView": 33,
            "byteOffset": 0
        },
        {
            "componentType": 5126,
            "type": "VEC2",
            "count": 199,
            "bufferView": 34,
            "byteOffset": 0
        },
        {
            "componentType": 5123,
            "type": "SCALAR",
            "count": 516,
            "bufferView": 35,
            "byteOffset": 0
        },
        {
            "componentType": 5126,
            "type": "VEC3",
            "count": 199,
            "bufferView": 36,
            "byteOffset": 0,
            "min": [
                -0.0902708917856216,
                1.80477852701956e-16,
                -0.137429103255272
            ],
            "max": [
                0.137429133057594,
                0.476099997758865,
                0.0235791206359863
            ]
        },
        {
            "componentType": 5126,
            "type": "VEC3",
            "count": 199,
            "bufferView": 37,
            "byteOffset": 0
        },
        {
            "componentType": 5126,
            "type": "VEC4",
            "count": 199,
            "bufferView": 38,
            "byteOffset": 0
        },
        {
            "componentType": 5126,
            "type": "VEC2",
            "count": 199,
            "bufferView": 39,
            "byteOffset": 0
        }
    ],
    "images": [
        {
            "name": "colormap.png",
            "uri": "colormap.png"
        }
    ],
    "samplers": [
        {}
    ],
    "textures": [
        {
            "name": "DiffuseColor_Texture",
            "sampler": 0,
            "source": 0
        }
    ],
    "materials": [
        {
            "name": "colormap",
            "alphaMode": "OPAQUE",
            "extras": {
                "fromFBX": {
                    "shadingModel": "Lambert",
                    "isTruePBR": false
                }
            },
            "pbrMetallicRoughness": {
                "baseColorTexture": {
                    "index": 0,
                    "texCoord": 0
                },
                "baseColorFactor": [
                    1.0,
                    1.0,
                    1.0,
                    1.0
                ],
                "metallicFactor": 0.200000002980232,
                "roughnessFactor": 0.800000011920929
            }
        }
    ],
    "meshes": [
        {
            "name": "slice",
            "primitives": [
                {
                    "material": 0,
                    "mode": 4,
                    "attributes": {
                        "NORMAL": 2,
                        "POSITION": 1,
                        "TANGENT": 3,
                        "TEXCOORD_0": 4
                    },
                    "indices": 0
                }
            ]
        },
        {
            "name": "slice_1",
            "primitives": [
                {
                    "material": 0,
                    "mode": 4,
                    "attributes": {
                        "NORMAL": 7,
                        "POSITION": 6,
                        "TANGENT": 8,
                        "TEXCOORD_0": 9
                    },
                    "indices": 5
                }
            ]
        },
        {
            "name": "slice_2",
            "primitives": [
                {
                    "material": 0,
                    "mode": 4,
                    "attributes": {
                        "NORMAL": 12,
                        "POSITION": 11,
                        "TANGENT": 13,
                        "TEXCOORD_0": 14
                    },
                    "indices": 10
                }
            ]
        },
        {
            "name": "slice_3",
            "primitives": [
                {
                    "material": 0,
                    "mode": 4,
                    "attributes": {
                        "NORMAL": 17,
                        "POSITION": 16,
                        "TANGENT": 18,
                        "TEXCOORD_0": 19
                    },
                    "indices": 15
                }
            ]
        },
        {
            "name": "slice_4",
            "primitives": [
                {
                    "material": 0,
                    "mode": 4,
                    "attributes": {
                        "NORMAL": 22,
                        "POSITION": 21,
                        "TANGENT": 23,
                        "TEXCOORD_0": 24
                    },
                    "indices": 20
                }
            ]
        },
        {
            "name": "slice_5",
            "primitives": [
                {
                    "material": 0,
                    "mode": 4,
                    "attributes": {
                        "NORMAL": 27,
                        "POSITION": 26,
                        "TANGENT": 28,
                        "TEXCOORD_0": 29
                    },
                    "indices": 25
                }
            ]
        },
        {
            "name": "slice_6",
            "primitives": [
                {
                    "material": 0,
                    "mode": 4,
                    "attributes": {
                        "NORMAL": 32,
                        "POSITION": 31,
                        "TANGENT": 33,
                        "TEXCOORD_0": 34
                    },
                    "indices": 30
                }
            ]
        },
        {
            "name": "slice_7",
            "primitives": [
                {
                    "material": 0,
                    "mode": 4,
                    "attributes": {
                        "NORMAL": 37,
                        "POSITION": 36,
                        "TANGENT": 38,
                        "TEXCOORD_0": 39
                    },
                    "indices": 35
                }
            ]
        }
    ],
    "nodes": [
        {
            "name": "RootNode",
            "translation": [
                0.0,
                0.0,
                0.0
            ],
            "rotation": [
                0.0,
                0.0,
                0.0,
                1.0
            ],
            "scale": [
                1.0,
                1.0,
                1.0
            ],
            "children": [
                1
            ]
        },
        {
            "name": "watermelon",
            "translation": [
                0.0,
                0.0,
                0.0
            ],
            "rotation": [
                0.0,
                0.0,
                0.0,
                1.0
            ],
            "scale": [
                1.0,
                1.0,
                1.0
            ],
            "children": [
                2,
                3,
                4,
                5,
                6,
                7,
                8,
                9
            ]
        },
        {
            "name": "slice",
            "translation": [
                -0.0235791057348251,
                1.60296534003695e-31,
                0.137429103255272
            ],
            "rotation": [
                0.0,
                0.0,
                0.0,
                1.0
            ],
            "scale": [
                1.0,
                1.0,
                1.0
            ],
            "mesh": 0
        },
        {
            "name": "slice_1",
            "translation": [
                -0.113849997520447,
                0.0,
                0.0805041119456291
            ],
            "rotation": [
                0.0,
                0.0,
                0.0,
                1.0
            ],
            "scale": [
                1.0,
                1.0,
                1.0
            ],
            "mesh": 1
        },
        {
            "name": "slice_2",
            "translation": [
                -0.0805041119456291,
                0.0,
                -0.113849997520447
            ],
            "rotation": [
                0.0,
                0.0,
                0.0,
                1.0
            ],
            "scale": [
                1.0,
                1.0,
                1.0
            ],
            "mesh": 2
        },
        {
            "name": "slice_3",
            "translation": [
                0.137429103255272,
                0.0,
                0.0235791057348251
            ],
            "rotation": [
                0.0,
                0.0,
                0.0,
                1.0
            ],
            "scale": [
                1.0,
                1.0,
                1.0
            ],
            "mesh": 3
        },
        {
            "name": "slice_4",
            "translation": [
                0.0805041119456291,
                0.0,
                0.113849997520447
            ],
            "rotation": [
                0.0,
                0.0,
                0.0,
                1.0
            ],
            "scale": [
                1.0,
                1.0,
                1.0
            ],
            "mesh": 4
        },
        {
            "name": "slice_5",
            "translation": [
                0.0235791057348251,
                1.60296534003695e-31,
                -0.137429103255272
            ],
            "rotation": [
                0.0,
                0.0,
                0.0,
                1.0
            ],
            "scale": [
                1.0,
                1.0,
                1.0
            ],
            "mesh": 5
        },
        {
            "name": "slice_6",
            "translation": [
                0.113849997520447,
                0.0,
                -0.0805041119456291
            ],
            "rotation": [
                0.0,
                0.0,
                0.0,
                1.0
            ],
            "scale": [
                1.0,
                1.0,
                1.0
            ],
            "mesh": 6
        },
        {
            "name": "slice_7",
            "translation": [
                -0.137429103255272,
                0.0,
                -0.0235791057348251
            ],
            "rotation": [
                0.0,
                0.0,
                0.0,
                1.0
            ],
            "scale": [
                1.0,
                1.0,
                1.0
            ],
            "mesh": 7
        }
    ]
}